<?xml version="1.0" encoding="utf-8"?>
<!-- Generator: Adobe Illustrator 24.1.0, SVG Export Plug-In . SVG Version: 6.00 Build 0)  -->
<svg version="1.1" id="b4f588af-18d7-4906-8105-45aee20d6ab5"
	 xmlns="http://www.w3.org/2000/svg" xmlns:xlink="http://www.w3.org/1999/xlink" x="0px" y="0px" viewBox="0 0 217.3 255"
	 style="enable-background:new 0 0 217.3 255;" xml:space="preserve">
<style type="text/css">
	.st0{fill:#71B429;}
	.st1{fill:#05ACFF;}
	.st2{fill:#FFFFFF;}
	.st3{fill:#5E6981;}
	.st4{fill:#E87474;}
	.st5{fill:#F2F2F2;}
	.st6{fill:#FEBC5B;}
	.st7{fill:#71A0FE;}
</style>
<rect x="107.8" y="21.4" class="st0" width="1.2" height="21.3"/>
<rect x="27.9" y="21.4" class="st0" width="1.1" height="22.4"/>
<polygon class="st0" points="108.4,46.3 105.8,41 111,41 "/>
<path class="st1" d="M28.5,170.2V163h3.2c0.5,0,1,0,1.5,0.2c0.3,0.1,0.6,0.4,0.8,0.7c0.2,0.3,0.3,0.7,0.3,1.1c0,0.5-0.2,0.9-0.5,1.3
	c-0.4,0.4-1,0.6-1.5,0.7c0.2,0.1,0.4,0.2,0.6,0.4c0.3,0.3,0.6,0.6,0.8,0.9l1.2,2h-1.2l-0.9-1.5c-0.3-0.4-0.5-0.8-0.7-1
	c-0.1-0.2-0.3-0.3-0.5-0.5c-0.1-0.1-0.3-0.2-0.4-0.2c-0.2,0-0.4,0-0.5,0h-1.1v3.2L28.5,170.2z M29.5,166.2h2c0.3,0,0.7,0,1-0.1
	c0.2-0.1,0.4-0.2,0.5-0.4c0.1-0.2,0.2-0.4,0.2-0.6c0-0.3-0.1-0.6-0.4-0.8c-0.3-0.2-0.7-0.4-1.2-0.3h-2.2L29.5,166.2z"/>
<path class="st1" d="M39.2,168.5l0.9,0.1c-0.1,0.5-0.4,0.9-0.8,1.2c-1,0.7-2.4,0.6-3.3-0.3c-0.5-0.6-0.7-1.3-0.7-2
	c0-0.7,0.2-1.4,0.7-2c0.5-0.5,1.1-0.7,1.8-0.7c0.6,0,1.3,0.2,1.7,0.7c0.5,0.6,0.7,1.3,0.7,2c0,0.1,0,0.2,0,0.2h-3.9
	c0,0.5,0.2,0.9,0.5,1.3c0.3,0.3,0.7,0.5,1.1,0.5c0.3,0,0.6-0.1,0.8-0.3C38.9,169.1,39.1,168.8,39.2,168.5z M36.3,167.1h2.9
	c0-0.4-0.1-0.7-0.3-1c-0.3-0.3-0.7-0.5-1.1-0.5c-0.4,0-0.7,0.1-1,0.4C36.5,166.3,36.3,166.7,36.3,167.1z"/>
<path class="st1" d="M41.2,172.2V165H42v0.7c0.2-0.2,0.4-0.4,0.6-0.6c0.3-0.1,0.6-0.2,0.9-0.2c0.4,0,0.8,0.1,1.2,0.3
	c0.4,0.2,0.6,0.6,0.8,1c0.2,0.4,0.3,0.9,0.3,1.4c0,0.5-0.1,1-0.3,1.4c-0.3,0.8-1.1,1.3-2,1.3c-0.3,0-0.5-0.1-0.8-0.2
	c-0.2-0.1-0.4-0.3-0.6-0.5v2.5L41.2,172.2z M42,167.6c0,0.5,0.1,1,0.4,1.5c0.2,0.3,0.6,0.5,1,0.5c0.4,0,0.8-0.2,1-0.5
	c0.3-0.4,0.5-1,0.4-1.5c0-0.5-0.1-1-0.4-1.5c-0.2-0.3-0.6-0.5-1-0.5c-0.4,0-0.8,0.2-1,0.5C42.1,166.5,41.9,167.1,42,167.6L42,167.6z
	"/>
<path class="st1" d="M46.7,170.2V163h0.9v7.2L46.7,170.2z"/>
<path class="st1" d="M49,164v-1h0.9v1H49z M49,170.1V165h0.9v5.2L49,170.1z"/>
<path class="st1" d="M54.6,168.3l0.9,0.1c-0.1,0.5-0.3,1-0.7,1.4c-0.4,0.3-0.9,0.5-1.4,0.5c-0.6,0-1.3-0.2-1.7-0.7
	c-0.5-0.6-0.7-1.3-0.7-2c0-0.5,0.1-1,0.3-1.5c0.2-0.4,0.5-0.7,0.8-0.9c0.4-0.2,0.8-0.3,1.2-0.3c0.5,0,1,0.1,1.4,0.4
	c0.4,0.3,0.6,0.7,0.7,1.2l-0.8,0.1c-0.1-0.3-0.2-0.6-0.4-0.8c-0.2-0.2-0.5-0.3-0.8-0.3c-0.4,0-0.8,0.2-1.1,0.5
	c-0.3,0.4-0.5,1-0.4,1.5c0,0.5,0.1,1.1,0.4,1.5c0.3,0.3,0.6,0.5,1,0.5c0.3,0,0.6-0.1,0.9-0.3C54.4,169,54.5,168.6,54.6,168.3z"/>
<path class="st1" d="M59.6,169.5c-0.3,0.2-0.6,0.4-0.9,0.6c-0.3,0.1-0.7,0.2-1,0.2c-0.5,0-0.9-0.1-1.3-0.4c-0.3-0.3-0.5-0.7-0.5-1.1
	c0-0.2,0.1-0.5,0.2-0.7c0.1-0.2,0.3-0.4,0.5-0.5c0.2-0.1,0.4-0.2,0.6-0.3c0.3-0.1,0.5-0.1,0.8-0.1c0.5,0,1.1-0.1,1.6-0.3v-0.2
	c0-0.3-0.1-0.6-0.2-0.8c-0.3-0.2-0.6-0.3-1-0.3c-0.3,0-0.6,0.1-0.9,0.2c-0.2,0.2-0.4,0.5-0.4,0.8l-0.9-0.1c0.1-0.3,0.2-0.6,0.4-0.9
	c0.2-0.2,0.5-0.4,0.8-0.5c0.4-0.1,0.8-0.2,1.2-0.2c0.4,0,0.7,0,1.1,0.1c0.2,0.1,0.4,0.2,0.6,0.4c0.1,0.2,0.2,0.4,0.3,0.6
	c0,0.3,0,0.5,0,0.8v1.2c0,0.5,0,1,0,1.6c0,0.2,0.1,0.4,0.2,0.6h-0.9C59.6,170,59.6,169.8,59.6,169.5z M59.5,167.5
	c-0.5,0.2-0.9,0.3-1.4,0.3c-0.3,0-0.5,0.1-0.8,0.2c-0.1,0.1-0.3,0.2-0.3,0.3c-0.2,0.3-0.1,0.7,0.1,1c0.2,0.2,0.5,0.2,0.8,0.2
	c0.3,0,0.6-0.1,0.9-0.2c0.3-0.1,0.5-0.4,0.6-0.6c0.1-0.3,0.2-0.6,0.1-0.9L59.5,167.5z"/>
<path class="st1" d="M63.7,169.4l0.1,0.8c-0.2,0-0.4,0.1-0.7,0.1c-0.3,0-0.5,0-0.7-0.1c-0.2-0.1-0.3-0.2-0.4-0.4
	c-0.1-0.3-0.1-0.7-0.1-1v-3h-0.6V165h0.6v-1.3l0.9-0.5v1.8h0.9v0.7h-0.9v3c0,0.2,0,0.3,0,0.5c0,0.1,0.1,0.1,0.2,0.2
	c0.1,0,0.2,0.1,0.3,0.1C63.4,169.4,63.5,169.4,63.7,169.4z"/>
<path class="st1" d="M64.5,164v-1h0.9v1H64.5z M64.5,170.1V165h0.9v5.2L64.5,170.1z"/>
<path class="st1" d="M66.4,167.6c-0.1-0.8,0.2-1.6,0.8-2.1c0.5-0.4,1-0.6,1.6-0.6c0.7,0,1.3,0.2,1.8,0.7c0.5,0.5,0.7,1.2,0.7,1.9
	c0,0.5-0.1,1.1-0.3,1.6c-0.2,0.4-0.5,0.7-0.9,0.9c-0.4,0.2-0.8,0.3-1.3,0.3c-0.7,0-1.3-0.2-1.8-0.7C66.6,169,66.4,168.3,66.4,167.6z
	 M67.3,167.6c0,0.5,0.1,1.1,0.4,1.5c0.5,0.6,1.4,0.7,2,0.1c0.1,0,0.1-0.1,0.1-0.1c0.3-0.4,0.5-1,0.4-1.5c0-0.5-0.1-1-0.4-1.5
	c-0.5-0.6-1.5-0.7-2.1-0.1c0,0-0.1,0.1-0.1,0.1C67.4,166.5,67.3,167.1,67.3,167.6z"/>
<path class="st1" d="M72.3,170.2V165h0.8v0.7c0.4-0.6,1-0.9,1.7-0.9c0.3,0,0.6,0.1,0.9,0.2c0.2,0.1,0.4,0.2,0.6,0.4
	c0.1,0.2,0.2,0.4,0.3,0.6c0,0.3,0,0.6,0,0.9v3.2h-0.9V167c0-0.3,0-0.5-0.1-0.8c-0.1-0.2-0.2-0.3-0.4-0.4c-0.2-0.1-0.4-0.2-0.6-0.2
	c-0.4,0-0.7,0.1-1,0.4c-0.3,0.4-0.5,0.9-0.4,1.4v2.8L72.3,170.2z"/>
<path class="st2" d="M3.6,54h48.7c1.7,0,3,1.3,3,3v48.7c0,1.7-1.3,3-3,3H3.6c-1.7,0-3-1.3-3-3V57C0.6,55.4,1.9,54,3.6,54z"/>
<path class="st1" d="M52.2,109.3H3.6c-2,0-3.6-1.6-3.6-3.6V57c0-2,1.6-3.6,3.6-3.6h48.7c2,0,3.6,1.6,3.6,3.6v48.7
	C55.8,107.7,54.2,109.3,52.2,109.3C52.3,109.3,52.2,109.3,52.2,109.3z M3.6,54.6c-1.3,0-2.4,1.1-2.4,2.4v48.7c0,1.3,1.1,2.4,2.4,2.4
	h0h48.7c1.3,0,2.4-1.1,2.4-2.4l0,0V57c0-1.3-1.1-2.4-2.4-2.4L3.6,54.6z"/>
<path class="st2" d="M83.9,54.1h48.7c1.7,0,3,1.3,3,3v48.7c0,1.7-1.3,3-3,3H83.9c-1.7,0-3-1.3-3-3V57.1
	C80.9,55.4,82.2,54.1,83.9,54.1z"/>
<path class="st1" d="M132.5,109.3H83.9c-2,0-3.6-1.6-3.6-3.6l0,0V57.1c0-2,1.6-3.6,3.6-3.6h48.7c2,0,3.6,1.6,3.6,3.6v0v48.7
	C136.1,107.7,134.5,109.3,132.5,109.3z M83.9,54.7c-1.3,0-2.4,1.1-2.4,2.4l0,0v48.7c0,1.3,1.1,2.4,2.4,2.4l0,0h48.7
	c1.3,0,2.4-1.1,2.4-2.4V57.1c0-1.3-1.1-2.4-2.4-2.4H83.9z"/>
<path class="st1" d="M213.7,109.3h-3.5v-1.2h3.4L213.7,109.3z M207.4,109.3H204v-1.2h3.4L207.4,109.3z M201.1,109.3h-3.4v-1.2h3.4
	L201.1,109.3z M194.9,109.3h-3.4v-1.2h3.4V109.3z M188.6,109.3h-3.4v-1.2h3.4V109.3z M182.3,109.3h-3.4v-1.2h3.4V109.3z M176,109.3
	h-3.4v-1.2h3.4L176,109.3z M169.7,109.3h-3.4v-1.2h3.4V109.3z M163.2,108.8c-1.1-0.6-1.8-1.8-1.8-3.1v-0.3h1.1v0.3
	c0,0.9,0.5,1.7,1.2,2.1L163.2,108.8z M216.6,107.8l-0.9-0.7c0.3-0.4,0.4-0.9,0.4-1.4v-1.6h1.1v1.6
	C217.3,106.4,217,107.2,216.6,107.8L216.6,107.8z M162.6,102.6h-1.1v-3.4h1.1V102.6z M217.3,101.3h-1.1v-3.4h1.1V101.3z M162.6,96.3
	h-1.1v-3.4h1.1V96.3z M217.3,95h-1.1v-3.4h1.1V95z M162.6,90h-1.1v-3.4h1.1V90z M217.3,88.7h-1.1v-3.4h1.1V88.7z M162.6,83.7h-1.1
	v-3.4h1.1V83.7z M217.3,82.4h-1.1V79h1.1V82.4z M162.6,77.4h-1.1V74h1.1V77.4z M217.3,76h-1.1v-3.3h1.1V76z M162.6,71h-1.1v-3.3h1.1
	V71z M217.3,69.7h-1.1v-3.3h1.1V69.7z M162.6,64.7h-1.1v-3.2h1.1V64.7z M217.3,63.4h-1.1v-3.2h1.1V63.4z M162.6,58.4h-1.1V57
	c0-0.7,0.2-1.4,0.6-2l0.9,0.7c-0.3,0.4-0.4,0.9-0.4,1.3V58.4z M217.3,57.1h-1.1V57c0-0.9-0.5-1.7-1.2-2.1l0.6-1
	C216.6,54.5,217.3,55.7,217.3,57.1L217.3,57.1z M212.4,54.4H209v-0.9h3.4L212.4,54.4z M206.1,54.4h-3.4v-0.9h3.4V54.4z M199.8,54.4
	h-3.4v-0.9h3.4L199.8,54.4z M193.6,54.4h-3.4v-0.9h3.4V54.4z M187.3,54.4h-3.4v-0.9h3.4V54.4z M181,54.4h-3.4v-0.9h3.4L181,54.4z
	 M174.7,54.4h-3.4v-0.9h3.4V54.4z M168.4,54.4H165v-0.9h3.4L168.4,54.4z"/>
<rect x="108.1" y="136.1" class="st1" width="1.2" height="21.3"/>
<rect x="108.1" y="158.1" class="st1" width="1.2" height="21.3"/>
<polygon class="st1" points="108.7,132.5 106.1,137.9 111.3,137.9 "/>
<rect x="27.9" y="136.1" class="st1" width="1.1" height="21.3"/>
<polygon class="st1" points="28.5,132.5 25.9,137.9 31.1,137.9 "/>
<polygon class="st1" points="190.2,132.5 187.6,137.9 192.8,137.9 "/>
<rect x="28.2" y="157.4" class="st1" width="81.1" height="1.1"/>
<rect x="189.3" y="139" class="st1" width="1.1" height="1.7"/>
<path class="st1" d="M190.4,153.4h-1.1V150h1.1V153.4z M190.4,147.1h-1.1v-3.4h1.1V147.1z"/>
<polygon class="st1" points="190.4,158.6 188.1,158.6 188.1,157.4 189.3,157.4 189.3,156.3 190.4,156.3 "/>
<path class="st1" d="M185.2,158.6h-3.6v-1.1h3.6V158.6z M178.6,158.6H175v-1.1h3.6L178.6,158.6z M172,158.6h-3.6v-1.1h3.6V158.6z
	 M165.4,158.6h-3.6v-1.1h3.6V158.6z M158.8,158.6h-3.6v-1.1h3.6V158.6z M152.2,158.6h-3.6v-1.1h3.6V158.6z M145.7,158.6h-3.6v-1.1
	h3.6V158.6z M139.1,158.6h-3.6v-1.1h3.6V158.6z M132.5,158.6h-3.6v-1.1h3.6V158.6z M125.9,158.6h-3.6v-1.1h3.6V158.6z M119.3,158.6
	h-3.6v-1.1h3.6V158.6z"/>
<rect x="111" y="157.4" class="st1" width="1.7" height="1.1"/>
<circle class="st3" cx="153.1" cy="81.4" r="1.4"/>
<circle class="st3" cx="148.4" cy="81.4" r="1.4"/>
<circle class="st3" cx="143.8" cy="81.4" r="1.4"/>
<path d="M13.9,122.3H13l-1.4-4.8c-0.1-0.2-0.1-0.5-0.2-0.8c-0.1-0.2-0.1-0.4-0.1-0.6c-0.1,0.5-0.2,0.9-0.4,1.4l-1.4,4.8H8.7
	l-1.9-7.1h0.9l1.1,4.4c0.2,0.6,0.3,1.2,0.4,1.7c0.1-0.6,0.2-1.2,0.4-1.7l1.3-4.3h0.9l1.3,4.4c0.2,0.6,0.3,1.1,0.4,1.7
	c0.1-0.6,0.2-1.1,0.4-1.7l1.1-4.4h0.9L13.9,122.3z"/>
<path d="M21.4,119.6c0,0.7-0.2,1.4-0.7,2c-0.5,0.5-1.1,0.8-1.8,0.7c-0.4,0-0.9-0.1-1.3-0.3c-0.4-0.2-0.7-0.6-0.9-1
	c-0.2-0.5-0.3-1-0.3-1.5c0-0.7,0.2-1.4,0.6-2c0.5-0.5,1.1-0.8,1.8-0.7c0.7,0,1.3,0.2,1.8,0.8C21.2,118.1,21.4,118.9,21.4,119.6z
	 M17.3,119.6c0,0.6,0.1,1.1,0.4,1.6c0.3,0.4,0.7,0.6,1.2,0.5c0.5,0,0.9-0.2,1.2-0.5c0.3-0.5,0.4-1,0.4-1.6c0-0.5-0.1-1.1-0.4-1.6
	c-0.3-0.4-0.8-0.6-1.2-0.5c-0.5,0-0.9,0.2-1.2,0.5C17.4,118.5,17.3,119.1,17.3,119.6z"/>
<path d="M25.2,116.8c0.2,0,0.4,0,0.6,0.1l-0.1,0.8c-0.2,0-0.4-0.1-0.6-0.1c-0.4,0-0.8,0.2-1.1,0.5c-0.3,0.4-0.5,0.8-0.5,1.3v2.9
	h-0.8v-5.3h0.7l0.1,1l0,0c0.2-0.3,0.4-0.6,0.7-0.8C24.6,116.9,24.9,116.8,25.2,116.8z"/>
<path d="M27.7,119.6c0.1-0.2,0.4-0.4,0.6-0.8l1.7-1.8h1l-2.2,2.3l2.3,3.1h-1l-1.9-2.5l-0.6,0.5v2h-0.8v-7.6h0.8v4
	C27.6,118.9,27.6,119.2,27.7,119.6L27.7,119.6z"/>
<path d="M34.4,122.4c-0.7,0-1.4-0.2-1.9-0.7c-0.5-0.6-0.7-1.3-0.7-2c0-0.7,0.2-1.4,0.6-2c0.4-0.5,1.1-0.8,1.7-0.8
	c0.6,0,1.2,0.2,1.6,0.7c0.4,0.5,0.6,1.1,0.6,1.7v0.5h-3.7c0,0.5,0.1,1,0.5,1.4c0.3,0.3,0.8,0.5,1.3,0.5c0.6,0,1.2-0.1,1.7-0.4v0.6
	c-0.3,0.1-0.5,0.2-0.8,0.3C35,122.3,34.7,122.4,34.4,122.4z M34.2,117.5c-0.4,0-0.7,0.1-1,0.4c-0.3,0.3-0.4,0.7-0.5,1.2h2.8
	c0-0.4-0.1-0.8-0.3-1.2C34.9,117.6,34.5,117.5,34.2,117.5z"/>
<path d="M40.2,116.8c0.2,0,0.4,0,0.6,0.1l-0.1,0.8c-0.2,0-0.4-0.1-0.6-0.1c-0.4,0-0.8,0.2-1.1,0.5c-0.3,0.4-0.5,0.8-0.5,1.3v2.9
	h-0.8v-5.3h0.7l0.1,1l0,0c0.2-0.3,0.4-0.6,0.7-0.8C39.5,116.9,39.8,116.8,40.2,116.8z"/>
<path d="M47,122.3h-0.8v-5.1c0-0.4,0-0.8,0-1.2c-0.1,0.1-0.1,0.2-0.2,0.2l-1.2,1l-0.4-0.6l1.9-1.5H47L47,122.3z"/>
<path d="M93.9,122.3h-0.8l-1.4-4.8c-0.1-0.2-0.1-0.5-0.2-0.8c-0.1-0.2-0.1-0.4-0.1-0.6c-0.1,0.5-0.2,0.9-0.3,1.4l-1.4,4.8h-0.8
	l-1.9-7.1h0.9l1.1,4.4c0.1,0.6,0.3,1.1,0.3,1.7c0.1-0.6,0.2-1.2,0.4-1.7l1.3-4.3h0.9l1.3,4.4c0.2,0.6,0.3,1.1,0.4,1.7
	c0.1-0.6,0.2-1.1,0.3-1.7l1.1-4.4h0.9L93.9,122.3z"/>
<path d="M101.4,119.6c0,0.7-0.2,1.4-0.7,2c-0.5,0.5-1.1,0.8-1.8,0.7c-0.5,0-0.9-0.1-1.3-0.3c-0.4-0.2-0.7-0.6-0.9-1
	c-0.2-0.5-0.3-1-0.3-1.5c0-0.7,0.2-1.4,0.7-2c0.5-0.5,1.1-0.8,1.8-0.7c0.7,0,1.3,0.2,1.8,0.8C101.3,118.1,101.5,118.9,101.4,119.6z
	 M97.4,119.6c0,0.6,0.1,1.1,0.4,1.6c0.3,0.4,0.7,0.6,1.2,0.5c0.5,0,0.9-0.2,1.2-0.5c0.3-0.5,0.5-1,0.4-1.6c0-0.5-0.1-1.1-0.4-1.6
	c-0.6-0.7-1.7-0.7-2.3-0.1c0,0-0.1,0.1-0.1,0.1C97.5,118.5,97.3,119.1,97.4,119.6z"/>
<path d="M105.3,116.8c0.2,0,0.4,0,0.6,0.1l-0.1,0.8c-0.2,0-0.4-0.1-0.6-0.1c-0.4,0-0.8,0.2-1.1,0.5c-0.3,0.4-0.5,0.8-0.5,1.3v2.9
	h-0.8v-5.3h0.7l0.1,1l0,0c0.2-0.3,0.4-0.6,0.7-0.8C104.6,116.9,105,116.8,105.3,116.8z"/>
<path d="M107.7,119.6c0.1-0.2,0.3-0.4,0.6-0.8l1.7-1.8h1l-2.2,2.3l2.3,3.1h-1l-1.9-2.5l-0.6,0.5v2H107v-7.6h0.8v4
	C107.8,118.9,107.8,119.2,107.7,119.6L107.7,119.6z"/>
<path d="M114.4,122.4c-0.7,0-1.4-0.2-1.9-0.7c-0.5-0.6-0.7-1.3-0.7-2c0-0.7,0.2-1.4,0.6-2c0.4-0.5,1.1-0.8,1.7-0.8
	c0.6,0,1.2,0.2,1.6,0.7c0.4,0.5,0.6,1.1,0.6,1.7v0.5h-3.7c0,0.5,0.2,1,0.5,1.4c0.3,0.3,0.8,0.5,1.3,0.5c0.6,0,1.2-0.1,1.7-0.4v0.6
	c-0.3,0.1-0.5,0.2-0.8,0.3C115.1,122.3,114.8,122.4,114.4,122.4z M114.2,117.5c-0.4,0-0.7,0.1-1,0.4c-0.3,0.3-0.4,0.7-0.4,1.2h2.8
	c0-0.4-0.1-0.8-0.3-1.2C115,117.6,114.6,117.5,114.2,117.5z"/>
<path d="M120.2,116.8c0.2,0,0.4,0,0.6,0.1l-0.1,0.8c-0.2,0-0.4-0.1-0.6-0.1c-0.4,0-0.8,0.2-1.1,0.5c-0.3,0.4-0.5,0.8-0.5,1.3v2.9
	h-0.8v-5.3h0.7l0.1,1l0,0c0.2-0.3,0.4-0.6,0.7-0.8C119.6,116.9,119.9,116.8,120.2,116.8z"/>
<path d="M128.8,122.3h-4.7v-0.7l1.9-1.9c0.4-0.4,0.8-0.8,1.1-1.2c0.2-0.2,0.3-0.5,0.4-0.7c0.1-0.2,0.1-0.5,0.1-0.8
	c0-0.3-0.1-0.7-0.3-0.9c-0.3-0.2-0.6-0.4-1-0.3c-0.3,0-0.6,0-0.8,0.1c-0.3,0.1-0.6,0.3-0.9,0.5l-0.4-0.6c0.6-0.5,1.4-0.8,2.2-0.8
	c0.6,0,1.1,0.2,1.6,0.5c0.4,0.4,0.6,0.9,0.6,1.4c0,0.5-0.1,0.9-0.4,1.3c-0.4,0.6-0.9,1.2-1.4,1.7l-1.6,1.5l0,0h3.7L128.8,122.3z"/>
<path d="M174.9,122.3h-0.8l-1.4-4.8c-0.1-0.2-0.1-0.5-0.2-0.8c-0.1-0.2-0.1-0.4-0.1-0.6c-0.1,0.5-0.2,0.9-0.3,1.4l-1.4,4.8h-0.8
	l-1.9-7.1h0.9l1.1,4.4c0.1,0.6,0.3,1.1,0.3,1.7c0.1-0.6,0.2-1.2,0.4-1.7l1.3-4.3h0.9l1.3,4.4c0.2,0.6,0.3,1.1,0.4,1.7
	c0.1-0.6,0.2-1.1,0.4-1.7l1.1-4.4h0.9L174.9,122.3z"/>
<path d="M182.4,119.6c0,0.7-0.2,1.4-0.7,2c-0.5,0.5-1.1,0.8-1.8,0.7c-0.5,0-0.9-0.1-1.3-0.3c-0.4-0.2-0.7-0.6-0.9-1
	c-0.2-0.5-0.3-1-0.3-1.5c0-0.7,0.2-1.4,0.6-2c0.5-0.5,1.1-0.8,1.8-0.7c0.7,0,1.3,0.2,1.8,0.8C182.3,118.1,182.5,118.9,182.4,119.6z
	 M178.4,119.6c0,0.6,0.1,1.1,0.4,1.6c0.3,0.4,0.7,0.6,1.2,0.5c0.5,0,0.9-0.2,1.2-0.5c0.3-0.5,0.5-1,0.4-1.6c0-0.5-0.1-1.1-0.4-1.6
	c-0.6-0.7-1.7-0.7-2.3-0.1c0,0-0.1,0.1-0.1,0.1C178.5,118.5,178.3,119.1,178.4,119.6z"/>
<path d="M186.3,116.8c0.2,0,0.4,0,0.6,0.1l-0.1,0.8c-0.2,0-0.4-0.1-0.6-0.1c-0.4,0-0.8,0.2-1.1,0.5c-0.3,0.4-0.5,0.8-0.5,1.3v2.9
	h-0.8v-5.3h0.7l0.1,1l0,0c0.2-0.3,0.4-0.6,0.7-0.8C185.6,116.9,186,116.8,186.3,116.8z"/>
<path d="M188.7,119.6c0.1-0.2,0.4-0.4,0.6-0.8l1.7-1.8h1l-2.2,2.3l2.3,3.1h-1l-1.9-2.5l-0.6,0.5v2H188v-7.6h0.8v4
	C188.8,118.9,188.8,119.2,188.7,119.6L188.7,119.6z"/>
<path d="M195.4,122.4c-0.7,0-1.4-0.2-1.9-0.7c-0.5-0.6-0.7-1.3-0.7-2c0-0.7,0.2-1.4,0.6-2c0.4-0.5,1.1-0.8,1.7-0.8
	c0.6,0,1.2,0.2,1.6,0.7c0.4,0.5,0.6,1.1,0.6,1.7v0.5h-3.7c0,0.5,0.2,1,0.5,1.4c0.3,0.3,0.8,0.5,1.3,0.5c0.6,0,1.2-0.1,1.7-0.4v0.6
	c-0.3,0.1-0.5,0.2-0.8,0.3C196.1,122.3,195.8,122.4,195.4,122.4z M195.2,117.5c-0.4,0-0.7,0.1-1,0.4c-0.3,0.3-0.4,0.7-0.4,1.2h2.8
	c0-0.4-0.1-0.8-0.3-1.2C196,117.6,195.6,117.5,195.2,117.5z"/>
<path d="M201.2,116.8c0.2,0,0.4,0,0.6,0.1l-0.1,0.8c-0.2,0-0.4-0.1-0.6-0.1c-0.4,0-0.8,0.2-1.1,0.5c-0.3,0.4-0.5,0.8-0.5,1.3v2.9
	h-0.8v-5.3h0.7l0.1,1l0,0c0.2-0.3,0.4-0.6,0.7-0.8C200.6,116.9,200.9,116.8,201.2,116.8z"/>
<path d="M211.2,122.3h-1l-3.9-6l0,0c0.1,0.7,0.1,1.3,0.1,1.9v4.1h-0.8v-7.1h0.9l3.9,6l0,0c0-0.1,0-0.4-0.1-0.8s0-0.8,0-1v-4.1h0.8
	L211.2,122.3z"/>
<path class="st2" d="M83.9,186.3h48.7c1.7,0,3,1.3,3,3V238c0,1.7-1.3,3-3,3H83.9c-1.7,0-3-1.3-3-3v-48.7
	C80.9,187.7,82.2,186.3,83.9,186.3z"/>
<path class="st4" d="M136.1,189.3V238c0,2-1.6,3.6-3.6,3.6l0,0H83.9c-2,0-3.6-1.6-3.6-3.6v-48.7c0-2,1.6-3.6,3.6-3.6l0,0h48.7
	C134.5,185.8,136.1,187.4,136.1,189.3z M132.5,240.4c1.3,0,2.4-1.1,2.5-2.4c0,0,0,0,0,0v-48.7c0-1.3-1.1-2.4-2.4-2.4H83.9
	c-1.3,0-2.4,1.1-2.4,2.4V238c0,1.3,1.1,2.4,2.4,2.4H132.5z"/>
<path class="st4" d="M132.6,242.1H83.9c-2.3,0-4.1-1.8-4.1-4.1v-48.7c0-2.3,1.8-4.1,4.1-4.1c0,0,0,0,0,0h48.7c2.2,0,4.1,1.8,4.1,4.1
	V238C136.6,240.2,134.8,242.1,132.6,242.1z M83.9,186.3c-1.7,0-3.1,1.4-3.1,3.1l0,0V238c0,1.7,1.4,3.1,3.1,3.1l0,0h48.7
	c1.7,0,3.1-1.4,3.1-3.1v-48.7c0-1.7-1.4-3.1-3.1-3.1H83.9z M132.5,240.9H83.9c-1.6,0-2.9-1.3-2.9-2.9v-48.7c0-1.6,1.3-2.9,2.9-2.9
	h48.7c1.6,0,2.9,1.3,2.9,2.9V238C135.5,239.6,134.2,240.9,132.5,240.9C132.6,240.9,132.6,240.9,132.5,240.9L132.5,240.9z
	 M83.9,187.4c-1,0-1.9,0.9-1.9,1.9V238c0,1.1,0.9,1.9,1.9,1.9h48.7c1.1,0,1.9-0.9,1.9-1.9v-48.7c0-1.1-0.8-1.9-1.9-1.9c0,0,0,0,0,0
	H83.9z"/>
<path class="st2" d="M33.3,91.1c-0.3,0-0.7-0.1-1-0.2c-0.7-0.2-1.4-0.3-2.1-0.3c-0.8-0.1-2.1-0.3-2.4-0.3c-0.4-0.1-0.7-0.4-0.7-0.8
	c0-0.4,0.1-0.8,0.4-1.1c-2-0.7-4-1.2-6.1-1.3c-0.2,0-0.5,0-0.7,0c0,0.2-0.1,0.3-0.1,0.4c-0.8,1.1-1.9,1.9-3.2,2.2
	c-0.5,0.1-1,0.2-1.5,0.2c-0.5,0-1.1-0.1-1.6-0.2c-1.9-0.4-6.9-3-8-4.1c-0.3-0.3-0.4-0.7-0.4-1.1c-0.1-0.4,0.1-0.8,0.4-1
	c0-0.1,0.1-0.2,0.1-0.4c0,0,0-0.1,0-0.1c0-1.1,1.4-2.7,2.9-3.9c4.4-3.2,9.7-4.9,15.2-5c0.8,0.1,1.6-0.1,2.3-0.4
	c0.7-0.4,1.5-0.7,2.3-1c0.8-0.3,1.8-0.7,2.2-0.9c0.5-0.3,1-0.4,1.5-0.4h0.1c0.8,0,1.4,0.7,1.9,1.5c0.2,0.3,0.5,0.5,0.9,0.7
	c0.9,0.4,1.9,1.1,1.9,1.8c0.1,0.4,0.2,0.7,0.2,1.1c0,0.4,0.1,0.9,0.4,1.2c0.7,0.6,1.5,0.9,2.4,0.9c0.2,0,0.4,0,0.6-0.1
	c1.9-1.2,4-2.1,6.2-2.8l0,0c0.4,0,0.7,0.1,1,0.4c0.5,0.5,0.5,1.6,0.4,3.4c-0.1,1.9-0.1,3.8,0,5.7v0.7c0.1,1,0.1,1.8,0.1,2.4
	c0,1-0.1,1.4-0.3,1.7c-0.2,0.3-0.5,0.5-0.8,0.5l0,0c-0.2,0-0.5-0.1-0.6-0.2c-0.5-0.5-0.9-1-1.2-1.6c-1.3-1.9-1.6-2.2-2.9-2.6
	l-1.1-0.4c-1.6,0-3.3,0.3-4.8,0.8c0,0.3-0.3,0.6-0.6,0.8c-1.2,0.9-1.3,1.2-1.3,1.8c0.1,0.6-0.1,1.2-0.6,1.6c-0.1,0-0.1,0.1-0.2,0.1
	C34,90.9,33.7,91,33.3,91.1L33.3,91.1z"/>
<path class="st2" d="M32.7,71.9L32.7,71.9c0.5,0,0.9,0.4,1.6,1.3c0.3,0.4,0.7,0.7,1.1,0.9c0.9,0.4,1.6,1,1.6,1.4l0,0
	c0.4,0.8,0,1.8,0.8,2.6c0.8,0.6,1.8,1,2.8,1c0.3,0,0.6,0,0.8-0.1l0,0c1.9-1.2,3.9-2.1,5.9-2.8l0,0c0.9,0,1,0.6,0.9,3.2
	c-0.1,1.9-0.1,3.8,0,5.8v0.7c0.1,1,0.1,1.8,0.1,2.4c0.1,0.5,0,1-0.2,1.4c-0.2,0.2-0.3,0.3-0.4,0.3c-0.1,0-0.2-0.1-0.3-0.1
	c-0.4-0.4-0.8-0.9-1.1-1.4c-1.2-1.9-1.7-2.3-3.2-2.8l-1.3-0.4l0,0h0.1c-2.1,0-4.1,0.4-6,1.3l0,0c0.1,0,0.3-0.1,0.4-0.1l0,0
	c0.3,0,0.3,0.1-0.2,0.4c-1.2,0.9-1.5,1.3-1.5,2.3c0,0.6-0.1,1-0.3,1.2c-0.1,0-0.1,0.1-0.2,0.1l0,0c-0.2,0.1-0.4,0.2-0.6,0.2h-0.1
	c-0.2,0-0.5-0.1-0.7-0.2c-0.7-0.2-1.5-0.3-2.3-0.4c-1.1-0.1-2.1-0.3-2.3-0.3c-0.5-0.2-0.4-0.8,0.2-1.2c0.3-0.1,0.6-0.2,0.9-0.2h0.1
	c-2.5-1-5.1-1.6-7.8-1.8c-0.5,0-0.9,0-1.4,0.2l0,0c0.1,0,0.1,0.3,0,0.7c-0.7,1-1.7,1.6-2.8,1.9c-0.5,0.1-0.9,0.2-1.4,0.2
	c-0.5,0-1-0.1-1.5-0.2c-1.8-0.4-6.7-2.9-7.7-3.9c-0.2-0.2-0.3-0.5-0.3-0.7c0-0.3,0.1-0.5,0.3-0.6l0,0h0.2c-0.1,0-0.1,0-0.2,0
	c0.1-0.2,0.2-0.5,0.2-0.7c0,0.1,0.1,0.2,0.2,0.2c0.1,0.1,0.3,0.1,0.4,0.2c-0.1,0-0.3-0.1-0.4-0.2c-0.7-0.4,0.4-2.3,2.5-3.8
	c4.3-3.1,9.5-4.8,14.8-4.9c0.9,0.1,1.8-0.1,2.5-0.5c0.7-0.4,1.5-0.7,2.2-1c0.8-0.3,1.8-0.7,2.3-0.9C31.8,72.1,32.3,71.9,32.7,71.9
	 M36.9,75.6L36.9,75.6c-0.1,0-0.2-0.1-0.3-0.2c-0.4-0.3-0.9-0.5-1.3-0.6c-0.7-0.2-1.3-0.5-1.7-1l-0.8-0.8l0,0l0.8,0.8
	c0.5,0.5,1.1,0.8,1.7,1c0.5,0.1,0.9,0.3,1.3,0.6C36.7,75.6,36.8,75.6,36.9,75.6 M35,77.1l-0.2-0.1c-2.1-0.7-4.4-1.1-6.6-1.1
	c2.2,0.1,4.5,0.5,6.6,1.1L35,77.1 M34.1,76.2L34.1,76.2 M36.6,77.3c-0.8-0.4-1.6-0.8-2.4-1.1C35,76.5,35.8,76.9,36.6,77.3
	 M41.7,79.2c-0.2,0-0.4,0-0.4-0.1l0,0C41.3,79.2,41.4,79.2,41.7,79.2c1-0.1,2.1-0.3,3.1-0.5c0.5-0.1,1.1-0.2,1.6-0.3h0.1
	c0.1,0,0.1,0.4,0.1,0.9c0-0.6,0-0.9-0.1-0.9s-0.1,0-0.1,0c-0.6,0-1.1,0.1-1.6,0.3C43.8,78.9,42.7,79.1,41.7,79.2 M47.2,87.1
	c0-0.9-0.2-1.8-0.4-2.7c-0.2-0.9-0.3-1.9-0.3-2.8c0,0.9,0.1,1.9,0.3,2.8C47.1,85.3,47.2,86.2,47.2,87.1 M35.5,86.6L35.5,86.6
	 M19.9,86.6L19.9,86.6L19.9,86.6L19.9,86.6 M35.1,86.9L35.1,86.9L35.1,86.9L35.1,86.9L35.1,86.9 M19.5,87L19.5,87L19.5,87
	 M34.7,87.2L34.7,87.2L34.7,87.2L34.7,87.2L34.7,87.2 M19.3,87.2C19.3,87.2,19.2,87.2,19.3,87.2C19.2,87.2,19.3,87.2,19.3,87.2
	L19.3,87.2L19.3,87.2 M18.9,87.5L18.9,87.5L18.9,87.5L18.9,87.5L18.9,87.5 M34.3,87.6L34.3,87.6L34.3,87.6l0.1-0.1L34.3,87.6
	 M17.3,88.2c0.5-0.1,0.9-0.2,1.3-0.5l0.3-0.2l-0.3,0.2C18.1,88,17.7,88.2,17.3,88.2 M34,88L34,88L34,88l0.1-0.1L34,88 M17.2,88.2
	h-0.2l0,0H17.2 M33.8,88.5c0,0,0,0.1,0,0.1C33.8,88.5,33.8,88.5,33.8,88.5c0-0.1,0-0.1,0.1-0.2C33.8,88.3,33.8,88.4,33.8,88.5
	 M29.9,88.3L29.9,88.3 M30.9,88.6h-0.1H30.9 M33.6,89.1L33.6,89.1c0-0.1,0-0.2,0.1-0.3C33.6,88.8,33.6,88.9,33.6,89.1 M32,89L32,89
	L32,89l-0.2,0L32,89 M33.5,89.3c0,0,0,0.1,0,0.2l0,0C33.5,89.4,33.5,89.3,33.5,89.3 M33.5,89.5L33.5,89.5L33.5,89.5L33.5,89.5
	L33.5,89.5 M32.7,70.9c-0.6,0-1.2,0.2-1.7,0.5c-0.4,0.2-1.4,0.6-2.1,0.9c-0.8,0.3-1.6,0.6-2.4,1c-0.4,0.2-0.7,0.3-2,0.3
	c-5.6,0.1-11,1.8-15.5,5.1c-1.6,1.2-3.2,2.9-3.1,4.3l0,0v0.1c-0.4,0.3-0.6,0.9-0.6,1.4c0,0.6,0.2,1.1,0.5,1.5
	c1.2,1.3,6.4,3.9,8.3,4.3c0.6,0.1,1.1,0.2,1.7,0.2c0.6,0,1.1-0.1,1.7-0.2c1.5-0.3,2.8-1.2,3.6-2.5c0-0.1,0-0.1,0.1-0.2h0.3
	c1.8,0.1,3.6,0.4,5.3,1c-0.1,0.3-0.1,0.6-0.1,0.8c0.1,0.6,0.5,1.1,1.1,1.2c0.5,0.1,2.5,0.4,2.5,0.4c0.7,0.1,1.3,0.2,1.9,0.3
	c0.4,0.2,0.8,0.3,1.2,0.3h0.1c0.4,0,0.9-0.1,1.2-0.3c0.1,0,0.2-0.1,0.3-0.2c0.6-0.5,0.8-1.2,0.8-2c0-0.5,0-0.6,1-1.4
	c0.3-0.2,0.6-0.5,0.8-0.8c1.4-0.4,2.8-0.7,4.3-0.7l1,0.3c1.2,0.4,1.4,0.6,2.6,2.4c1,1.5,1.2,1.7,1.3,1.7c0.3,0.2,0.6,0.3,0.9,0.3
	c0.5,0,0.9-0.3,1.2-0.7c0.4-0.6,0.5-1.4,0.4-2.1c0-0.6,0-1.4-0.1-2.4v-0.7c-0.1-1.9-0.1-3.7,0-5.6c0.1-2,0.1-3.1-0.5-3.8
	c-0.4-0.4-0.9-0.6-1.4-0.6c-0.1,0-0.3,0-0.4,0.1c-2.1,0.7-4.1,1.6-6,2.8c-0.1,0-0.3,0-0.4,0c-0.7,0-1.4-0.3-2-0.7
	c-0.2-0.2-0.2-0.4-0.2-0.9c0-0.4-0.1-0.8-0.2-1.2c-0.2-1.2-1.7-2-2.2-2.2c-0.2-0.1-0.5-0.3-0.6-0.5c-0.5-0.9-1.3-1.5-2.3-1.7
	L32.7,70.9z"/>
<path class="st5" d="M32.8,73.1L32,73.6l-1.2,0.9c-0.3,0.2-0.5,0.4-0.4,0.5c0.6,0.3,1.2,0.5,1.8,0.7c1.6,0.4,4.8,1.8,4.6,2
	c-0.7-0.1-1.4-0.3-2.1-0.5c-3.1-1-6.3-1.4-9.5-1.1c-1.9,0-3.7,0.1-5.6,0.6c-3.7,0.9-7.1,2.8-9.9,5.4c-0.5,0.5-1.1,1-1.6,1.5
	c-0.4,0.1-0.8,0.1-1.1-0.1c-0.1-0.1-0.1-0.1-0.2-0.2c-0.1,0.2-0.2,0.5-0.2,0.7c0.1,0,0.2,0,0.3,0c0.3,0,0.6,0,0.9,0.2l0.9,0.6
	c3.7,2.7,5.6,3.6,7.7,3.7c0.8,0.1,1.6-0.1,2.2-0.5c0.4-0.2,0.8-0.5,1.1-0.8c0,0,0-0.1,0-0.1c0.1-0.2,0.2-0.3,0.3-0.2
	c1.6-0.4,4.6,0,9.1,1.7c1.4,0.2,2.8,0.6,4.1,1.2c0.3,0.1,0.3,0,0.3-0.3c0.2-1.2,1.1-2.3,2.3-2.7l0,0c1.9-0.9,3.9-1.4,6-1.3h-0.1
	l0.9-0.1c1.3-0.1,2.6,0.5,3.4,1.6c0.3,0.4,0.6,0.7,1,1c0.3,0,0.2-1.2-0.2-3.2c-0.3-1.3-0.4-2.6-0.3-3.9c0.1-0.7,0.1-1.4-0.1-2.1
	c-0.6,0-1.2,0.1-1.8,0.3c-2.4,0.6-3.4,0.7-3.4,0.4l0,0c-1.3,0.3-2.6-0.1-3.6-0.9c-0.8-0.8-0.4-1.8-0.8-2.6c0,0.2,0,0.2-0.3,0
	c-0.4-0.3-0.9-0.5-1.3-0.6c-0.7-0.2-1.3-0.5-1.7-1L32.8,73.1z"/>
<path class="st6" d="M22.6,82.6l-0.2-3.4c-0.1-0.4,0-0.7,0.1-0.7s0.7,1.1,1,2c0.1,0.3,0.2,0.6,0.4,0.8c0.3,0.3,0.3,0.4,0,0.7
	c-0.2,0.3-0.3,0.6-0.3,1c0,0.8-0.4,2.2-0.6,2.2C22.7,84.3,22.6,83.4,22.6,82.6L22.6,82.6z M25.1,84.2c0-0.1-0.1-1.4-0.2-2.8
	c-0.1-2.1-0.1-2.5,0.2-2.3c0.2,0.2,0.3,0.5,0.4,0.9c0.1,0.4,0.2,0.8,0.5,1.1c0.2,0.3,0.2,0.6,0.1,0.9c-0.2,0.4-0.3,0.9-0.3,1.4
	C25.6,84.2,25.3,84.7,25.1,84.2L25.1,84.2z M27.6,81.6v-2.5c0.1-0.2,0.4,0.4,0.7,1.3c0.1,0.3,0.2,0.6,0.4,0.9c0.1,0.1,0.1,0.3,0,0.5
	c-0.2,0.4-0.3,0.8-0.4,1.2C27.9,84.7,27.7,84.2,27.6,81.6z M30.2,82.7c0-0.7-0.1-1.5-0.2-2.2c-0.1-0.4-0.1-0.8,0-1.1
	c0.2-0.1,0.5,0.3,0.7,1c0.1,0.4,0.3,0.7,0.6,0.9l0.4,0.3l-0.5,0.3c-0.3,0.2-0.4,0.5-0.4,0.8c0,0.6-0.2,1.1-0.4,1.1
	S30.2,83.3,30.2,82.7z M32.5,82.2c0-0.7,0-1.3-0.1-2c-0.2-1,0.2-0.8,0.8,0.5c0.4,0.9,0.5,1.1,0.2,1.3c-0.2,0.2-0.3,0.5-0.3,0.8
	c0,0.3-0.2,0.5-0.3,0.6S32.6,83.1,32.5,82.2L32.5,82.2z M34.7,81.4c0-1.7,0-1.8,0.3-1.5c0.5,0.8,0.6,1.7,0.3,2.6
	C34.9,83.7,34.7,83.3,34.7,81.4z M36.8,81.7c-0.4-0.3-0.4-0.3,0.2-0.2c0.3,0,0.6,0.2,0.6,0.2C37.5,82,37.2,82,36.8,81.7z"/>
<path d="M32.7,71.9c-0.4,0-0.9,0.2-1.2,0.4c-0.5,0.2-1.5,0.6-2.3,0.9c-0.8,0.3-1.5,0.6-2.2,1c-0.8,0.4-1.7,0.6-2.5,0.5
	c-5.3,0.1-10.5,1.8-14.8,4.8c-2,1.5-3.2,3.3-2.5,3.8c0.3,0.2,0.7,0.2,1.1,0.1c0.6-0.5,1.1-0.9,1.7-1.5c2.8-2.6,6.2-4.5,9.9-5.4
	c1.8-0.5,3.7-0.7,5.6-0.6c3.2-0.2,6.4,0.2,9.5,1.1c0.7,0.2,1.4,0.4,2.1,0.5c0.2-0.2-3-1.5-4.6-2c-0.6-0.1-1.2-0.3-1.8-0.6
	c0-0.1,0.1-0.3,0.4-0.5c0.4-0.3,0.8-0.6,1.2-0.9l0.7-0.6l0.8,0.8c0.5,0.5,1.1,0.8,1.7,1c0.5,0.1,0.9,0.3,1.3,0.6
	c0.3,0.3,0.3,0.3,0.3,0s-0.7-1-1.6-1.4c-0.4-0.2-0.8-0.5-1.1-0.9C33.6,72.3,33.2,71.9,32.7,71.9L32.7,71.9z M47.2,76.3
	c-0.7,0-6,2.5-6,2.8s1.1,0.2,3.4-0.4c0.6-0.2,1.2-0.3,1.8-0.2c0.2,0.7,0.2,1.4,0.1,2.1c-0.1,1.3,0,2.6,0.3,3.9
	c0.4,2,0.5,3.2,0.2,3.2c-0.4-0.3-0.7-0.6-1-1c-0.8-1-2.1-1.6-3.4-1.6l-0.9,0.1l1.3,0.5c1.4,0.5,1.9,0.9,3.2,2.8
	c0.3,0.5,0.7,1,1.1,1.4c0.3,0.2,0.4,0.2,0.7-0.1c0.2-0.4,0.2-0.9,0.2-1.4c0-0.6,0-1.4-0.1-2.4v-0.7c-0.1-1.9-0.1-3.8,0-5.8
	C48.3,76.9,48.1,76.3,47.2,76.3L47.2,76.3z M15.1,80.1c-0.6,0-1.2,0.3-1.5,0.8c-0.3,0.5-0.2,1,0.5,1.8c0.4,0.5,1.4,0.3,2-0.4
	s0.5-0.8,0-1.6C16,80.3,15.6,80.1,15.1,80.1L15.1,80.1z M14.5,81.1c0.3,0,0.6,0.2,0.8,0.6c0.1,0.3-0.7,0.3-0.9-0.1
	C14.4,81.4,14.4,81.2,14.5,81.1L14.5,81.1L14.5,81.1z M6.9,83.8c-0.1,0-0.2,0-0.3,0l0,0c-0.2,0.1-0.3,0.3-0.3,0.6
	c0,0.3,0.1,0.5,0.3,0.7c1,1.1,5.9,3.6,7.7,3.9c0.9,0.2,1.9,0.2,2.9,0c1.1-0.3,2.1-0.9,2.8-1.9c0.3-0.6,0-1-0.3-0.4
	c-0.3,0.4-0.7,0.7-1.1,0.9c-0.7,0.4-1.4,0.6-2.2,0.5c-2,0-4-1-7.7-3.7l-0.9-0.6C7.6,83.8,7.3,83.7,6.9,83.8L6.9,83.8z M36.2,86.4
	c-1.4,0.3-2.5,1.4-2.7,2.8c0,0.3-0.1,0.4-0.3,0.3c-2.7-1.1-4.4-1.5-5.1-1s-0.7,1-0.2,1.2c0.2,0,1.2,0.2,2.3,0.3
	c0.8,0.1,1.5,0.2,2.3,0.4c0.2,0.1,0.5,0.2,0.8,0.2l0,0c0.2,0,0.4,0,0.6-0.2l0,0c0.1,0,0.1-0.1,0.2-0.1c0.2-0.2,0.3-0.5,0.3-1.2
	c0-0.9,0.3-1.4,1.5-2.3C36.5,86.5,36.5,86.4,36.2,86.4L36.2,86.4z"/>
<path class="st7" d="M15.3,87.3l-0.7-0.2l1.2-0.2c1.6-0.3,2-0.7,2-1.9c0-1,0.2-1.2,0.7-0.5c0.6,0.9,0.3,2.1-0.6,2.7
	c-0.1,0.1-0.3,0.1-0.4,0.2C16.8,87.6,16,87.6,15.3,87.3L15.3,87.3z M42.5,83c0.1-0.5,0-1-0.2-1.5c-0.4-0.9-0.4-0.9,0.1-0.9
	s1.5,1.1,1.3,1.7c-0.2,0.6-0.6,1.1-1.1,1.5C42.5,83.8,42.5,83.7,42.5,83z M35.4,78.2c-3.9-1.3-10.8-1.3-15.5-0.1
	c-1,0.2-1.2,0.2-1.4,0c-0.4-0.4,0.3-0.8,2.3-1.3c3.8-0.7,13.1-1,16.3,1.7C37.1,78.7,36.7,78.6,35.4,78.2L35.4,78.2z"/>
<path class="st2" d="M114.3,91.1c-0.3,0-0.7-0.1-1-0.2c-0.7-0.2-1.4-0.3-2.1-0.3c-0.8-0.1-2.1-0.3-2.4-0.3c-0.4-0.1-0.7-0.4-0.7-0.8
	c0-0.4,0.1-0.8,0.4-1.1c-2-0.7-4-1.2-6.1-1.3c-0.2,0-0.5,0-0.7,0c0,0.2-0.1,0.3-0.1,0.4c-0.8,1.1-1.9,1.9-3.2,2.2
	c-0.5,0.1-1,0.2-1.5,0.2c-0.5,0-1.1-0.1-1.6-0.2c-1.9-0.4-6.9-3-8-4.1c-0.3-0.3-0.4-0.7-0.4-1.1c-0.1-0.4,0.1-0.8,0.4-1l0.1-0.4
	c0,0,0-0.1,0-0.1c0-1.1,1.4-2.7,2.9-3.9c4.4-3.2,9.7-4.9,15.2-5c0.8,0.1,1.6-0.1,2.3-0.4c0.7-0.4,1.5-0.7,2.3-1
	c0.8-0.3,1.8-0.7,2.2-0.9c0.5-0.3,1-0.4,1.5-0.4h0.1c0.8,0,1.4,0.7,1.9,1.5c0.2,0.3,0.5,0.5,0.9,0.7c0.9,0.4,1.9,1.1,1.9,1.8
	c0.1,0.4,0.2,0.7,0.2,1.1c0,0.4,0.1,0.9,0.4,1.2c0.7,0.6,1.5,0.9,2.4,0.9c0.2,0,0.4,0,0.6-0.1c1.9-1.2,4-2.1,6.2-2.8l0,0
	c0.4,0,0.7,0.1,1,0.4c0.5,0.5,0.5,1.6,0.4,3.4c-0.1,1.9-0.1,3.8,0,5.7v0.7c0.1,1,0.1,1.8,0.1,2.4c0,1-0.1,1.4-0.3,1.7
	c-0.2,0.3-0.5,0.5-0.8,0.5l0,0c-0.2,0-0.5-0.1-0.6-0.2c-0.5-0.5-0.9-1-1.2-1.6c-1.3-1.9-1.6-2.2-2.9-2.6l-1.1-0.4
	c-1.6,0-3.3,0.3-4.8,0.8c0,0.3-0.3,0.6-0.6,0.8c-1.2,0.9-1.3,1.2-1.3,1.8c0.1,0.6-0.1,1.2-0.6,1.6c-0.1,0-0.1,0.1-0.2,0.1
	C115,90.9,114.7,91,114.3,91.1L114.3,91.1z"/>
<path class="st2" d="M113.7,71.9L113.7,71.9c0.6,0,0.9,0.4,1.6,1.3c0.3,0.4,0.7,0.7,1.1,0.9c0.9,0.4,1.6,1,1.6,1.4l0,0
	c0.4,0.8,0,1.8,0.8,2.6c0.8,0.6,1.8,1,2.8,1c0.3,0,0.6,0,0.8-0.1l0,0c1.9-1.2,3.9-2.1,5.9-2.8l0,0c0.9,0,1,0.6,0.9,3.2
	c-0.1,1.9-0.1,3.8,0,5.8v0.7c0.1,1,0.1,1.8,0.1,2.4c0.1,0.5,0,0.9-0.2,1.4c-0.2,0.2-0.3,0.3-0.4,0.3c-0.1,0-0.2-0.1-0.3-0.1
	c-0.4-0.4-0.8-0.9-1.1-1.4c-1.3-1.9-1.7-2.3-3.2-2.8l-1.3-0.4l0,0h0.1c-2.1,0-4.1,0.4-6,1.3l0,0c0.1,0,0.3-0.1,0.4-0.1l0,0
	c0.3,0,0.3,0.1-0.2,0.4c-1.2,0.9-1.5,1.3-1.5,2.3c0,0.6-0.1,1-0.3,1.2c-0.1,0-0.1,0.1-0.2,0.1l0,0c-0.2,0.1-0.4,0.2-0.6,0.2h-0.1
	c-0.2,0-0.5-0.1-0.7-0.2c-0.7-0.2-1.5-0.3-2.3-0.4c-1.1-0.1-2.1-0.3-2.3-0.3c-0.5-0.2-0.4-0.8,0.2-1.2c0.3-0.1,0.6-0.2,0.9-0.2h0.1
	c-2.5-1-5.1-1.6-7.8-1.8c-0.5,0-0.9,0-1.3,0.2l0,0c0.1,0,0.1,0.3,0,0.7c-0.7,1-1.7,1.6-2.8,1.9c-0.5,0.1-0.9,0.2-1.4,0.2
	c-0.5,0-1-0.1-1.5-0.2c-1.8-0.4-6.7-2.9-7.7-3.9c-0.2-0.2-0.3-0.5-0.3-0.7c0-0.3,0.1-0.5,0.3-0.6l0,0h0.2c-0.1,0-0.1,0-0.2,0
	c0.1-0.2,0.2-0.5,0.2-0.7c0,0.1,0.1,0.2,0.2,0.2c0.1,0.1,0.3,0.1,0.4,0.2c-0.1,0-0.3-0.1-0.4-0.2c-0.7-0.4,0.4-2.3,2.5-3.8
	c4.3-3.1,9.5-4.8,14.8-4.9c0.9,0.1,1.8-0.1,2.6-0.5c0.7-0.4,1.5-0.7,2.2-1c0.8-0.3,1.8-0.7,2.3-0.9c0.4-0.2,0.8-0.3,1.2-0.4
	 M117.9,75.5L117.9,75.5c-0.1,0-0.2-0.1-0.3-0.2c-0.4-0.3-0.9-0.5-1.3-0.6c-0.7-0.2-1.3-0.5-1.7-1l-0.8-0.8l0,0l0.8,0.8
	c0.5,0.5,1.1,0.8,1.7,1c0.5,0.1,0.9,0.3,1.3,0.6C117.7,75.5,117.8,75.5,117.9,75.5 M116,77.1l-0.2-0.1c-2.1-0.7-4.4-1.1-6.6-1.1
	c2.2,0.1,4.5,0.5,6.6,1.1L116,77.1 M115.1,76.2L115.1,76.2 M117.6,77.3c-0.8-0.4-1.6-0.8-2.4-1.1C116,76.5,116.8,76.9,117.6,77.3
	 M122.7,79.2c-0.2,0-0.4,0-0.4-0.1l0,0C122.3,79.2,122.4,79.2,122.7,79.2c1-0.1,2.1-0.3,3.1-0.5c0.5-0.1,1.1-0.2,1.6-0.3h0.1
	c0.1,0,0.1,0.4,0.1,0.9c0-0.6,0-0.9-0.1-0.9s-0.1,0-0.1,0c-0.6,0-1.1,0.1-1.6,0.3C124.8,78.9,123.7,79.1,122.7,79.2 M128.2,87.1
	c0-0.9-0.2-1.8-0.4-2.7c-0.2-0.9-0.3-1.9-0.3-2.8c0,0.9,0.1,1.9,0.3,2.8C128.1,85.3,128.2,86.2,128.2,87.1 M116.5,86.6L116.5,86.6
	 M100.9,86.6L100.9,86.6L100.9,86.6L100.9,86.6 M116.1,86.9L116.1,86.9L116.1,86.9L116.1,86.9L116.1,86.9 M100.6,87L100.6,87
	L100.6,87 M115.7,87.2L115.7,87.2L115.7,87.2L115.7,87.2L115.7,87.2 M100.3,87.2L100.3,87.2L100.3,87.2L100.3,87.2L100.3,87.2
	 M100,87.5L100,87.5L100,87.5L100,87.5L100,87.5 M115.3,87.6L115.3,87.6L115.3,87.6l0.1-0.1L115.3,87.6 M98.3,88.2
	c0.5-0.1,0.9-0.2,1.3-0.5l0.3-0.2l-0.3,0.2C99.2,88,98.8,88.1,98.3,88.2 M115,88L115,88L115,88l0.1-0.1L115,88 M98.2,88.2h-0.2l0,0
	H98.2 M114.8,88.5c0,0,0,0.1,0,0.1C114.8,88.5,114.8,88.5,114.8,88.5c0-0.1,0-0.1,0.1-0.2C114.8,88.3,114.8,88.4,114.8,88.5
	 M110.9,88.3L110.9,88.3 M111.9,88.6h-0.1H111.9 M114.6,89.1L114.6,89.1c0-0.1,0-0.2,0.1-0.3C114.6,88.8,114.6,88.9,114.6,89.1
	 M113,89L113,89L113,89h-0.2H113 M114.6,89.2c0,0,0,0.1,0,0.2l0,0C114.6,89.3,114.6,89.3,114.6,89.2 M114.6,89.4L114.6,89.4
	L114.6,89.4L114.6,89.4L114.6,89.4 M113.7,70.9c-0.6,0-1.2,0.2-1.7,0.5c-0.4,0.2-1.4,0.6-2.2,0.9c-0.8,0.3-1.6,0.6-2.4,1
	c-0.4,0.2-0.7,0.3-2,0.3c-5.6,0.1-11,1.9-15.5,5.1c-1.6,1.2-3.2,2.9-3.1,4.3l0,0V83c-0.4,0.3-0.6,0.9-0.6,1.4
	c-0.1,0.6,0.1,1.1,0.4,1.6c1.2,1.3,6.4,3.9,8.3,4.3c0.6,0.1,1.1,0.2,1.7,0.2c0.6,0,1.1-0.1,1.7-0.2c1.5-0.3,2.8-1.2,3.6-2.5
	c0-0.1,0-0.1,0.1-0.2h0.3c1.8,0.1,3.6,0.4,5.3,1c-0.1,0.3-0.1,0.6-0.1,0.8c0.1,0.6,0.5,1.1,1.1,1.2c0.4,0.1,2.5,0.4,2.5,0.4
	c0.7,0.1,1.3,0.2,1.9,0.3c0.4,0.2,0.8,0.3,1.2,0.3h0.1c0.4,0,0.9-0.1,1.2-0.3c0.1,0,0.2-0.1,0.3-0.2c0.6-0.5,0.8-1.2,0.8-2
	c0-0.5,0-0.6,1-1.4c0.3-0.2,0.6-0.5,0.8-0.8c1.4-0.4,2.8-0.7,4.3-0.7l1,0.3c1.2,0.4,1.4,0.6,2.6,2.4c1,1.5,1.2,1.7,1.3,1.7
	c0.3,0.2,0.6,0.3,0.9,0.3c0.5,0,0.9-0.3,1.2-0.7c0.4-0.6,0.5-1.4,0.4-2.1c0-0.6,0-1.4-0.1-2.4v-0.7c-0.1-1.9-0.1-3.7,0-5.6
	c0.1-2,0.1-3.1-0.5-3.8c-0.4-0.4-0.9-0.6-1.4-0.6c-0.1,0-0.3,0-0.4,0.1c-2.1,0.7-4.1,1.6-6,2.8c-0.1,0-0.3,0-0.4,0
	c-0.7,0-1.4-0.3-2-0.7c-0.2-0.2-0.2-0.4-0.2-0.9c0-0.4-0.1-0.8-0.2-1.2c-0.2-1.2-1.7-2-2.2-2.2c-0.2-0.1-0.5-0.3-0.6-0.5
	C115.6,71.7,114.8,71,113.7,70.9L113.7,70.9z"/>
<path class="st5" d="M113.8,73.1l-0.7,0.6l-1.2,0.9c-0.3,0.2-0.4,0.4-0.4,0.5c0.6,0.3,1.2,0.5,1.8,0.7c1.6,0.4,4.8,1.8,4.6,2
	c-0.7-0.1-1.4-0.3-2.1-0.5c-3.1-1-6.3-1.4-9.5-1.1c-1.9,0-3.7,0.1-5.6,0.6c-3.7,0.9-7.1,2.8-9.9,5.4c-0.5,0.5-1.1,1-1.7,1.5
	c-0.4,0.1-0.8,0.1-1.1-0.1c-0.1-0.1-0.1-0.1-0.2-0.2c-0.1,0.2-0.2,0.5-0.2,0.7c0.1,0,0.2,0,0.3,0c0.3,0,0.6,0,0.9,0.2l0.9,0.6
	c3.7,2.7,5.6,3.6,7.7,3.7c0.8,0.1,1.6-0.1,2.2-0.5c0.4-0.2,0.8-0.5,1.1-0.8c0,0,0-0.1,0-0.1c0.1-0.2,0.2-0.3,0.3-0.2
	c1.7-0.4,4.6,0,9.1,1.7c1.4,0.2,2.8,0.6,4.1,1.2c0.3,0.1,0.3,0,0.3-0.3c0.2-1.2,1.1-2.3,2.3-2.7l0,0c1.9-0.9,3.9-1.4,6-1.3h-0.1
	l0.9-0.1c1.3-0.1,2.6,0.5,3.4,1.6c0.3,0.4,0.6,0.7,1,1c0.3,0,0.2-1.2-0.2-3.2c-0.3-1.3-0.4-2.6-0.3-3.9c0.1-0.7,0.1-1.4-0.1-2.1
	c-0.6,0-1.2,0.1-1.8,0.3c-2.4,0.6-3.4,0.7-3.4,0.4l0,0c-1.3,0.3-2.6-0.1-3.6-0.9c-0.8-0.8-0.4-1.8-0.8-2.6c0,0.2,0,0.2-0.3,0
	c-0.4-0.3-0.9-0.5-1.3-0.6c-0.7-0.2-1.3-0.5-1.7-1L113.8,73.1z"/>
<path class="st6" d="M103.6,82.6l-0.2-3.4c-0.1-0.4,0-0.7,0.1-0.7s0.7,1.1,1,2c0.1,0.3,0.2,0.6,0.4,0.8c0.3,0.3,0.3,0.4,0,0.7
	c-0.2,0.3-0.3,0.6-0.3,1c0,0.8-0.3,2.2-0.6,2.2C103.7,84.3,103.6,83.4,103.6,82.6L103.6,82.6z M106.1,84.2c-0.1-0.1-0.1-1.4-0.2-2.8
	c-0.1-2.1-0.1-2.5,0.2-2.3c0.2,0.2,0.3,0.5,0.4,0.9c0.1,0.4,0.2,0.8,0.5,1.1c0.2,0.3,0.2,0.6,0.1,0.9c-0.2,0.4-0.3,0.9-0.3,1.4
	C106.6,84.2,106.3,84.7,106.1,84.2L106.1,84.2z M108.6,81.6v-2.5c0.1-0.2,0.4,0.4,0.7,1.3c0.1,0.3,0.2,0.6,0.4,0.9
	c0.1,0.1,0.1,0.3,0,0.5c-0.2,0.4-0.3,0.8-0.4,1.2C108.9,84.6,108.7,84.2,108.6,81.6L108.6,81.6z M111.2,82.7c0-0.7-0.1-1.5-0.2-2.2
	c-0.1-0.4-0.1-0.8,0-1.1c0.2-0.1,0.5,0.3,0.7,1c0.1,0.4,0.3,0.7,0.6,0.9l0.4,0.3l-0.4,0.3c-0.3,0.2-0.4,0.5-0.4,0.8
	c0,0.6-0.2,1.1-0.4,1.1S111.2,83.3,111.2,82.7z M113.5,82.2c0-0.7,0-1.3-0.1-2c-0.2-1,0.2-0.8,0.8,0.5c0.4,0.9,0.4,1.1,0.2,1.3
	c-0.2,0.2-0.3,0.5-0.3,0.8c0,0.3-0.2,0.5-0.3,0.6S113.6,83.1,113.5,82.2L113.5,82.2z M115.7,81.4c0-1.7,0-1.8,0.3-1.5
	c0.5,0.8,0.6,1.7,0.3,2.6C115.9,83.7,115.7,83.3,115.7,81.4z M117.8,81.7c-0.4-0.3-0.4-0.3,0.2-0.2c0.3,0,0.6,0.2,0.6,0.2
	C118.5,82,118.2,82,117.8,81.7z"/>
<path d="M113.7,71.9c-0.4,0-0.9,0.2-1.2,0.4c-0.4,0.2-1.5,0.6-2.3,0.9c-0.8,0.3-1.5,0.6-2.2,1c-0.8,0.4-1.7,0.6-2.6,0.5
	c-5.3,0.1-10.5,1.8-14.8,4.9c-2,1.5-3.2,3.3-2.5,3.8c0.3,0.2,0.7,0.2,1.1,0.1c0.6-0.5,1.1-0.9,1.7-1.5c2.8-2.6,6.2-4.5,9.9-5.4
	c1.8-0.5,3.7-0.7,5.6-0.6c3.2-0.2,6.4,0.2,9.5,1.1c0.7,0.2,1.4,0.4,2.1,0.5c0.2-0.2-3-1.5-4.6-2c-0.6-0.1-1.2-0.3-1.8-0.7
	c0-0.1,0.2-0.3,0.4-0.5c0.4-0.3,0.8-0.6,1.2-0.9l0.7-0.6l0.8,0.8c0.5,0.5,1.1,0.8,1.7,1c0.5,0.1,0.9,0.3,1.3,0.6
	c0.3,0.3,0.3,0.3,0.3,0s-0.7-1-1.6-1.4c-0.4-0.2-0.8-0.5-1.1-0.9C114.6,72.3,114.2,71.9,113.7,71.9L113.7,71.9z M128.2,76.3
	c-0.7,0-6,2.5-6,2.8s1.1,0.2,3.4-0.4c0.6-0.2,1.2-0.3,1.8-0.2c0.2,0.7,0.2,1.4,0.1,2.1c-0.1,1.3,0,2.6,0.3,3.9
	c0.4,2,0.5,3.2,0.2,3.2c-0.4-0.3-0.7-0.6-1-1c-0.8-1-2.1-1.6-3.4-1.6l-0.9,0.1l1.3,0.5c1.4,0.5,1.9,0.9,3.2,2.8
	c0.3,0.5,0.7,1,1.1,1.4c0.3,0.2,0.4,0.2,0.7-0.1c0.2-0.4,0.2-0.9,0.2-1.4c0-0.6,0-1.4-0.1-2.4v-0.7c-0.1-1.9-0.1-3.8,0-5.8
	C129.3,76.9,129.1,76.3,128.2,76.3L128.2,76.3z M96.1,80.1c-0.6,0-1.2,0.3-1.5,0.8c-0.3,0.5-0.2,1,0.5,1.8c0.4,0.5,1.4,0.3,2-0.4
	s0.6-0.8,0-1.6C96.9,80.3,96.5,80.1,96.1,80.1L96.1,80.1z M95.5,81.1c0.3,0,0.6,0.2,0.8,0.6c0.1,0.3-0.7,0.3-0.9-0.1
	C95.4,81.4,95.4,81.2,95.5,81.1C95.4,81.1,95.5,81.1,95.5,81.1L95.5,81.1z M87.9,83.8c-0.1,0-0.2,0-0.3,0l0,0
	c-0.2,0.1-0.3,0.3-0.3,0.6c0,0.3,0.1,0.5,0.3,0.7c1,1.1,5.9,3.6,7.7,3.9c0.9,0.2,1.9,0.2,2.9,0c1.1-0.3,2.1-0.9,2.8-1.9
	c0.3-0.6,0-1-0.3-0.4c-0.3,0.4-0.7,0.7-1.1,0.9c-0.7,0.4-1.4,0.6-2.2,0.5c-2,0-4-1-7.7-3.7l-0.9-0.6C88.6,83.8,88.3,83.7,87.9,83.8
	L87.9,83.8z M117.2,86.4c-1.4,0.3-2.5,1.4-2.7,2.8c0,0.3-0.1,0.4-0.3,0.3c-2.7-1.1-4.4-1.5-5.1-1s-0.7,1-0.2,1.2
	c0.2,0,1.2,0.2,2.3,0.3c0.8,0.1,1.5,0.2,2.3,0.4c0.2,0.1,0.5,0.2,0.8,0.2l0,0c0.2,0,0.4,0,0.6-0.2l0,0c0.1,0,0.1-0.1,0.2-0.1
	c0.2-0.2,0.3-0.5,0.3-1.2c0-0.9,0.3-1.4,1.5-2.3C117.5,86.5,117.5,86.4,117.2,86.4L117.2,86.4z"/>
<path class="st7" d="M96.3,87.3l-0.7-0.2l1.2-0.2c1.6-0.3,2-0.7,2-1.9c0-1,0.2-1.2,0.7-0.5c0.6,0.9,0.3,2.1-0.6,2.7
	c-0.1,0.1-0.3,0.1-0.4,0.2C97.8,87.6,97,87.6,96.3,87.3L96.3,87.3z M123.5,83c0.1-0.5,0-1-0.2-1.5c-0.4-0.9-0.4-0.9,0.1-0.9
	s1.4,1.1,1.3,1.7c-0.2,0.6-0.6,1.1-1.1,1.5C123.5,83.8,123.4,83.7,123.5,83z M116.4,78.2c-3.9-1.3-10.8-1.3-15.5-0.1
	c-1,0.2-1.2,0.2-1.4,0c-0.4-0.4,0.3-0.8,2.3-1.3c3.8-0.7,13.1-1,16.3,1.7C118.1,78.7,117.7,78.6,116.4,78.2L116.4,78.2z"/>
<path class="st2" d="M114.3,223.1c-0.3,0-0.7-0.1-1-0.2c-0.7-0.2-1.4-0.3-2.1-0.3c-0.8-0.1-2.1-0.3-2.4-0.3
	c-0.4-0.1-0.7-0.4-0.7-0.8c0-0.4,0.1-0.8,0.4-1.1c-2-0.7-4-1.2-6.1-1.3c-0.2,0-0.5,0-0.7,0c0,0.2-0.1,0.3-0.1,0.4
	c-0.8,1.1-1.9,1.9-3.2,2.2c-0.5,0.1-1,0.2-1.5,0.2c-0.5,0-1.1-0.1-1.6-0.2c-1.9-0.4-6.9-3-8-4.1c-0.3-0.3-0.4-0.7-0.4-1.1
	c-0.1-0.4,0.1-0.8,0.4-1l0.1-0.4c0,0,0-0.1,0-0.1c0-1.1,1.4-2.7,2.9-3.9c4.4-3.2,9.7-4.9,15.2-5c0.8,0.1,1.6-0.1,2.3-0.4
	c0.7-0.4,1.5-0.7,2.3-1c0.8-0.3,1.8-0.7,2.2-0.9c0.5-0.3,1-0.4,1.5-0.4h0.1c0.8,0,1.4,0.7,1.9,1.5c0.2,0.3,0.5,0.5,0.9,0.7
	c0.9,0.4,1.9,1.1,1.9,1.8c0.1,0.4,0.2,0.7,0.2,1.1c0,0.4,0.1,0.9,0.4,1.2c0.7,0.6,1.5,0.9,2.4,0.9c0.2,0,0.4,0,0.6-0.1
	c1.9-1.2,4-2.1,6.2-2.8l0,0c0.4,0,0.7,0.1,1,0.4c0.5,0.5,0.5,1.6,0.4,3.4c-0.1,1.9-0.1,3.8,0,5.7v0.7c0.1,1,0.1,1.8,0.1,2.4
	c0,1-0.1,1.4-0.3,1.7c-0.2,0.3-0.5,0.5-0.8,0.5l0,0c-0.2,0-0.5-0.1-0.6-0.2c-0.5-0.5-0.9-1-1.2-1.6c-1.3-1.9-1.6-2.2-2.9-2.6
	l-1.1-0.4c-1.6,0-3.3,0.3-4.8,0.8c0,0.3-0.3,0.6-0.6,0.8c-1.2,0.9-1.3,1.2-1.3,1.8c0.1,0.6-0.1,1.2-0.6,1.6c-0.1,0-0.1,0.1-0.2,0.1
	C115,222.9,114.7,223,114.3,223.1L114.3,223.1z"/>
<path class="st2" d="M113.7,203.9L113.7,203.9c0.6,0,0.9,0.4,1.6,1.3c0.3,0.4,0.7,0.7,1.1,0.9c0.9,0.4,1.6,1,1.6,1.4l0,0
	c0.4,0.8,0,1.9,0.8,2.6c0.8,0.6,1.8,1,2.8,1c0.3,0,0.6,0,0.8-0.1l0,0c1.9-1.2,3.9-2.1,5.9-2.8l0,0c0.9,0,1,0.6,0.9,3.2
	c-0.1,1.9-0.1,3.8,0,5.8v0.7c0.1,1,0.1,1.8,0.1,2.4c0.1,0.5,0,0.9-0.2,1.4c-0.2,0.2-0.3,0.3-0.4,0.3c-0.1,0-0.2-0.1-0.3-0.1
	c-0.4-0.4-0.8-0.9-1.1-1.4c-1.3-1.9-1.7-2.3-3.2-2.8l-1.3-0.4l0,0h0.1c-2.1,0-4.1,0.4-6,1.3l0,0c0.1,0,0.3-0.1,0.4-0.1l0,0
	c0.3,0,0.3,0.1-0.2,0.4c-1.2,0.9-1.5,1.3-1.5,2.3c0,0.6-0.1,1-0.3,1.1c-0.1,0-0.1,0.1-0.2,0.1l0,0c-0.2,0.1-0.4,0.2-0.6,0.2h-0.1
	c-0.2,0-0.5-0.1-0.7-0.2c-0.7-0.2-1.5-0.3-2.3-0.4c-1.1-0.1-2.1-0.3-2.3-0.3c-0.5-0.1-0.4-0.8,0.2-1.2c0.3-0.1,0.6-0.2,0.9-0.2h0.1
	c-2.5-1-5.1-1.6-7.8-1.8c-0.5,0-0.9,0-1.3,0.1l0,0c0.1,0,0.1,0.3,0,0.7c-0.7,1-1.7,1.6-2.8,1.9c-0.5,0.1-0.9,0.2-1.4,0.2
	c-0.5,0-1-0.1-1.5-0.2c-1.8-0.4-6.7-2.9-7.7-3.9c-0.2-0.2-0.3-0.5-0.3-0.7c0-0.3,0.1-0.5,0.3-0.6l0,0h0.2c-0.1,0-0.1,0-0.2,0
	c0.1-0.2,0.2-0.5,0.2-0.7c0,0.1,0.1,0.2,0.2,0.2c0.1,0.1,0.3,0.1,0.4,0.1c-0.1,0-0.3-0.1-0.4-0.1c-0.7-0.4,0.4-2.3,2.5-3.8
	c4.3-3.1,9.5-4.8,14.8-4.9c0.9,0.1,1.8-0.1,2.6-0.5c0.7-0.4,1.5-0.7,2.2-0.9c0.8-0.3,1.8-0.7,2.3-0.9
	C112.8,204,113.2,203.9,113.7,203.9 M117.9,207.6L117.9,207.6c-0.1,0-0.2-0.1-0.3-0.2c-0.4-0.3-0.9-0.5-1.3-0.6
	c-0.7-0.2-1.3-0.5-1.7-1l-0.8-0.8l0,0l0.8,0.8c0.5,0.5,1.1,0.8,1.7,1c0.5,0.1,0.9,0.3,1.3,0.6C117.7,207.5,117.8,207.6,117.9,207.6
	 M116,209.1l-0.2-0.1c-2.1-0.7-4.4-1.1-6.6-1.1c2.2,0.1,4.5,0.5,6.6,1.1L116,209.1 M115.1,208.2L115.1,208.2 M117.6,209.3
	c-0.8-0.4-1.6-0.8-2.4-1.1C116,208.5,116.8,208.9,117.6,209.3 M122.7,211.2c-0.2,0-0.4,0-0.4-0.1l0,0
	C122.3,211.2,122.4,211.2,122.7,211.2c1-0.1,2.1-0.3,3.1-0.5c0.5-0.1,1.1-0.2,1.6-0.3h0.1c0.1,0,0.1,0.4,0.1,0.9
	c0-0.6,0-0.9-0.1-0.9s-0.1,0-0.1,0c-0.6,0-1.1,0.1-1.6,0.3C124.8,210.9,123.7,211.1,122.7,211.2 M128.2,219.1c0-0.9-0.2-1.8-0.4-2.7
	c-0.2-0.9-0.3-1.9-0.3-2.8c0,0.9,0.1,1.9,0.3,2.8C128.1,217.3,128.2,218.2,128.2,219.1 M116.5,218.6L116.5,218.6 M100.9,218.6
	L100.9,218.6L100.9,218.6L100.9,218.6 M116.1,218.9L116.1,218.9L116.1,218.9L116.1,218.9L116.1,218.9 M100.6,219L100.6,219
	L100.6,219 M115.7,219.2L115.7,219.2L115.7,219.2L115.7,219.2L115.7,219.2 M100.3,219.2L100.3,219.2L100.3,219.2L100.3,219.2
	L100.3,219.2 M100,219.5L100,219.5L100,219.5L100,219.5L100,219.5 M115.3,219.6L115.3,219.6L115.3,219.6l0.1-0.1L115.3,219.6
	 M98.3,220.2c0.5-0.1,0.9-0.2,1.3-0.5l0.3-0.2l-0.3,0.2C99.2,220,98.8,220.1,98.3,220.2 M115,220l-0.1,0.1L115,220l0.1-0.1L115,220
	 M98.2,220.2h-0.2l0,0H98.2 M114.8,220.5c0,0,0,0.1,0,0.1C114.8,220.5,114.8,220.5,114.8,220.5c0-0.1,0-0.1,0.1-0.2
	C114.8,220.3,114.8,220.4,114.8,220.5 M110.9,220.4L110.9,220.4 M111.9,220.6h-0.1H111.9 M114.6,221.1L114.6,221.1
	c0-0.1,0-0.2,0.1-0.3C114.6,220.8,114.6,220.9,114.6,221.1 M113,221L113,221L113,221l-0.2-0.1L113,221 M114.6,221.2c0,0,0,0.1,0,0.1
	l0,0C114.6,221.3,114.6,221.3,114.6,221.2 M114.6,221.4L114.6,221.4L114.6,221.4L114.6,221.4L114.6,221.4 M113.7,202.9
	c-0.6,0-1.2,0.2-1.7,0.5c-0.4,0.2-1.4,0.6-2.2,0.9c-0.8,0.3-1.6,0.6-2.4,1c-0.4,0.2-0.7,0.3-2,0.3c-5.6,0.1-11,1.9-15.5,5.1
	c-1.6,1.2-3.2,2.9-3.1,4.3v0v0.1c-0.4,0.3-0.6,0.9-0.6,1.4c0,0.5,0.2,1.1,0.6,1.4c1.2,1.3,6.4,3.9,8.3,4.3c0.6,0.1,1.1,0.2,1.7,0.2
	c0.6,0,1.1-0.1,1.7-0.2c1.5-0.3,2.8-1.2,3.6-2.5c0-0.1,0-0.1,0.1-0.2h0.3c1.8,0.1,3.6,0.4,5.3,1c-0.1,0.3-0.1,0.6-0.1,0.8
	c0.1,0.6,0.5,1.1,1.1,1.2c0.4,0.1,2.5,0.4,2.5,0.4c0.7,0.1,1.3,0.2,1.9,0.3c0.4,0.2,0.8,0.3,1.2,0.3h0.1c0.4,0,0.9-0.1,1.2-0.3
	c0.1,0,0.2-0.1,0.3-0.2c0.6-0.5,0.8-1.2,0.8-2c0-0.5,0-0.6,1-1.4c0.3-0.2,0.6-0.5,0.8-0.8c1.4-0.4,2.8-0.7,4.3-0.7l1,0.4
	c1.2,0.4,1.4,0.6,2.6,2.4c1,1.5,1.2,1.6,1.3,1.7c0.3,0.2,0.6,0.3,0.9,0.3c0.5,0,0.9-0.3,1.2-0.7c0.4-0.6,0.5-1.4,0.4-2.1
	c0-0.6,0-1.4-0.1-2.4v-0.7c-0.1-1.9-0.1-3.7,0-5.6c0.1-2,0.1-3.1-0.5-3.8c-0.4-0.4-0.9-0.6-1.4-0.6c-0.1,0-0.3,0-0.4,0.1
	c-2.1,0.7-4.1,1.6-6,2.8c-0.1,0-0.3,0-0.4,0c-0.7,0-1.4-0.3-2-0.7c-0.2-0.1-0.2-0.4-0.2-0.9c0-0.4-0.1-0.8-0.2-1.2
	c-0.2-1.2-1.7-2-2.2-2.2c-0.2-0.1-0.5-0.3-0.6-0.5c-0.5-0.9-1.3-1.5-2.3-1.7L113.7,202.9z"/>
<path class="st5" d="M113.8,205.1l-0.7,0.6l-1.2,0.9c-0.3,0.2-0.4,0.4-0.4,0.5c0.6,0.3,1.2,0.5,1.8,0.6c1.6,0.4,4.8,1.8,4.6,2
	c-0.7-0.1-1.4-0.3-2.1-0.5c-3.1-1-6.3-1.4-9.5-1.1c-1.9,0-3.7,0.1-5.6,0.6c-3.7,0.9-7.1,2.8-9.9,5.4c-0.5,0.5-1.1,1-1.7,1.5
	c-0.4,0.1-0.8,0.1-1.1-0.1c-0.1-0.1-0.1-0.1-0.2-0.2c-0.1,0.2-0.2,0.5-0.2,0.7c0.1,0,0.2,0,0.3,0c0.3,0,0.6,0,0.9,0.1l0.9,0.6
	c3.7,2.7,5.6,3.6,7.7,3.7c0.8,0.1,1.6-0.1,2.2-0.5c0.4-0.2,0.8-0.5,1.1-0.8c0,0,0-0.1,0-0.1c0.1-0.2,0.2-0.3,0.3-0.2
	c1.7-0.4,4.6,0,9.1,1.6c1.4,0.2,2.8,0.6,4.1,1.2c0.3,0.1,0.3,0.1,0.3-0.3c0.2-1.2,1.1-2.3,2.3-2.7l0,0c1.9-0.9,3.9-1.4,6-1.3h-0.1
	l0.9-0.1c1.3-0.1,2.6,0.5,3.4,1.6c0.3,0.4,0.6,0.7,1,1c0.3,0,0.2-1.2-0.2-3.2c-0.3-1.3-0.4-2.6-0.3-3.9c0.1-0.7,0.1-1.4-0.1-2.1
	c-0.6,0-1.2,0.1-1.8,0.3c-2.4,0.6-3.4,0.7-3.4,0.4l0,0c-1.3,0.3-2.6-0.1-3.6-0.9c-0.8-0.8-0.4-1.8-0.8-2.6c0,0.2,0,0.2-0.3,0
	c-0.4-0.3-0.9-0.5-1.3-0.6c-0.7-0.2-1.3-0.5-1.7-1L113.8,205.1z"/>
<path class="st6" d="M103.6,214.6l-0.2-3.4c-0.1-0.4,0-0.7,0.1-0.7s0.7,1.1,1,2c0.1,0.3,0.2,0.6,0.4,0.8c0.3,0.3,0.3,0.4,0,0.7
	c-0.2,0.3-0.3,0.6-0.3,1c0,0.8-0.3,2.2-0.6,2.2C103.7,216.3,103.6,215.4,103.6,214.6L103.6,214.6z M106.1,216.2
	c-0.1-0.1-0.1-1.4-0.2-2.8c-0.1-2.1-0.1-2.5,0.2-2.3c0.2,0.2,0.3,0.5,0.4,0.9c0.1,0.4,0.2,0.8,0.5,1.1c0.2,0.3,0.2,0.6,0.1,0.9
	c-0.2,0.4-0.3,0.9-0.3,1.4C106.6,216.2,106.3,216.6,106.1,216.2L106.1,216.2z M108.6,213.6v-2.5c0.1-0.1,0.4,0.4,0.7,1.3
	c0.1,0.3,0.2,0.6,0.4,0.9c0.1,0.1,0.1,0.3,0,0.5c-0.2,0.4-0.3,0.8-0.4,1.2C108.9,216.6,108.7,216.2,108.6,213.6L108.6,213.6z
	 M111.2,214.7c0-0.7-0.1-1.5-0.2-2.2c-0.1-0.4-0.1-0.8,0-1.1c0.2-0.1,0.5,0.3,0.7,1c0.1,0.4,0.3,0.7,0.6,0.9l0.4,0.3l-0.4,0.3
	c-0.3,0.2-0.4,0.5-0.4,0.8c0,0.6-0.2,1.1-0.4,1.1S111.2,215.3,111.2,214.7L111.2,214.7z M113.5,214.2c0-0.7,0-1.3-0.1-2
	c-0.2-1,0.2-0.8,0.8,0.5c0.4,0.9,0.4,1.1,0.2,1.3c-0.2,0.2-0.3,0.5-0.3,0.8c0,0.3-0.2,0.5-0.3,0.6S113.6,215.1,113.5,214.2
	L113.5,214.2z M115.7,213.4c0-1.7,0-1.8,0.3-1.5c0.5,0.8,0.6,1.7,0.3,2.6C115.9,215.7,115.7,215.3,115.7,213.4L115.7,213.4z
	 M117.8,213.7c-0.4-0.3-0.4-0.3,0.2-0.2c0.3,0,0.6,0.1,0.6,0.2C118.5,214,118.2,214,117.8,213.7z"/>
<path d="M113.7,203.9c-0.4,0-0.9,0.2-1.2,0.4c-0.4,0.2-1.5,0.6-2.3,0.9c-0.8,0.3-1.5,0.6-2.2,0.9c-0.8,0.4-1.7,0.6-2.6,0.5
	c-5.3,0.1-10.5,1.8-14.8,4.9c-2,1.5-3.2,3.3-2.5,3.8c0.3,0.2,0.7,0.2,1.1,0.1c0.6-0.5,1.1-0.9,1.7-1.5c2.8-2.6,6.2-4.5,9.9-5.4
	c1.8-0.5,3.7-0.7,5.6-0.6c3.2-0.2,6.4,0.2,9.5,1.1c0.7,0.2,1.4,0.4,2.1,0.5c0.2-0.2-3-1.5-4.6-2c-0.6-0.1-1.2-0.3-1.8-0.6
	c0-0.1,0.2-0.3,0.4-0.5c0.4-0.3,0.8-0.6,1.2-0.9l0.7-0.6l0.8,0.8c0.5,0.5,1.1,0.8,1.7,1c0.5,0.1,0.9,0.3,1.3,0.6
	c0.3,0.3,0.3,0.3,0.3,0s-0.7-1-1.6-1.4c-0.4-0.2-0.8-0.5-1.1-0.9C114.6,204.2,114.2,203.8,113.7,203.9L113.7,203.9z M128.2,208.3
	c-0.7,0-6,2.5-6,2.8s1.1,0.1,3.4-0.4c0.6-0.2,1.2-0.3,1.8-0.2c0.2,0.7,0.2,1.4,0.1,2.1c-0.1,1.3,0,2.6,0.3,3.9
	c0.4,2,0.5,3.2,0.2,3.2c-0.4-0.3-0.7-0.6-1-1c-0.8-1.1-2.1-1.6-3.4-1.6l-0.9,0.1l1.3,0.5c1.4,0.5,1.9,0.9,3.2,2.8
	c0.3,0.5,0.7,1,1.1,1.4c0.3,0.2,0.4,0.2,0.7-0.1c0.2-0.4,0.2-0.9,0.2-1.4c0-0.6,0-1.4-0.1-2.4v-0.7c-0.1-1.9-0.1-3.8,0-5.8
	C129.2,208.9,129.1,208.2,128.2,208.3L128.2,208.3z M96.1,212.1c-0.6,0-1.2,0.3-1.5,0.8c-0.3,0.5-0.2,1,0.5,1.8
	c0.4,0.5,1.4,0.3,2-0.4s0.6-0.8,0-1.6C96.9,212.3,96.5,212.1,96.1,212.1L96.1,212.1z M95.5,213.1c0.3,0,0.6,0.2,0.8,0.6
	c0.1,0.4-0.7,0.3-0.9-0.1C95.4,213.4,95.4,213.2,95.5,213.1C95.4,213.1,95.5,213.1,95.5,213.1L95.5,213.1z M87.9,215.8
	c-0.1,0-0.2,0-0.3,0l0,0c-0.2,0.1-0.3,0.3-0.3,0.6c0,0.3,0.1,0.5,0.3,0.7c1,1.1,5.9,3.6,7.7,3.9c0.9,0.2,1.9,0.2,2.9,0
	c1.1-0.3,2.1-0.9,2.8-1.9c0.3-0.6,0-0.9-0.3-0.4c-0.3,0.4-0.7,0.7-1.1,0.9c-0.7,0.4-1.4,0.6-2.2,0.5c-2,0-4-1-7.7-3.7l-0.9-0.6
	C88.6,215.8,88.3,215.7,87.9,215.8L87.9,215.8z M117.2,218.4c-1.4,0.3-2.5,1.4-2.7,2.8c0,0.3-0.1,0.4-0.3,0.3
	c-2.7-1.1-4.4-1.5-5.1-1s-0.7,1-0.2,1.2c0.2,0,1.2,0.2,2.3,0.3c0.8,0.1,1.5,0.2,2.3,0.4c0.2,0.1,0.5,0.2,0.8,0.2l0,0
	c0.2,0,0.4,0,0.6-0.2l0,0c0.1,0,0.1-0.1,0.2-0.1c0.2-0.2,0.3-0.5,0.3-1.1c0-0.9,0.3-1.4,1.5-2.3
	C117.5,218.5,117.5,218.4,117.2,218.4L117.2,218.4z"/>
<path class="st7" d="M96.3,219.3l-0.7-0.2l1.2-0.2c1.6-0.3,2-0.7,2-1.9c0-1,0.2-1.2,0.7-0.5c0.6,0.9,0.3,2.1-0.6,2.7
	c-0.1,0.1-0.3,0.1-0.4,0.2C97.8,219.6,97,219.6,96.3,219.3L96.3,219.3z M123.5,215.1c0.1-0.5,0-1-0.2-1.5c-0.4-0.9-0.4-0.9,0.1-0.9
	s1.4,1.1,1.3,1.7c-0.2,0.6-0.6,1.1-1.1,1.5C123.5,215.8,123.4,215.6,123.5,215.1z M116.4,210.2c-3.9-1.3-10.8-1.3-15.5-0.1
	c-1,0.2-1.2,0.2-1.4,0c-0.4-0.4,0.3-0.8,2.3-1.3c3.8-0.7,13.1-1,16.3,1.7C118.1,210.7,117.7,210.6,116.4,210.2L116.4,210.2z"/>
<path class="st2" d="M195.3,91.1c-0.3,0-0.7-0.1-1-0.2c-0.7-0.2-1.4-0.3-2.1-0.3c-0.8-0.1-2.1-0.3-2.4-0.3c-0.4-0.1-0.7-0.4-0.7-0.8
	c0-0.4,0.1-0.8,0.4-1.1c-2-0.7-4-1.2-6.1-1.3c-0.2,0-0.5,0-0.7,0c0,0.2-0.1,0.3-0.1,0.4c-0.8,1.1-1.9,1.9-3.2,2.2
	c-0.5,0.1-1,0.2-1.5,0.2c-0.5,0-1.1-0.1-1.6-0.2c-1.9-0.4-6.9-3-8-4.1c-0.3-0.3-0.4-0.7-0.4-1.1c-0.1-0.4,0.1-0.8,0.4-1
	c0-0.1,0.1-0.2,0.1-0.4c0,0,0-0.1,0-0.1c-0.1-1.1,1.4-2.7,2.9-3.9c4.4-3.2,9.7-4.9,15.2-5c0.8,0.1,1.6-0.1,2.3-0.4
	c0.7-0.4,1.5-0.7,2.3-1c0.8-0.3,1.8-0.7,2.2-0.9c0.5-0.3,1-0.4,1.5-0.4h0.1c0.8,0,1.4,0.7,1.9,1.5c0.2,0.3,0.5,0.5,0.9,0.7
	c0.9,0.4,1.9,1.1,1.9,1.8c0.1,0.4,0.2,0.7,0.2,1.1c0,0.4,0.1,0.9,0.4,1.2c0.7,0.6,1.5,0.9,2.4,0.9c0.2,0,0.4,0,0.6-0.1
	c1.9-1.2,4-2.1,6.2-2.8l0,0c0.4,0,0.7,0.1,1,0.4c0.5,0.5,0.5,1.6,0.4,3.4c-0.1,1.9-0.1,3.8,0,5.7v0.7c0.1,1,0.1,1.8,0.1,2.4
	c0,1-0.1,1.4-0.3,1.7c-0.2,0.3-0.5,0.5-0.8,0.5l0,0c-0.2,0-0.5-0.1-0.6-0.2c-0.5-0.5-0.9-1-1.2-1.6c-1.3-1.9-1.6-2.2-2.9-2.6
	l-1.1-0.4c-1.6,0-3.3,0.3-4.8,0.8c0,0.3-0.3,0.6-0.6,0.8c-1.2,0.9-1.3,1.2-1.3,1.8c0.1,0.6-0.1,1.2-0.6,1.6c-0.1,0-0.1,0.1-0.2,0.1
	C196,90.9,195.7,91,195.3,91.1L195.3,91.1z"/>
<path class="st2" d="M194.6,71.9L194.6,71.9c0.6,0,0.9,0.4,1.6,1.3c0.3,0.4,0.7,0.7,1.1,0.9c0.9,0.4,1.6,1,1.6,1.4l0,0
	c0.4,0.8,0,1.8,0.8,2.6c0.8,0.6,1.8,1,2.8,1c0.3,0,0.6,0,0.8-0.1l0,0c1.9-1.2,3.9-2.1,5.9-2.8l0,0c0.9,0,1,0.6,0.9,3.2
	c-0.1,1.9-0.1,3.8,0,5.8v0.7c0.1,1,0.1,1.8,0.1,2.4c0.1,0.5,0,0.9-0.2,1.4c-0.2,0.2-0.3,0.3-0.4,0.3c-0.1,0-0.2-0.1-0.3-0.1
	c-0.4-0.4-0.8-0.9-1.1-1.4c-1.3-1.9-1.7-2.3-3.2-2.8l-1.3-0.4l0,0h0.1c-2.1,0-4.1,0.4-6,1.3l0,0c0.1,0,0.3-0.1,0.4-0.1l0,0
	c0.3,0,0.3,0.1-0.2,0.4c-1.2,0.9-1.5,1.3-1.5,2.3c0,0.6-0.1,1-0.4,1.2c-0.1,0-0.1,0.1-0.2,0.1l0,0c-0.2,0.1-0.4,0.2-0.6,0.2h-0.1
	c-0.2,0-0.5-0.1-0.7-0.2c-0.7-0.2-1.5-0.3-2.3-0.4c-1.1-0.1-2.1-0.3-2.3-0.3c-0.5-0.2-0.4-0.8,0.2-1.2c0.3-0.1,0.6-0.2,0.9-0.2h0.1
	c-2.5-1-5.1-1.6-7.8-1.8c-0.5,0-0.9,0-1.4,0.2l0,0c0.1,0,0.1,0.3,0,0.7c-0.7,1-1.7,1.6-2.8,1.9c-0.5,0.1-0.9,0.2-1.4,0.2
	c-0.5,0-1-0.1-1.5-0.2c-1.8-0.4-6.7-2.9-7.7-3.9c-0.2-0.2-0.3-0.5-0.3-0.7c0-0.3,0.1-0.5,0.3-0.6l0,0h0.2c-0.1,0-0.1,0-0.2,0
	c0.1-0.2,0.2-0.5,0.2-0.7c0,0.1,0.1,0.2,0.2,0.2c0.1,0.1,0.3,0.1,0.4,0.2c-0.1,0-0.3-0.1-0.4-0.2c-0.7-0.4,0.4-2.3,2.5-3.8
	c4.3-3.1,9.5-4.8,14.8-4.9c0.9,0.1,1.8-0.1,2.6-0.5c0.7-0.4,1.5-0.7,2.2-1c0.8-0.3,1.8-0.7,2.3-0.9c0.4-0.2,0.8-0.3,1.2-0.4
	 M198.9,75.5L198.9,75.5c-0.1,0-0.2-0.1-0.3-0.2c-0.4-0.3-0.9-0.5-1.3-0.6c-0.7-0.2-1.3-0.5-1.7-1l-0.8-0.8l0,0l0.8,0.8
	c0.5,0.5,1.1,0.8,1.7,1c0.5,0.1,0.9,0.3,1.3,0.6C198.7,75.5,198.8,75.5,198.9,75.5 M197,77.1l-0.2-0.1c-2.1-0.7-4.4-1.1-6.6-1.1
	c2.2,0.1,4.5,0.5,6.6,1.1L197,77.1 M196.1,76.2L196.1,76.2 M198.6,77.3c-0.8-0.4-1.6-0.8-2.4-1.1C197,76.5,197.8,76.9,198.6,77.3
	 M203.7,79.2c-0.2,0-0.4,0-0.4-0.1l0,0C203.3,79.2,203.4,79.2,203.7,79.2c1-0.1,2.1-0.3,3.1-0.5c0.5-0.1,1.1-0.2,1.6-0.3h0.1
	c0.1,0,0.1,0.4,0.1,0.9c0-0.6,0-0.9-0.1-0.9s-0.1,0-0.1,0c-0.6,0-1.1,0.1-1.6,0.3C205.8,78.9,204.7,79.1,203.7,79.2 M209.2,87.1
	c0-0.9-0.2-1.8-0.4-2.7c-0.2-0.9-0.3-1.9-0.3-2.8c0,0.9,0.1,1.9,0.3,2.8C209.1,85.3,209.2,86.2,209.2,87.1 M197.5,86.6L197.5,86.6
	 M181.9,86.6L181.9,86.6L181.9,86.6L181.9,86.6 M197.1,86.9L197.1,86.9L197.1,86.9L197.1,86.9L197.1,86.9 M181.6,87L181.6,87
	L181.6,87 M196.7,87.2L196.7,87.2L196.7,87.2L196.7,87.2L196.7,87.2 M181.3,87.2C181.3,87.2,181.3,87.2,181.3,87.2
	C181.3,87.2,181.3,87.2,181.3,87.2L181.3,87.2L181.3,87.2 M181,87.5L181,87.5L181,87.5L181,87.5L181,87.5 M196.3,87.6L196.3,87.6
	L196.3,87.6l0.1-0.1L196.3,87.6 M179.3,88.2c0.5-0.1,0.9-0.2,1.3-0.5l0.3-0.2l-0.3,0.2C180.2,88,179.8,88.1,179.3,88.2 M196,88
	L196,88L196,88l0.1-0.1L196,88 M179.2,88.2h-0.2l0,0H179.2 M195.8,88.5c0,0,0,0.1,0,0.1C195.8,88.5,195.8,88.5,195.8,88.5
	c0-0.1,0-0.1,0.1-0.2C195.8,88.3,195.8,88.4,195.8,88.5 M191.9,88.3L191.9,88.3 M192.9,88.6h-0.1H192.9 M195.6,89.1L195.6,89.1
	c0-0.1,0-0.2,0.1-0.3C195.6,88.8,195.6,88.9,195.6,89.1 M194,89L194,89L194,89h-0.2H194 M195.6,89.2c0,0,0,0.1,0,0.2l0,0
	C195.6,89.3,195.6,89.3,195.6,89.2 M195.6,89.4L195.6,89.4L195.6,89.4L195.6,89.4L195.6,89.4 M194.7,70.9c-0.6,0-1.2,0.2-1.7,0.5
	c-0.4,0.2-1.4,0.6-2.1,0.9c-0.8,0.3-1.6,0.6-2.4,1c-0.4,0.2-0.7,0.3-2,0.3c-5.6,0.1-11,1.9-15.5,5.1c-1.6,1.2-3.2,2.9-3.1,4.3l0,0
	V83c-0.4,0.3-0.6,0.9-0.6,1.4c0,0.5,0.2,1.1,0.6,1.4c1.2,1.3,6.4,3.9,8.3,4.3c0.6,0.1,1.1,0.2,1.7,0.2c0.6,0,1.1-0.1,1.7-0.2
	c1.5-0.3,2.8-1.2,3.6-2.5c0-0.1,0-0.1,0.1-0.2h0.3c1.8,0.1,3.6,0.4,5.3,1c-0.1,0.3-0.1,0.6-0.1,0.8c0.1,0.6,0.5,1.1,1.1,1.2
	c0.4,0.1,2.5,0.4,2.5,0.4c0.7,0.1,1.3,0.2,1.9,0.3c0.4,0.2,0.8,0.3,1.2,0.3h0.1c0.4,0,0.9-0.1,1.2-0.3c0.1,0,0.2-0.1,0.3-0.2
	c0.6-0.5,0.8-1.2,0.8-2c0-0.5,0-0.6,1-1.4c0.3-0.2,0.6-0.5,0.8-0.8c1.4-0.4,2.8-0.7,4.3-0.7l1,0.3c1.1,0.4,1.4,0.6,2.6,2.4
	c1,1.5,1.2,1.7,1.4,1.7c0.3,0.2,0.6,0.3,0.9,0.3c0.5,0,0.9-0.3,1.2-0.7c0.4-0.6,0.5-1.4,0.4-2.1c0-0.6,0-1.4-0.1-2.4v-0.7
	c-0.1-1.9-0.1-3.7,0-5.6c0.1-2,0.1-3.1-0.5-3.8c-0.4-0.4-0.9-0.6-1.4-0.6c-0.1,0-0.3,0-0.4,0.1c-2.1,0.7-4.1,1.6-6,2.8
	c-0.1,0-0.3,0-0.4,0c-0.7,0-1.4-0.3-2-0.7c-0.1-0.2-0.2-0.4-0.2-0.9c0-0.4-0.1-0.8-0.2-1.2c-0.2-1.2-1.7-2-2.2-2.2
	c-0.2-0.1-0.5-0.3-0.6-0.5c-0.5-0.9-1.3-1.5-2.3-1.7L194.7,70.9z"/>
<path class="st5" d="M194.8,73.1l-0.7,0.6l-1.2,0.9c-0.3,0.2-0.4,0.4-0.4,0.5c0.6,0.3,1.2,0.5,1.8,0.7c1.6,0.4,4.8,1.8,4.6,2
	c-0.7-0.1-1.4-0.3-2.1-0.5c-3.1-1-6.3-1.4-9.5-1.1c-1.9,0-3.7,0.1-5.6,0.6c-3.7,0.9-7.1,2.8-9.9,5.4c-0.5,0.5-1.1,1-1.6,1.5
	c-0.4,0.1-0.8,0.1-1.1-0.1c-0.1-0.1-0.1-0.1-0.2-0.2c-0.1,0.2-0.2,0.5-0.2,0.7c0.1,0,0.2,0,0.3,0c0.3,0,0.6,0,0.9,0.2l0.9,0.6
	c3.6,2.7,5.6,3.6,7.7,3.7c0.8,0.1,1.6-0.1,2.2-0.5c0.4-0.2,0.8-0.5,1.1-0.8c0,0,0-0.1,0-0.1c0.1-0.2,0.2-0.3,0.3-0.2
	c1.6-0.4,4.6,0,9.1,1.7c1.4,0.2,2.8,0.6,4.1,1.2c0.3,0.1,0.4,0,0.4-0.3c0.2-1.2,1.1-2.3,2.3-2.7l0,0c1.9-0.9,3.9-1.4,6-1.3h-0.1
	l0.9-0.1c1.3-0.1,2.6,0.5,3.4,1.6c0.3,0.4,0.6,0.7,1,1c0.3,0,0.2-1.2-0.2-3.2c-0.3-1.3-0.4-2.6-0.3-3.9c0.1-0.7,0.1-1.4-0.1-2.1
	c-0.6,0-1.2,0.1-1.8,0.3c-2.4,0.6-3.4,0.7-3.4,0.4l0,0c-1.3,0.3-2.6-0.1-3.6-0.9c-0.8-0.8-0.4-1.8-0.8-2.6c0,0.2,0,0.2-0.4,0
	c-0.4-0.3-0.9-0.5-1.3-0.6c-0.7-0.2-1.3-0.5-1.7-1L194.8,73.1z"/>
<path class="st6" d="M184.6,82.6l-0.2-3.4c-0.1-0.4,0-0.7,0.1-0.7s0.7,1.1,1,2c0.1,0.3,0.2,0.6,0.4,0.8c0.3,0.3,0.3,0.4,0,0.7
	c-0.2,0.3-0.3,0.6-0.3,1c0,0.8-0.4,2.2-0.6,2.2C184.7,84.3,184.6,83.4,184.6,82.6L184.6,82.6z M187.1,84.2c-0.1-0.1-0.1-1.4-0.2-2.8
	c-0.1-2.1-0.1-2.5,0.2-2.3c0.2,0.2,0.3,0.5,0.4,0.9c0.1,0.4,0.2,0.8,0.5,1.1c0.2,0.3,0.2,0.6,0.1,0.9c-0.2,0.4-0.3,0.9-0.3,1.4
	C187.6,84.2,187.3,84.7,187.1,84.2L187.1,84.2z M189.6,81.6v-2.5c0.1-0.2,0.4,0.4,0.7,1.3c0.1,0.3,0.2,0.6,0.4,0.9
	c0.1,0.1,0.1,0.3,0,0.5c-0.2,0.4-0.3,0.8-0.4,1.2C189.9,84.6,189.6,84.2,189.6,81.6L189.6,81.6z M192.2,82.7c0-0.7-0.1-1.5-0.2-2.2
	c-0.1-0.4-0.1-0.8,0-1.1c0.2-0.1,0.5,0.3,0.7,1c0.1,0.4,0.3,0.7,0.6,0.9l0.4,0.3l-0.4,0.3c-0.3,0.2-0.4,0.5-0.4,0.8
	c0,0.6-0.2,1.1-0.4,1.1S192.2,83.3,192.2,82.7z M194.6,82.2c0-0.7,0-1.3-0.1-2c-0.2-1,0.2-0.8,0.8,0.5c0.4,0.9,0.4,1.1,0.2,1.3
	c-0.2,0.2-0.3,0.5-0.3,0.8c0,0.3-0.2,0.5-0.3,0.6S194.6,83.1,194.6,82.2L194.6,82.2z M196.7,81.4c0-1.7,0-1.8,0.3-1.5
	c0.5,0.8,0.6,1.7,0.3,2.6C196.9,83.7,196.7,83.3,196.7,81.4z M198.8,81.7c-0.4-0.3-0.4-0.3,0.2-0.2c0.3,0,0.6,0.2,0.6,0.2
	C199.5,82,199.2,82,198.8,81.7z"/>
<path d="M194.6,71.9c-0.4,0-0.9,0.2-1.2,0.4c-0.4,0.2-1.5,0.6-2.3,0.9c-0.8,0.3-1.5,0.6-2.2,1c-0.8,0.4-1.7,0.6-2.6,0.5
	c-5.3,0.1-10.5,1.8-14.8,4.9c-2,1.5-3.2,3.3-2.5,3.8c0.3,0.2,0.7,0.2,1.1,0.1c0.6-0.5,1.1-0.9,1.6-1.5c2.8-2.6,6.2-4.5,9.9-5.4
	c1.8-0.5,3.7-0.7,5.6-0.6c3.2-0.2,6.4,0.2,9.5,1.1c0.7,0.2,1.4,0.4,2.1,0.5c0.2-0.2-3-1.5-4.6-2c-0.6-0.1-1.2-0.3-1.8-0.7
	c0-0.1,0.1-0.3,0.4-0.5c0.4-0.3,0.8-0.6,1.2-0.9l0.7-0.6l0.8,0.8c0.5,0.5,1.1,0.8,1.7,1c0.5,0.1,0.9,0.3,1.3,0.6
	c0.3,0.3,0.4,0.3,0.4,0s-0.7-1-1.6-1.4c-0.4-0.2-0.8-0.5-1.1-0.9C195.6,72.3,195.2,71.9,194.6,71.9L194.6,71.9z M209.2,76.3
	c-0.7,0-6,2.5-6,2.8s1.1,0.2,3.4-0.4c0.6-0.2,1.2-0.3,1.8-0.2c0.2,0.7,0.2,1.4,0.1,2.1c-0.1,1.3,0,2.6,0.3,3.9
	c0.4,2,0.5,3.2,0.2,3.2c-0.4-0.3-0.7-0.6-1-1c-0.8-1-2.1-1.6-3.4-1.6l-0.9,0.1l1.3,0.5c1.4,0.5,1.9,0.9,3.2,2.8
	c0.3,0.5,0.7,1,1.1,1.4c0.3,0.2,0.4,0.2,0.7-0.1c0.2-0.4,0.2-0.9,0.2-1.4c0-0.6,0-1.4-0.1-2.4v-0.7c-0.1-1.9-0.1-3.8,0-5.8
	C210.3,76.9,210.1,76.3,209.2,76.3L209.2,76.3z M177.1,80.1c-0.6,0-1.2,0.3-1.5,0.8c-0.3,0.5-0.2,1,0.5,1.8c0.4,0.5,1.4,0.3,2-0.4
	s0.6-0.8,0-1.6C177.9,80.3,177.5,80.1,177.1,80.1L177.1,80.1z M176.5,81.1c0.3,0,0.6,0.2,0.8,0.6c0.1,0.3-0.7,0.3-0.9-0.1
	C176.4,81.4,176.4,81.2,176.5,81.1L176.5,81.1L176.5,81.1z M168.9,83.8c-0.1,0-0.2,0-0.3,0l0,0c-0.2,0.1-0.3,0.3-0.3,0.6
	c0,0.3,0.1,0.5,0.3,0.7c1,1.1,5.9,3.6,7.7,3.9c0.9,0.2,1.9,0.2,2.9,0c1.1-0.3,2.1-0.9,2.8-1.9c0.3-0.6,0-1-0.3-0.4
	c-0.3,0.4-0.7,0.7-1.1,0.9c-0.7,0.4-1.4,0.6-2.2,0.5c-2.1,0-4-1-7.7-3.7l-0.9-0.6C169.6,83.8,169.3,83.7,168.9,83.8L168.9,83.8z
	 M198.2,86.4c-1.4,0.3-2.5,1.4-2.7,2.8c0,0.3-0.1,0.4-0.4,0.3c-2.7-1.1-4.4-1.5-5.1-1s-0.7,1-0.2,1.2c0.2,0,1.2,0.2,2.3,0.3
	c0.8,0.1,1.5,0.2,2.3,0.4c0.2,0.1,0.5,0.2,0.8,0.2l0,0c0.2,0,0.4,0,0.6-0.2l0,0c0.1,0,0.1-0.1,0.2-0.1c0.2-0.2,0.4-0.5,0.4-1.2
	c0-0.9,0.3-1.4,1.5-2.3C198.5,86.5,198.5,86.4,198.2,86.4L198.2,86.4z"/>
<path class="st7" d="M177.3,87.3l-0.7-0.2l1.2-0.2c1.6-0.3,2-0.7,2-1.9c0-1,0.2-1.2,0.7-0.5c0.6,0.9,0.3,2.1-0.6,2.7
	c-0.1,0.1-0.3,0.1-0.4,0.2C178.8,87.6,178,87.6,177.3,87.3L177.3,87.3z M204.5,83c0.1-0.5,0-1-0.2-1.5c-0.4-0.9-0.4-0.9,0.1-0.9
	s1.4,1.1,1.3,1.7c-0.2,0.6-0.6,1.1-1.1,1.5C204.5,83.8,204.4,83.7,204.5,83L204.5,83z M197.4,78.2c-3.9-1.3-10.8-1.3-15.5-0.1
	c-1,0.2-1.2,0.2-1.4,0c-0.4-0.4,0.3-0.8,2.3-1.3c3.8-0.7,13.1-1,16.3,1.7C199.1,78.7,198.7,78.6,197.4,78.2L197.4,78.2z"/>
<polygon class="st0" points="189.6,46.3 187.1,41 192.2,41 "/>
<polygon class="st0" points="28.4,46.3 25.8,41 31,41 "/>
<path class="st0" d="M190.1,42.3h-1v-4h1V42.3z M190.1,34.3h-1v-4h1V34.3z M190.1,26.3h-1v-4h1V26.3z"/>
<path class="st0" d="M88.5,4.2v3h-0.8V0h2c0.7,0,1.3,0.1,1.9,0.5C92,0.9,92.3,1.4,92.2,2c0,0.9-0.6,1.7-1.4,1.9l1.9,3.2h-1L90,4.2
	H88.5z M88.5,3.5h1.1c0.5,0,0.9-0.1,1.3-0.4c0.3-0.3,0.4-0.6,0.4-1C91.5,1.7,91.3,1.3,91,1c-0.4-0.2-0.9-0.3-1.4-0.3h-1.1V3.5z"/>
<path class="st0" d="M96,7.2c-0.7,0-1.4-0.2-1.9-0.7c-0.5-0.5-0.7-1.3-0.7-2c0-0.7,0.2-1.5,0.6-2.1c0.4-0.5,1.1-0.8,1.7-0.8
	c0.6,0,1.2,0.2,1.6,0.7C97.8,2.8,98,3.5,98,4.1v0.5h-3.7c0,0.5,0.2,1,0.5,1.4c0.3,0.3,0.8,0.5,1.3,0.5c0.6,0,1.2-0.1,1.7-0.4v0.7
	c-0.3,0.1-0.5,0.2-0.8,0.3C96.6,7.2,96.3,7.2,96,7.2z M95.8,2.4c-0.4,0-0.7,0.1-1,0.4c-0.3,0.3-0.5,0.8-0.5,1.2h2.8
	c0-0.4-0.1-0.8-0.3-1.2C96.5,2.5,96.2,2.4,95.8,2.4z"/>
<path class="st0" d="M101.3,7.2c-0.6,0-1.2-0.2-1.6-0.7c-0.4-0.6-0.6-1.3-0.6-2c0-0.7,0.2-1.5,0.6-2c0.8-0.9,2.1-1,3-0.2
	c0.1,0.1,0.2,0.2,0.3,0.3l0,0l0.1-0.7h0.6v7.7H103V7.2c0-0.3,0-0.6,0-0.8l0,0C102.6,7,102,7.3,101.3,7.2z M101.4,6.6
	c0.4,0,0.9-0.1,1.2-0.4c0.3-0.4,0.4-0.9,0.4-1.5V4.5c0-0.6-0.1-1.1-0.4-1.6c-0.3-0.3-0.8-0.5-1.2-0.5c-0.4,0-0.8,0.2-1.1,0.5
	c-0.3,0.5-0.4,1-0.4,1.6c0,0.5,0.1,1.1,0.4,1.5C100.5,6.4,101,6.6,101.4,6.6z"/>
<path class="st0" d="M106.3,1.8v3.5c0,0.4,0.1,0.7,0.3,1c0.3,0.2,0.6,0.3,0.9,0.3c0.5,0,0.9-0.1,1.2-0.5c0.3-0.4,0.4-1,0.4-1.5V1.8
	h0.8v5.3h-0.7l-0.1-0.7l0,0c-0.2,0.3-0.4,0.5-0.7,0.6c-0.3,0.1-0.7,0.2-1,0.2c-0.5,0-1.1-0.1-1.5-0.5c-0.4-0.4-0.5-0.9-0.5-1.5V1.8
	H106.3z"/>
<path class="st0" d="M113.9,7.2c-0.7,0-1.4-0.2-1.9-0.7c-0.5-0.6-0.7-1.3-0.7-2c0-0.7,0.2-1.5,0.7-2.1c0.4-0.5,1.1-0.8,1.7-0.8
	c0.6,0,1.2,0.2,1.6,0.7c0.4,0.5,0.6,1.1,0.6,1.8v0.5h-3.7c0,0.5,0.1,1,0.5,1.4c0.3,0.3,0.8,0.5,1.3,0.5c0.6,0,1.2-0.1,1.7-0.4v0.7
	C115.1,7.1,114.5,7.2,113.9,7.2L113.9,7.2z M113.7,2.4c-0.4,0-0.7,0.1-1,0.4c-0.3,0.3-0.5,0.8-0.5,1.2h2.8c0-0.4-0.1-0.8-0.3-1.2
	C114.4,2.5,114.1,2.4,113.7,2.4z"/>
<path class="st0" d="M120.7,5.7c0,0.5-0.2,0.9-0.6,1.2c-0.5,0.3-1,0.4-1.6,0.4c-0.6,0-1.1-0.1-1.7-0.3V6.2c0.3,0.1,0.5,0.2,0.8,0.3
	c0.3,0.1,0.6,0.1,0.8,0.1c0.3,0,0.7,0,1-0.2c0.2-0.1,0.3-0.4,0.3-0.6c0-0.2-0.1-0.4-0.3-0.5c-0.3-0.2-0.7-0.4-1.1-0.5
	c-0.4-0.1-0.7-0.3-1.1-0.5c-0.2-0.1-0.4-0.3-0.5-0.5c-0.1-0.2-0.2-0.4-0.2-0.6c0-0.4,0.2-0.8,0.5-1c0.4-0.3,0.9-0.4,1.5-0.4
	c0.6,0,1.2,0.1,1.7,0.4l-0.3,0.7c-0.5-0.2-1-0.3-1.5-0.3c-0.3,0-0.6,0-0.9,0.2c-0.2,0.1-0.3,0.3-0.3,0.5c0,0.1,0,0.3,0.1,0.4
	c0.1,0.1,0.2,0.2,0.3,0.3c0.3,0.2,0.6,0.3,0.9,0.4c0.5,0.1,0.9,0.4,1.3,0.7C120.6,5.1,120.7,5.4,120.7,5.7z"/>
<path class="st0" d="M123.8,6.6c0.1,0,0.3,0,0.4,0l0.3-0.1v0.6c-0.1,0.1-0.3,0.1-0.4,0.1c-0.2,0-0.3,0-0.5,0c-1,0-1.6-0.6-1.6-1.6
	V2.4h-0.8V2l0.8-0.3l0.3-1.1h0.5v1.3h1.6v0.6h-1.6v3.2c0,0.3,0.1,0.5,0.2,0.7C123.3,6.5,123.5,6.6,123.8,6.6z"/>
<path class="st0" d="M129,5.7c0,0.5-0.2,0.9-0.6,1.2c-0.5,0.3-1,0.4-1.6,0.4c-0.6,0-1.1-0.1-1.7-0.3V6.2c0.3,0.1,0.5,0.2,0.8,0.3
	c0.3,0.1,0.6,0.1,0.8,0.1c0.3,0,0.7,0,1-0.2c0.2-0.1,0.3-0.4,0.3-0.6c0-0.2-0.1-0.4-0.3-0.5c-0.3-0.2-0.7-0.4-1.1-0.5
	c-0.4-0.1-0.7-0.3-1.1-0.5c-0.2-0.1-0.4-0.3-0.5-0.5c-0.1-0.2-0.2-0.4-0.2-0.6c0-0.4,0.2-0.8,0.5-1c0.4-0.3,0.9-0.4,1.5-0.4
	c0.6,0,1.2,0.1,1.7,0.4l-0.3,0.7c-0.5-0.2-1-0.3-1.5-0.3c-0.3,0-0.6,0-0.9,0.2c-0.2,0.1-0.3,0.3-0.3,0.5c0,0.1,0,0.3,0.1,0.4
	c0.1,0.1,0.2,0.2,0.3,0.3c0.3,0.2,0.6,0.3,0.9,0.4c0.5,0.1,0.9,0.4,1.3,0.7C128.9,5.1,129,5.4,129,5.7z"/>
<path d="M105.1,251.3c0.1,1-0.3,2-1,2.7c-0.8,0.7-1.8,1-2.8,0.9h-2v-7.1h2.2c1.8-0.2,3.3,1.1,3.5,2.9
	C105,250.9,105,251.1,105.1,251.3L105.1,251.3z M104.2,251.3c0.1-0.8-0.2-1.5-0.7-2.1c-0.6-0.5-1.3-0.8-2.1-0.7h-1.2v5.7h1
	c0.8,0.1,1.6-0.2,2.2-0.7C104,252.9,104.2,252.1,104.2,251.3L104.2,251.3z"/>
<path d="M111.2,254.9l-0.9-2.3h-2.9l-0.9,2.3h-0.8l2.8-7.2h0.7l2.8,7.2H111.2z M110,251.9l-0.8-2.2c-0.1-0.3-0.2-0.6-0.3-1
	c-0.1,0.3-0.2,0.7-0.3,1l-0.8,2.2H110z"/>
<path d="M117,253c0,0.6-0.2,1.1-0.7,1.5c-0.5,0.4-1.2,0.6-1.9,0.5c-0.7,0-1.3-0.1-1.9-0.3v-0.8c0.6,0.3,1.3,0.4,2,0.4
	c0.4,0,0.9-0.1,1.2-0.3c0.3-0.2,0.4-0.5,0.4-0.9c0-0.2,0-0.4-0.2-0.6c-0.1-0.2-0.3-0.3-0.5-0.4c-0.3-0.2-0.7-0.3-1.1-0.4
	c-0.5-0.2-1-0.4-1.4-0.8c-0.3-0.4-0.5-0.8-0.4-1.3c0-0.5,0.2-1,0.6-1.3c0.5-0.3,1.1-0.5,1.6-0.5c0.7,0,1.4,0.1,2,0.4l-0.3,0.7
	c-0.5-0.2-1.1-0.4-1.7-0.4c-0.4,0-0.7,0.1-1,0.3c-0.2,0.2-0.4,0.5-0.4,0.8c0,0.2,0,0.4,0.1,0.6c0.1,0.2,0.3,0.3,0.5,0.4
	c0.3,0.2,0.7,0.3,1,0.4c0.6,0.2,1.1,0.5,1.6,0.9C116.9,252.2,117,252.6,117,253z"/>
</svg>
