<svg xmlns="http://www.w3.org/2000/svg" width="512" height="512" viewBox="0 0 512 512"><g fill="#008cdb"><path d="M319.312 149.969c10.391 2.298 13.588 12.589 20.882 18.884 8.193 7.094 18.784 9.292 25.678 18.184.599.8 2.098 4.396.599 5.096-1.1.6-4.696-2.998-5.495-3.497-4.896-2.897-10.691-4.196-15.986-5.995-9.692-3.297-19.782-11.49-25.477-19.982-7.293 5.794-14.888 11.189-22.481 16.785-3.197 2.298-6.094 4.496-1.499 6.594 4.596 2.098 9.491 3.297 14.288 4.696 10.091 2.997 20.082 6.294 29.974 10.091 8.193 3.197 20.583 6.594 26.776 13.088-.799 1.699-23.779-5.495-26.477-6.195-11.19-3.097-22.38-6.095-33.771-8.192-21.98-3.996-43.562-4.496-65.842-4.096-21.881.399-43.861.599-65.342 5.495-20.482 4.696-40.565 12.29-59.348 21.581-18.484 9.092-36.169 20.182-51.555 33.87-7.395 6.594-14.088 13.988-21.682 20.482-5.795 4.996-22.48 7.594-19.583-4.795 4.197-17.984 25.778-32.772 40.065-42.263 17.484-11.689 36.467-21.182 56.25-28.575 33.67-12.688 68.939-19.183 104.808-20.182 8.094-.2 16.586-.101 24.079-3.297 8.393-3.497 16.385-7.893 24.878-11.09 7.792-2.997 15.686-5.695 23.378-8.893 7.297-2.998 14.79-7.794 22.883-7.794.6.2-.799 0 0 0zM495.856 335.206c-.299 4.096 0 26.677-10.091 18.284-7.193-5.995-12.39-16.685-17.784-24.278-5.295-7.394-10.69-14.688-18.884-19.084-3.996-2.197-8.292-3.796-12.689-5.295-3.097-1.099-11.39-2.298-13.388-4.796 18.883-1.398 33.771.999 47.158 15.586 2.398 2.599 13.788 18.385 14.487 8.792.701-10.191-1.898-20.781-3.896-30.773-2.098-10.69-3.896-21.281-3.896-32.271 0-10.391 1.499-20.882.899-31.172-.299-4.996.101-7.093-5.195-6.594-4.996.5-9.892 1.599-14.788 2.598-9.991 2.198-20.082 4.396-30.173 5.895-1.798.3-9.792 1.999-10.591-.6-.599-1.998 7.394-5.694 8.792-6.394 9.192-4.896 18.484-9.591 27.976-13.788 9.092-4.096 18.583-8.692 28.175-11.19 8.792-2.298 12.688 3.497 13.488 11.59 1.998 20.682-2.198 41.963-1.699 62.745.302 20.281 2.099 40.463 2.099 60.745 0 .499 0-3.098 0 0zM124.983 348.295c-15.486-.5-29.375-4.996-43.562-11.091-15.786-6.894-31.372-14.687-45.96-23.879-5.695-3.597-13.587-7.692-17.384-13.388-3.297-4.795-3.198-14.288 4.195-14.787 8.394-.5 12.989 2.798 19.483 7.593 7.194 5.295 14.487 10.591 21.98 15.587 23.78 16.085 60.047 38.366 89.422 23.579 6.194-3.097 12.288-7.194 16.685-12.589 3.297-4.097 4.496-.5 3.497 3.197-.899 3.197-2.798 5.794-5.096 8.093-11.688 11.89-27.074 15.987-43.26 17.685-10.691-.4 2.198-.3 0 0z"/><path d="M254.169 200.225c19.083.6 38.266 1.199 57.149 3.997 17.585 2.598 36.868 6.694 51.954 16.685.5.4 6.295 3.997 5.896 4.496-1.798 2.498-10.891-1.498-13.088-2.098-9.092-2.698-18.084-5.396-27.476-7.193-18.484-3.497-37.367-5.196-56.151-5.596-19.283-.499-38.766.3-57.849 2.498-9.491 1.099-18.884 2.498-28.275 4.396-7.992 1.599-17.484 5.895-25.677 5.295-2.598-.2-7.194-3.197-4.497-6.194 2.998-3.297 7.694-4.896 11.79-6.395 8.892-3.098 17.884-5.295 27.276-6.294 19.683-1.899 39.166-2.998 58.948-3.597 7.294.2-7.193.2 0 0zM276.25 335.906c9.892.1 19.783 3.196 29.075 6.394 4.795 1.599 9.491 3.397 14.087 5.295 2.198.9 8.992 5.096 8.892 0-.2-8.892 5.395-17.084 11.49-23.08 3.098-2.998 6.495-5.495 10.391-7.394 1.399-.699 10.191-4.196 11.19-1.798.7 1.798-12.389 10.691-13.988 12.189-4.795 4.696-7.693 10.091-7.693 16.985-.1 5.995 0 12.389-5.794 15.686-6.395 3.697-12.789 1-19.083-.799-14.587-4.197-30.274-4.296-45.16-6.794-5.695-.898-11.391-2.897-7.793-9.791 1.097-2.098 13.786-10.29 14.386-6.893 5.895.1 0 0 0 0zM113.692 275.559c-7.493 0-15.286-10.091-15.086-17.385.3-7.793 9.392-14.487 16.485-15.387 8.593-.999 18.984 8.593 17.984 17.485-.5 4.396-5.196 8.991-8.593 11.49-.798.599-10.489 5.296-10.79 3.797-3.196 0 0 .1 0 0zm2.898-12.788c7.693-1.399-1.599-8.193-5.195-8.993-3.098-.699-2.697 4.197-1.799 5.696 1.199 2.497 4.397 3.196 6.994 3.297.3 0-1.898 0 0 0zM219.3 260.472c-1.199 3.297-4.097 5.495-5.195 8.892-1.299 3.796-1.1 7.594-1.499 11.491-.2 2.198-2.798 21.081-6.195 20.282-3.097-.699-3.197-27.176-3.397-30.473-.6-11.09-1.298-22.08-2.298-33.071-.3-3.796-1.299-7.993-.699-11.789.799-4.097 5.096 3.996 5.495 4.795 2.697 5.295 4.696 10.891 6.394 16.585 1.599 5.195 5.496 8.493 7.394 13.288-.199.5-.199-.599 0 0zM112.394 322.917c10.19-1.898 27.975-2.198 34.47-11.789 3.197-4.796 2.497-10.99 2.897-16.486.1-1.598 0-6.194 2.198-6.793 2.397-.7 5.395 4.496 6.394 6.094 5.996 10.291 1.199 23.08-8.492 29.074-12.189 7.294-24.978 4.197-37.467-.1 2.098-.399.3.1 0 0zM243.978 259.473c-1.398 5.195-3.296 10.09-4.296 15.386-.999 5.295-1.598 10.591-3.896 15.487-2.598 5.495-3.896-6.595-3.996-7.493-.4-7.194-.9-14.288-1.199-21.481-.3-5.896-.5-11.89-.6-17.784 0-1.299-.4-15.087 2.298-12.389 3.297 3.397 4.096 8.192 5.295 12.489 1.398 5.294 5.995 10.39 6.394 15.785-.3 1.098-.1-2.098 0 0zM273.652 258.873c-.8 3.297-6.794 28.275-9.692 28.175-4.296-.2-3.796-27.575-3.896-30.773-.201-5.895-.6-11.79-.5-17.685 0-1.199-.1-11.789 2.798-5.895 2.298 4.695 4.296 9.392 5.994 14.388 1.1 3.598 4.997 8.393 5.296 11.79-.199.899-.1-.999 0 0zM306.923 260.372c-3.197 2.197-6.794 4.196-8.691 7.693-2.499 4.496-1 9.791-3.198 14.388-3.197 6.594-4.596-1.199-4.796-4.597-.399-5.895-.399-11.69-.899-17.584-.5-6.194-1.399-12.39-1.898-18.584-.201-3.297-.301-10.591 4.096-5.395 3.297 3.896 3.596 8.992 5.695 13.488 1.997 4.596 5.794 7.394 9.691 10.591-1.698 1.099-1.399-1.099 0 0zM430.814 282.053c1.298-9.292 1.298-16.386-2.299-25.278-.399-1.098-3.896-7.393-1.099-7.593 4.796-.399 8.093 1.599 11.39 4.896 6.194 6.194 7.693 12.589 3.396 20.182-1.898 3.397-4.396 7.094-7.593 9.392-4.394 3.097-2.196-1.4-3.795-1.599.3-2.298 0 0 0 0zM329.203 261.072c-.2 3.296-3.497 5.895-4.597 8.992-1.098 3.097-.998 7.893-4.096 9.991-3.497 2.298-3.497-20.182-3.597-22.28-.2-4.396-.5-8.792-1.1-13.189-.299-1.998-1.797-11.19 2.299-6.494 5.197 5.894 9.293 15.386 11.091 22.98-.099 1.298-.299-1 0 0zM341.991 258.773c.101-4.196-1.698-15.887 1.199-19.283 2.999-3.496 7.294 14.987 7.294 16.187.399 5.794 0 18.084-5.196 22.08-2.197 1.698-3.196-16.986-3.297-18.984.101-6.394.201 3.597 0 0zM365.072 258.374c1.599.199 10.191.499 9.292 3.696-1.599 5.396-9.991-.499-11.39-3.297.499-.1 2.098-.2 2.098-.399 2.097.399 0 .1 0 0z"/></g></svg>