<svg id="abc6cedf-49bf-4284-a6e7-2f2057a4a323" data-name="Слой 1" xmlns="http://www.w3.org/2000/svg" width="217.27" height="198.89" viewBox="0 0 217.27 198.89"><rect x="0.58" y="129.54" width="54.67" height="54.67" rx="3" fill="#fff"/><path d="M52.24,184.78H3.58A3.58,3.58,0,0,1,0,181.2V132.54A3.59,3.59,0,0,1,3.58,129H52.24a3.59,3.59,0,0,1,3.58,3.58V181.2A3.58,3.58,0,0,1,52.24,184.78ZM3.58,130.11a2.43,2.43,0,0,0-2.43,2.43V181.2a2.43,2.43,0,0,0,2.43,2.43H52.24a2.43,2.43,0,0,0,2.43-2.43V132.54a2.43,2.43,0,0,0-2.43-2.43Z" fill="#05acff"/><rect x="80.88" y="129.58" width="54.67" height="54.67" rx="3" fill="#fff"/><path d="M132.54,184.82H83.88a3.59,3.59,0,0,1-3.58-3.58V132.58A3.59,3.59,0,0,1,83.88,129h48.66a3.58,3.58,0,0,1,3.58,3.58v48.66A3.58,3.58,0,0,1,132.54,184.82ZM83.88,130.15a2.43,2.43,0,0,0-2.43,2.43v48.66a2.43,2.43,0,0,0,2.43,2.43h48.66a2.43,2.43,0,0,0,2.43-2.43V132.58a2.43,2.43,0,0,0-2.43-2.43Z" fill="#05acff"/><path d="M213.72,184.78h-3.46v-1.15h3.43Zm-6.31,0H204v-1.15h3.43Zm-6.28,0H197.7v-1.15h3.43Zm-6.28,0h-3.43v-1.15h3.43Zm-6.28,0h-3.42v-1.15h3.42Zm-6.28,0h-3.42v-1.15h3.42Zm-6.28,0h-3.42v-1.15H176Zm-6.28,0h-3.42v-1.15h3.42Zm-6.49-.48a3.59,3.59,0,0,1-1.79-3.1v-.27h1.15v.27a2.46,2.46,0,0,0,1.21,2.11Zm53.38-1.05-.94-.66a2.46,2.46,0,0,0,.44-1.39v-1.59h1.15v1.59A3.57,3.57,0,0,1,216.62,183.25Zm-54-5.18h-1.15v-3.42h1.15Zm54.67-1.32h-1.15v-3.42h1.15Zm-54.67-5h-1.15v-3.42h1.15Zm54.67-1.32h-1.15v-3.42h1.15Zm-54.67-5h-1.15v-3.42h1.15Zm54.67-1.32h-1.15v-3.42h1.15Zm-54.67-4.95h-1.15v-3.43h1.15Zm54.67-1.32h-1.15v-3.43h1.15Zm-54.67-5h-1.15v-3.43h1.15Zm54.67-1.32h-1.15v-3.43h1.15Zm-54.67-5h-1.15v-3.43h1.15Zm54.67-1.32h-1.15v-3.43h1.15Zm-54.67-5h-1.15V137h1.15Zm54.67-1.32h-1.15v-3.43h1.15Zm-54.67-5h-1.15v-1.58a3.52,3.52,0,0,1,.65-2.06l.94.66a2.44,2.44,0,0,0-.44,1.4Zm54.67-1.32h-1.15v-.26a2.45,2.45,0,0,0-1.24-2.11l.57-1a3.6,3.6,0,0,1,1.82,3.11Zm-4.89-2.69H209V129h3.42Zm-6.27,0h-3.43V129h3.43Zm-6.28,0H196.4V129h3.43Zm-6.28,0h-3.43V129h3.43Zm-6.28,0h-3.43V129h3.43Zm-6.28,0h-3.43V129H181Zm-6.28,0h-3.42V129h3.42Zm-6.28,0H165V129h3.42Z" fill="#05acff"/><rect x="108.1" y="98.13" width="1.15" height="21.29" fill="#e87474"/><rect x="108.1" y="76.13" width="1.15" height="21.29" fill="#e87474"/><polygon points="108.68 123.07 106.09 117.7 111.27 117.7 108.68 123.07" fill="#e87474"/><rect x="27.91" y="98.13" width="1.15" height="21.29" fill="#e87474"/><polygon points="28.49 123.07 25.9 117.7 31.08 117.7 28.49 123.07" fill="#e87474"/><polygon points="190.16 123.07 187.57 117.7 192.75 117.7 190.16 123.07" fill="#e87474"/><rect x="28.17" y="96.98" width="81.14" height="1.15" fill="#e87474"/><rect x="189.3" y="114.82" width="1.15" height="1.73" fill="#e87474"/><path d="M190.45,105.62H189.3v-3.46h1.15Zm0,6.33H189.3v-3.46h1.15Z" fill="#e87474"/><polygon points="190.45 96.98 188.15 96.98 188.15 98.13 189.3 98.13 189.3 99.28 190.45 99.28 190.45 96.98" fill="#e87474"/><path d="M185.16,98.13h-3.59V97h3.59Zm-6.58,0H175V97h3.59Zm-6.58,0h-3.59V97H172Zm-6.59,0h-3.59V97h3.59Zm-6.58,0h-3.59V97h3.59Zm-6.58,0h-3.59V97h3.59Zm-6.58,0h-3.59V97h3.59Zm-6.58,0H135.5V97h3.59Zm-6.58,0h-3.59V97h3.59Zm-6.58,0h-3.59V97h3.59Zm-6.59,0h-3.59V97h3.59Z" fill="#e87474"/><rect x="111.04" y="96.98" width="1.73" height="1.15" fill="#e87474"/><circle cx="153.05" cy="156.91" r="1.44" fill="#5e6981"/><circle cx="148.44" cy="156.91" r="1.44" fill="#5e6981"/><circle cx="143.84" cy="156.91" r="1.44" fill="#5e6981"/><path d="M13.85,198.79H13L11.59,194c-.07-.21-.15-.48-.23-.8a3.36,3.36,0,0,1-.13-.58,12,12,0,0,1-.35,1.41l-1.39,4.75H8.67l-1.9-7.14h.88l1.12,4.41c.16.62.27,1.18.35,1.68A10.31,10.31,0,0,1,9.51,196l1.28-4.34h.88L13,196a13.58,13.58,0,0,1,.39,1.71,14.66,14.66,0,0,1,.35-1.69l1.13-4.4h.88Z" fill="#fff"/><path d="M21.37,196.11a2.94,2.94,0,0,1-.66,2,2.32,2.32,0,0,1-1.82.74,2.34,2.34,0,0,1-1.27-.34,2.2,2.2,0,0,1-.86-1,3.38,3.38,0,0,1-.3-1.47,2.94,2.94,0,0,1,.65-2,2.31,2.31,0,0,1,1.82-.73,2.26,2.26,0,0,1,1.78.75A2.94,2.94,0,0,1,21.37,196.11Zm-4.08,0a2.5,2.5,0,0,0,.42,1.56,1.41,1.41,0,0,0,1.2.54,1.44,1.44,0,0,0,1.21-.54,3.15,3.15,0,0,0,0-3.11A1.46,1.46,0,0,0,18.9,194a1.42,1.42,0,0,0-1.2.52A2.53,2.53,0,0,0,17.29,196.11Z" fill="#fff"/><path d="M25.23,193.34a3,3,0,0,1,.64.06l-.11.75a2.67,2.67,0,0,0-.58-.07,1.41,1.41,0,0,0-1.12.53,1.94,1.94,0,0,0-.46,1.31v2.87h-.81v-5.35h.67l.09,1h0a2.38,2.38,0,0,1,.72-.81A1.69,1.69,0,0,1,25.23,193.34Z" fill="#fff"/><path d="M27.68,196.05a8.36,8.36,0,0,1,.64-.78L30,193.44h1l-2.17,2.28,2.32,3.07h-1l-1.89-2.53-.61.53v2h-.8v-7.6h.8v4c0,.18,0,.46,0,.83Z" fill="#fff"/><path d="M34.38,198.89a2.46,2.46,0,0,1-1.87-.72,2.81,2.81,0,0,1-.68-2,3.15,3.15,0,0,1,.63-2.06,2.12,2.12,0,0,1,1.71-.76,2,2,0,0,1,1.6.66,2.55,2.55,0,0,1,.58,1.75v.51H32.67a2.08,2.08,0,0,0,.47,1.43,1.64,1.64,0,0,0,1.27.49,4.3,4.3,0,0,0,1.71-.36v.72a4.05,4.05,0,0,1-.81.27A4.88,4.88,0,0,1,34.38,198.89ZM34.17,194a1.32,1.32,0,0,0-1,.42,1.88,1.88,0,0,0-.45,1.16h2.79a1.76,1.76,0,0,0-.34-1.17A1.2,1.2,0,0,0,34.17,194Z" fill="#fff"/><path d="M40.18,193.34a3.16,3.16,0,0,1,.64.06l-.12.75a2.6,2.6,0,0,0-.58-.07,1.38,1.38,0,0,0-1.11.53,1.9,1.9,0,0,0-.47,1.31v2.87h-.81v-5.35h.67l.1,1h0a2.26,2.26,0,0,1,.71-.81A1.69,1.69,0,0,1,40.18,193.34Z" fill="#fff"/><path d="M47.05,198.79h-.8V193.7c0-.42,0-.82,0-1.2a2.49,2.49,0,0,1-.23.22l-1.16.95-.43-.56,1.89-1.46h.69Z" fill="#fff"/><path d="M93.91,198.79h-.82L91.65,194c-.07-.21-.14-.48-.23-.8a4.91,4.91,0,0,1-.13-.58A11.86,11.86,0,0,1,91,194l-1.4,4.75h-.82l-1.9-7.14h.88l1.13,4.41a15.16,15.16,0,0,1,.34,1.68,12.68,12.68,0,0,1,.39-1.75l1.28-4.34h.88L93.07,196a13.51,13.51,0,0,1,.4,1.71,14.66,14.66,0,0,1,.35-1.69l1.12-4.4h.88Z" fill="#fff"/><path d="M101.44,196.11a2.94,2.94,0,0,1-.66,2,2.33,2.33,0,0,1-1.82.74,2.38,2.38,0,0,1-1.28-.34,2.2,2.2,0,0,1-.86-1,3.38,3.38,0,0,1-.3-1.47,3,3,0,0,1,.65-2,2.32,2.32,0,0,1,1.82-.73,2.25,2.25,0,0,1,1.78.75A2.9,2.9,0,0,1,101.44,196.11Zm-4.08,0a2.57,2.57,0,0,0,.41,1.56,1.42,1.42,0,0,0,1.21.54,1.41,1.41,0,0,0,1.2-.54,3.09,3.09,0,0,0,0-3.11,1.66,1.66,0,0,0-2.42,0A2.53,2.53,0,0,0,97.36,196.11Z" fill="#fff"/><path d="M105.3,193.34a3.1,3.1,0,0,1,.64.06l-.11.75a2.75,2.75,0,0,0-.59-.07,1.41,1.41,0,0,0-1.11.53,1.89,1.89,0,0,0-.46,1.31v2.87h-.81v-5.35h.67l.09,1h0a2.38,2.38,0,0,1,.72-.81A1.66,1.66,0,0,1,105.3,193.34Z" fill="#fff"/><path d="M107.74,196.05a8.36,8.36,0,0,1,.64-.78l1.73-1.83h1l-2.17,2.28,2.32,3.07h-1l-1.89-2.53-.61.53v2h-.8v-7.6h.8v4c0,.18,0,.46,0,.83Z" fill="#fff"/><path d="M114.45,198.89a2.45,2.45,0,0,1-1.87-.72,2.82,2.82,0,0,1-.69-2,3.1,3.1,0,0,1,.64-2.06,2.09,2.09,0,0,1,1.71-.76,2,2,0,0,1,1.59.66,2.56,2.56,0,0,1,.59,1.75v.51h-3.69a2.13,2.13,0,0,0,.48,1.43,1.62,1.62,0,0,0,1.27.49,4.38,4.38,0,0,0,1.71-.36v.72a4.35,4.35,0,0,1-.82.27A4.77,4.77,0,0,1,114.45,198.89Zm-.22-4.87a1.33,1.33,0,0,0-1,.42,2,2,0,0,0-.45,1.16h2.8a1.81,1.81,0,0,0-.34-1.17A1.22,1.22,0,0,0,114.23,194Z" fill="#fff"/><path d="M120.24,193.34a3.1,3.1,0,0,1,.64.06l-.11.75a2.68,2.68,0,0,0-.59-.07,1.41,1.41,0,0,0-1.11.53,1.89,1.89,0,0,0-.46,1.31v2.87h-.81v-5.35h.67l.09,1h0a2.38,2.38,0,0,1,.72-.81A1.69,1.69,0,0,1,120.24,193.34Z" fill="#fff"/><path d="M128.8,198.79h-4.69v-.7L126,196.2a13.5,13.5,0,0,0,1.13-1.24,3.35,3.35,0,0,0,.41-.72,2.14,2.14,0,0,0,.14-.76,1.19,1.19,0,0,0-.35-.9,1.3,1.3,0,0,0-1-.34,2.32,2.32,0,0,0-.84.15,3.34,3.34,0,0,0-.89.53l-.43-.55a3.27,3.27,0,0,1,2.15-.82,2.31,2.31,0,0,1,1.58.51,1.79,1.79,0,0,1,.57,1.39,2.7,2.7,0,0,1-.38,1.34,8.85,8.85,0,0,1-1.43,1.68L125.13,198v0h3.67Z" fill="#fff"/><path d="M174.91,198.79h-.82L172.65,194c-.07-.21-.14-.48-.23-.8a4.91,4.91,0,0,1-.13-.58A11.86,11.86,0,0,1,172,194l-1.4,4.75h-.82l-1.9-7.14h.88l1.13,4.41a15.16,15.16,0,0,1,.34,1.68,12.68,12.68,0,0,1,.39-1.75l1.28-4.34h.88l1.34,4.38a13.51,13.51,0,0,1,.4,1.71,14.66,14.66,0,0,1,.35-1.69l1.12-4.4h.88Z" fill="#fff"/><path d="M182.44,196.11a2.94,2.94,0,0,1-.66,2,2.33,2.33,0,0,1-1.82.74,2.38,2.38,0,0,1-1.28-.34,2.2,2.2,0,0,1-.86-1,3.38,3.38,0,0,1-.3-1.47,3,3,0,0,1,.65-2,2.32,2.32,0,0,1,1.82-.73,2.25,2.25,0,0,1,1.78.75A2.9,2.9,0,0,1,182.44,196.11Zm-4.08,0a2.57,2.57,0,0,0,.41,1.56,1.42,1.42,0,0,0,1.21.54,1.41,1.41,0,0,0,1.2-.54,3.09,3.09,0,0,0,0-3.11,1.66,1.66,0,0,0-2.42,0A2.53,2.53,0,0,0,178.36,196.11Z" fill="#fff"/><path d="M186.3,193.34a3.1,3.1,0,0,1,.64.06l-.11.75a2.75,2.75,0,0,0-.59-.07,1.41,1.41,0,0,0-1.11.53,1.89,1.89,0,0,0-.46,1.31v2.87h-.81v-5.35h.67l.09,1h0a2.38,2.38,0,0,1,.72-.81A1.66,1.66,0,0,1,186.3,193.34Z" fill="#fff"/><path d="M188.74,196.05a8.36,8.36,0,0,1,.64-.78l1.73-1.83h1l-2.17,2.28,2.32,3.07h-1l-1.89-2.53-.61.53v2h-.8v-7.6h.8v4c0,.18,0,.46,0,.83Z" fill="#fff"/><path d="M195.45,198.89a2.45,2.45,0,0,1-1.87-.72,2.82,2.82,0,0,1-.69-2,3.1,3.1,0,0,1,.64-2.06,2.09,2.09,0,0,1,1.71-.76,2,2,0,0,1,1.59.66,2.56,2.56,0,0,1,.59,1.75v.51h-3.69a2.13,2.13,0,0,0,.48,1.43,1.62,1.62,0,0,0,1.27.49,4.38,4.38,0,0,0,1.71-.36v.72a4.35,4.35,0,0,1-.82.27A4.77,4.77,0,0,1,195.45,198.89Zm-.22-4.87a1.33,1.33,0,0,0-1,.42,2,2,0,0,0-.45,1.16h2.8a1.81,1.81,0,0,0-.34-1.17A1.22,1.22,0,0,0,195.23,194Z" fill="#fff"/><path d="M201.24,193.34a3.1,3.1,0,0,1,.64.06l-.11.75a2.68,2.68,0,0,0-.59-.07,1.41,1.41,0,0,0-1.11.53,1.89,1.89,0,0,0-.46,1.31v2.87h-.81v-5.35h.67l.09,1h0a2.38,2.38,0,0,1,.72-.81A1.69,1.69,0,0,1,201.24,193.34Z" fill="#fff"/><path d="M211.18,198.79h-1l-3.9-6h0c.05.7.08,1.35.08,1.93v4.06h-.77v-7.14h.94l3.89,6h0c0-.09,0-.37-.05-.85s0-.82,0-1v-4.1h.78Z" fill="#fff"/><rect x="80.88" y="0.58" width="54.67" height="54.67" rx="3" fill="#d65d5d"/><path d="M132.54,55.82H83.88a3.59,3.59,0,0,1-3.58-3.58V3.58A3.59,3.59,0,0,1,83.88,0h48.66a3.58,3.58,0,0,1,3.58,3.58V52.24A3.58,3.58,0,0,1,132.54,55.82ZM83.88,1.15a2.43,2.43,0,0,0-2.43,2.43V52.24a2.43,2.43,0,0,0,2.43,2.43h48.66A2.43,2.43,0,0,0,135,52.24V3.58a2.43,2.43,0,0,0-2.43-2.43Z" fill="#e87474"/><path d="M96.06,68.79l-2.42-6.33h0c.05.5.07,1.1.07,1.79v4.54H92.9V61.65h1.25l2.27,5.89h0l2.28-5.89H100v7.14h-.83v-4.6c0-.53,0-1.1.07-1.72h0l-2.44,6.32Z" fill="#fff"/><path d="M105.1,68.79l-.16-.76h0a2.31,2.31,0,0,1-.8.68,2.37,2.37,0,0,1-1,.18,1.81,1.81,0,0,1-1.25-.41,1.51,1.51,0,0,1-.45-1.17c0-1.08.86-1.65,2.59-1.7l.91,0v-.33a1.36,1.36,0,0,0-.27-.93,1.12,1.12,0,0,0-.87-.3,3.58,3.58,0,0,0-1.51.41l-.25-.62a3.84,3.84,0,0,1,1.81-.46,2,2,0,0,1,1.42.43,1.75,1.75,0,0,1,.46,1.36v3.65Zm-1.83-.57a1.63,1.63,0,0,0,1.19-.42,1.51,1.51,0,0,0,.43-1.16v-.48l-.81,0a3,3,0,0,0-1.39.3.91.91,0,0,0-.43.83.83.83,0,0,0,.27.67A1.09,1.09,0,0,0,103.27,68.22Z" fill="#fff"/><path d="M110.82,67.33a1.33,1.33,0,0,1-.55,1.15,2.61,2.61,0,0,1-1.56.41,3.38,3.38,0,0,1-1.67-.34V67.8a4.57,4.57,0,0,0,.83.31,3.74,3.74,0,0,0,.85.11,2,2,0,0,0,1-.2.71.71,0,0,0,.07-1.16,4.44,4.44,0,0,0-1.06-.52,6.12,6.12,0,0,1-1.06-.49,1.5,1.5,0,0,1-.47-.47,1.22,1.22,0,0,1-.15-.63,1.21,1.21,0,0,1,.53-1,2.5,2.5,0,0,1,1.46-.38,4.34,4.34,0,0,1,1.69.35l-.29.66A3.85,3.85,0,0,0,109,64a1.71,1.71,0,0,0-.87.18.57.57,0,0,0-.29.5.61.61,0,0,0,.11.36,1,1,0,0,0,.36.29,7.2,7.2,0,0,0,.93.4,3.36,3.36,0,0,1,1.29.7A1.23,1.23,0,0,1,110.82,67.33Z" fill="#fff"/><path d="M113.87,68.22a3,3,0,0,0,.42,0l.31-.07v.62a1.45,1.45,0,0,1-.39.11,4.09,4.09,0,0,1-.46,0c-1,0-1.55-.55-1.55-1.64V64.07h-.77v-.39l.77-.34.34-1.14H113v1.24h1.55v.63H113v3.15a1.09,1.09,0,0,0,.23.74A.8.8,0,0,0,113.87,68.22Z" fill="#fff"/><path d="M117.93,68.89a2.46,2.46,0,0,1-1.87-.72,2.81,2.81,0,0,1-.68-2A3.15,3.15,0,0,1,116,64.1a2.12,2.12,0,0,1,1.71-.76,2.05,2.05,0,0,1,1.6.66,2.55,2.55,0,0,1,.58,1.75v.51h-3.69a2.13,2.13,0,0,0,.48,1.43,1.64,1.64,0,0,0,1.27.49,4.3,4.3,0,0,0,1.71-.36v.72a4.27,4.27,0,0,1-.81.27A5,5,0,0,1,117.93,68.89ZM117.71,64a1.3,1.3,0,0,0-1,.42,2,2,0,0,0-.46,1.16H119a1.76,1.76,0,0,0-.34-1.17A1.21,1.21,0,0,0,117.71,64Z" fill="#fff"/><path d="M123.72,63.34a3,3,0,0,1,.64.06l-.11.75a2.67,2.67,0,0,0-.58-.07,1.41,1.41,0,0,0-1.12.53,1.94,1.94,0,0,0-.46,1.31v2.87h-.81V63.44H122l.09,1h0a2.38,2.38,0,0,1,.72-.81A1.69,1.69,0,0,1,123.72,63.34Z" fill="#fff"/><path d="M28.78,93.13a1.57,1.57,0,0,1-.72-.13v-.71a2.46,2.46,0,0,0,.72.1.91.91,0,0,0,.73-.29,1.27,1.27,0,0,0,.25-.85V84.11h.83v7.07a2.06,2.06,0,0,1-.46,1.44A1.76,1.76,0,0,1,28.78,93.13Z" fill="#d65d5d"/><path d="M37,88.57a2.94,2.94,0,0,1-.66,2,2.33,2.33,0,0,1-1.82.74A2.38,2.38,0,0,1,33.23,91a2.2,2.2,0,0,1-.86-1,3.38,3.38,0,0,1-.3-1.47,3,3,0,0,1,.65-2,2.32,2.32,0,0,1,1.82-.73,2.25,2.25,0,0,1,1.78.75A2.9,2.9,0,0,1,37,88.57Zm-4.08,0a2.57,2.57,0,0,0,.41,1.56,1.62,1.62,0,0,0,2.41,0,2.51,2.51,0,0,0,.42-1.57A2.45,2.45,0,0,0,35.73,87a1.66,1.66,0,0,0-2.42,0A2.53,2.53,0,0,0,32.91,88.57Z" fill="#d65d5d"/><path d="M40.9,85.81a2,2,0,0,1,1.64.72,3.87,3.87,0,0,1,0,4.09,2,2,0,0,1-1.63.73,2.49,2.49,0,0,1-1-.19,1.8,1.8,0,0,1-.72-.6h-.06l-.17.69h-.58v-7.6h.81V85.5c0,.41,0,.78,0,1.11h0A1.94,1.94,0,0,1,40.9,85.81Zm-.12.68a1.43,1.43,0,0,0-1.2.48,3.71,3.71,0,0,0,0,3.21,1.43,1.43,0,0,0,1.21.49,1.24,1.24,0,0,0,1.11-.54,2.78,2.78,0,0,0,.37-1.57A2.64,2.64,0,0,0,41.91,87,1.29,1.29,0,0,0,40.78,86.49Z" fill="#d65d5d"/><path d="M51.23,91.25h-4V84.11h4v.74H48.08v2.3h3v.73h-3v2.63h3.15Z" fill="#d65d5d"/><path d="M54,88.51,52.12,85.9h.93l1.41,2,1.4-2h.92l-1.86,2.61,1.95,2.74H56l-1.5-2.17-1.52,2.17H52Z" fill="#d65d5d"/><path d="M60.19,91.35a2.46,2.46,0,0,1-1.87-.72,2.8,2.8,0,0,1-.68-2,3.15,3.15,0,0,1,.63-2.06A2.15,2.15,0,0,1,60,85.8a2,2,0,0,1,1.6.66,2.55,2.55,0,0,1,.58,1.75v.51H58.48A2.08,2.08,0,0,0,59,90.15a1.64,1.64,0,0,0,1.27.49,4.3,4.3,0,0,0,1.71-.36V91a4.05,4.05,0,0,1-.81.27A4.88,4.88,0,0,1,60.19,91.35ZM60,86.48a1.3,1.3,0,0,0-1,.42,1.88,1.88,0,0,0-.45,1.16h2.79A1.76,1.76,0,0,0,61,86.89,1.21,1.21,0,0,0,60,86.48Z" fill="#d65d5d"/><path d="M65.68,91.35a2.29,2.29,0,0,1-1.8-.72,3,3,0,0,1-.63-2,3,3,0,0,1,.64-2.08,2.37,2.37,0,0,1,1.85-.73,4.11,4.11,0,0,1,.77.08,2.46,2.46,0,0,1,.6.2l-.25.69a4,4,0,0,0-.58-.18,2.44,2.44,0,0,0-.56-.07c-1.09,0-1.63.69-1.63,2.08a2.49,2.49,0,0,0,.39,1.51,1.4,1.4,0,0,0,1.18.53A3.68,3.68,0,0,0,67,90.35v.72A2.89,2.89,0,0,1,65.68,91.35Z" fill="#d65d5d"/><path d="M69.07,85.9v3.47a1.45,1.45,0,0,0,.29,1,1.24,1.24,0,0,0,.94.32,1.52,1.52,0,0,0,1.23-.46,2.35,2.35,0,0,0,.38-1.5V85.9h.81v5.35h-.67l-.11-.72h0a1.52,1.52,0,0,1-.69.61,2.31,2.31,0,0,1-1,.21,2,2,0,0,1-1.46-.47,2,2,0,0,1-.48-1.48V85.9Z" fill="#d65d5d"/><path d="M76.17,90.68a3,3,0,0,0,.42,0l.31-.07v.62a1.45,1.45,0,0,1-.39.11,4.09,4.09,0,0,1-.46,0c-1,0-1.55-.55-1.55-1.64V86.53h-.77v-.39l.77-.34.34-1.14h.47V85.9h1.55v.63H75.31v3.15a1.09,1.09,0,0,0,.23.74A.8.8,0,0,0,76.17,90.68Z" fill="#d65d5d"/><path d="M77.9,84.45A.55.55,0,0,1,78,84a.51.51,0,0,1,.34-.13.53.53,0,0,1,.34.13.67.67,0,0,1,0,.82.48.48,0,0,1-.34.13.47.47,0,0,1-.34-.13A.56.56,0,0,1,77.9,84.45Zm.88,6.8H78V85.9h.81Z" fill="#d65d5d"/><path d="M85.12,88.57a2.94,2.94,0,0,1-.66,2,2.32,2.32,0,0,1-1.82.74A2.34,2.34,0,0,1,81.37,91a2.2,2.2,0,0,1-.86-1,3.25,3.25,0,0,1-.31-1.47,2.94,2.94,0,0,1,.66-2,2.56,2.56,0,0,1,3.6,0A2.94,2.94,0,0,1,85.12,88.57Zm-4.08,0a2.57,2.57,0,0,0,.41,1.56,1.44,1.44,0,0,0,1.21.54,1.46,1.46,0,0,0,1.21-.53,2.58,2.58,0,0,0,.41-1.57A2.51,2.51,0,0,0,83.87,87a1.46,1.46,0,0,0-1.22-.53,1.42,1.42,0,0,0-1.2.52A2.53,2.53,0,0,0,81,88.57Z" fill="#d65d5d"/><path d="M90.2,91.25V87.79a1.45,1.45,0,0,0-.29-1,1.24,1.24,0,0,0-.94-.32,1.54,1.54,0,0,0-1.23.45,2.32,2.32,0,0,0-.39,1.5v2.81h-.81V85.9h.66l.13.73h0a1.67,1.67,0,0,1,.7-.61,2.19,2.19,0,0,1,1-.22,2,2,0,0,1,1.46.47A2,2,0,0,1,91,87.76v3.49Z" fill="#d65d5d"/><path d="M104.09,28.38a4.29,4.29,0,0,1-1.18,3.24,4.73,4.73,0,0,1-3.39,1.12h-2.4V24.17h2.65A4.37,4.37,0,0,1,103,25.28,4.09,4.09,0,0,1,104.09,28.38Zm-1.48,0c0-2.05-1-3.07-2.88-3.07H98.52v6.21h1C101.58,31.56,102.61,30.52,102.61,28.42Z" fill="#fff"/><path d="M111.24,32.74l-.85-2.38h-3.28l-.84,2.38H104.8l3.2-8.6h1.52l3.21,8.6ZM110,29.15l-.81-2.33c0-.15-.14-.4-.24-.74s-.17-.58-.21-.73a12.77,12.77,0,0,1-.47,1.57l-.77,2.23Z" fill="#fff"/><path d="M118.8,30.41a2.17,2.17,0,0,1-.83,1.8,3.62,3.62,0,0,1-2.28.65,5.41,5.41,0,0,1-2.37-.45V31.08a6.28,6.28,0,0,0,1.24.44,5.57,5.57,0,0,0,1.23.15,2,2,0,0,0,1.23-.31,1,1,0,0,0,.39-.85,1.09,1.09,0,0,0-.36-.82,5.63,5.63,0,0,0-1.5-.79,3.87,3.87,0,0,1-1.65-1.08,2.32,2.32,0,0,1-.49-1.47,2,2,0,0,1,.77-1.68,3.14,3.14,0,0,1,2-.62,6,6,0,0,1,2.45.54l-.44,1.14a5.43,5.43,0,0,0-2-.48,1.53,1.53,0,0,0-1,.3,1,1,0,0,0-.36.78,1.15,1.15,0,0,0,.14.57,1.46,1.46,0,0,0,.47.45,7.46,7.46,0,0,0,1.16.56,6,6,0,0,1,1.38.73,2.1,2.1,0,0,1,.64.77A2.23,2.23,0,0,1,118.8,30.41Z" fill="#fff"/><path d="M33.28,166.56a2,2,0,0,1-1-.24,16.68,16.68,0,0,0-2.07-.33c-.83-.1-2.13-.26-2.42-.35a1,1,0,0,1-.72-.8,1.37,1.37,0,0,1,.37-1.07,21.72,21.72,0,0,0-6.15-1.28c-.26,0-.51,0-.73,0a1.94,1.94,0,0,1-.14.45,5.22,5.22,0,0,1-3.22,2.19,6.89,6.89,0,0,1-1.54.19,7.92,7.92,0,0,1-1.57-.18c-1.94-.39-6.93-3-8-4.11a1.54,1.54,0,0,1-.4-1.14,1,1,0,0,1,.45-1l.12-.36a.53.53,0,0,1,0-.13c0-1.11,1.43-2.73,2.92-3.85a27,27,0,0,1,15.16-5,4.06,4.06,0,0,0,2.29-.4,17.37,17.37,0,0,1,2.31-1c.77-.28,1.78-.68,2.21-.89a3.37,3.37,0,0,1,1.48-.45h.11c.83.05,1.36.71,1.91,1.51a2.69,2.69,0,0,0,.86.66c.86.39,1.87,1.09,1.94,1.82a3.8,3.8,0,0,1,.2,1.09,1.73,1.73,0,0,0,.4,1.23,3.89,3.89,0,0,0,2.39.89,2.1,2.1,0,0,0,.59-.08,24.8,24.8,0,0,1,6.18-2.78h0a1.26,1.26,0,0,1,1,.39c.5.53.53,1.55.4,3.36a37.18,37.18,0,0,0,0,5.7l0,.69c.06,1,.08,1.8.06,2.41,0,1-.06,1.44-.29,1.72a1.1,1.1,0,0,1-.81.47h0a1.14,1.14,0,0,1-.63-.23,10.75,10.75,0,0,1-1.21-1.58c-1.27-1.92-1.63-2.17-2.88-2.6l-1.11-.39A14.09,14.09,0,0,0,37,162c0,.32-.34.56-.64.78-1.16.85-1.26,1.16-1.26,1.83a1.92,1.92,0,0,1-.57,1.6,1,1,0,0,1-.19.12,1.64,1.64,0,0,1-.94.24Z" fill="#fff"/><path d="M32.65,147.44h0c.55,0,.94.38,1.56,1.27a3,3,0,0,0,1.08.85c.92.42,1.62,1,1.62,1.4v0c.36.79,0,1.85.77,2.6a4.43,4.43,0,0,0,2.77,1,2.59,2.59,0,0,0,.84-.13v0h0a25.11,25.11,0,0,1,5.94-2.75h0c.87,0,1,.64.86,3.16a38.12,38.12,0,0,0,0,5.76l0,.71c.06,1,.08,1.75.06,2.35a2.94,2.94,0,0,1-.16,1.38c-.16.19-.27.28-.39.28a.61.61,0,0,1-.31-.13,10.33,10.33,0,0,1-1.07-1.44c-1.28-1.92-1.73-2.32-3.16-2.81l-1.29-.46h0l.09,0a12.91,12.91,0,0,0-6,1.32h0a1.51,1.51,0,0,1,.41-.06h0c.31,0,.27.09-.22.45-1.18.87-1.48,1.33-1.48,2.27,0,.62-.11,1-.35,1.16l-.16.09h0a1.15,1.15,0,0,1-.63.15h-.11a1.47,1.47,0,0,1-.72-.16,12.63,12.63,0,0,0-2.28-.4c-1.09-.12-2.14-.27-2.33-.33-.5-.14-.42-.8.16-1.18a1.59,1.59,0,0,1,.86-.19h.09a25.69,25.69,0,0,0-7.76-1.79,5.35,5.35,0,0,0-1.35.15h0c.1,0,.13.32,0,.67a4.69,4.69,0,0,1-2.82,1.87,6.72,6.72,0,0,1-1.43.18,7.89,7.89,0,0,1-1.46-.17c-1.8-.36-6.72-2.88-7.68-3.94a1,1,0,0,1-.26-.74c0-.32.06-.53.28-.61l0,0,.23,0a1.52,1.52,0,0,0-.21,0,5.41,5.41,0,0,0,.25-.72.41.41,0,0,0,.18.23,1,1,0,0,0,.39.14,1,1,0,0,1-.38-.14c-.74-.46.44-2.26,2.48-3.79a26.46,26.46,0,0,1,14.84-4.87,4.52,4.52,0,0,0,2.55-.47,17.08,17.08,0,0,1,2.23-.95c.79-.29,1.81-.7,2.26-.92a3,3,0,0,1,1.24-.38m4.19,3.71h0a.87.87,0,0,1-.28-.19,4.3,4.3,0,0,0-1.32-.57,3.72,3.72,0,0,1-1.73-1l-.76-.78h0l.75.78a3.67,3.67,0,0,0,1.73,1,4.3,4.3,0,0,1,1.32.57c.15.13.24.19.28.19M35,152.62l-.2-.06a24.25,24.25,0,0,0-6.61-1.13,24.32,24.32,0,0,1,6.61,1.13l.2.06m-.86-.89h0m2.45,1.07a22.63,22.63,0,0,0-2.42-1.06,22.63,22.63,0,0,1,2.42,1.06m5.1,1.9c-.24,0-.37,0-.37-.14h0c0,.09.12.14.37.14a16.6,16.6,0,0,0,3.07-.56,9.81,9.81,0,0,1,1.63-.27.31.31,0,0,1,.13,0c.08,0,.12.38.12.92,0-.55,0-.88-.12-.93a.31.31,0,0,0-.13,0,9.09,9.09,0,0,0-1.63.28,17,17,0,0,1-3.07.55m5.56,7.87a15.42,15.42,0,0,0-.39-2.7,11.26,11.26,0,0,1-.3-2.79,11.29,11.29,0,0,0,.3,2.8,15.09,15.09,0,0,1,.39,2.69m-11.79-.46h0m-15.58,0v0h0v0m15.2.23-.05,0,.05,0,.07,0-.07,0m-15.5.13,0,.05,0-.05m15.13.17-.09.08.09-.08.06-.06-.06.06m-15.38.06-.05,0,.05,0,0,0,0,0M19,163l-.07,0,.07,0,.09-.07L19,163m15.31.1-.06.08.06-.08.11-.12-.11.12m-17,.65a3.28,3.28,0,0,0,1.26-.49l.29-.19-.3.19a3.34,3.34,0,0,1-1.25.49M34,163.47l-.06.11.06-.11.09-.14-.09.14m-16.75.23-.17,0h0l.17,0m16.51.25a.42.42,0,0,0,0,.1.42.42,0,0,1,0-.1.71.71,0,0,1,.08-.18.71.71,0,0,0-.08.18m-3.9-.13h0m1.07.27-.14-.05.14.05m2.67.44v0a2,2,0,0,1,.06-.32,2,2,0,0,0-.06.32m-1.61-.09.06,0-.06,0-.16-.06.16.06m1.6.26a.71.71,0,0,1,0,.15h0a.71.71,0,0,0,0-.15m0,.2v0a.08.08,0,0,1,0,0,.08.08,0,0,0,0,0v0m-.85-18.57a4.06,4.06,0,0,0-1.72.5c-.41.2-1.4.6-2.15.87a18,18,0,0,0-2.41,1c-.4.23-.68.31-2,.33a27.49,27.49,0,0,0-15.49,5.09c-1.56,1.17-3.21,2.91-3.14,4.32v.05l0,.06A1.61,1.61,0,0,0,5.16,160a2.13,2.13,0,0,0,.56,1.44c1.2,1.32,6.38,3.9,8.27,4.28a8.34,8.34,0,0,0,1.68.19,7.89,7.89,0,0,0,1.66-.2,5.68,5.68,0,0,0,3.6-2.5,1.11,1.11,0,0,1,.07-.16h.3a19.37,19.37,0,0,1,5.32,1.05,1.82,1.82,0,0,0-.09.83,1.53,1.53,0,0,0,1.12,1.25c.45.13,2.49.36,2.51.37a15.7,15.7,0,0,1,1.94.31,2.69,2.69,0,0,0,1.18.26h.08a2.34,2.34,0,0,0,1.22-.31,2.15,2.15,0,0,0,.29-.18,2.44,2.44,0,0,0,.77-2c0-.45,0-.62,1-1.39a2.35,2.35,0,0,0,.76-.8,13.86,13.86,0,0,1,4.26-.68l1,.36c1.15.39,1.42.59,2.62,2.38,1,1.47,1.24,1.65,1.35,1.73a1.48,1.48,0,0,0,2.17-.34,3.16,3.16,0,0,0,.43-2.09c0-.59,0-1.39-.07-2.42l0-.71a36,36,0,0,1,0-5.61c.14-2,.1-3.09-.54-3.78a1.85,1.85,0,0,0-1.42-.57,1.06,1.06,0,0,0-.4.08,27.68,27.68,0,0,0-6,2.75,2.11,2.11,0,0,1-.38,0,3.37,3.37,0,0,1-2-.74c-.15-.15-.19-.37-.23-.87a4.36,4.36,0,0,0-.22-1.18c-.17-1.17-1.74-2-2.24-2.19a2.14,2.14,0,0,1-.64-.48,3.22,3.22,0,0,0-2.3-1.73l-.17,0Z" fill="#fff"/><path d="M32.75,148.57l-.71.56-1.18.87c-.27.16-.45.37-.42.47a6.22,6.22,0,0,0,1.82.65c1.62.43,4.79,1.77,4.61,2a14.61,14.61,0,0,1-2.12-.52,25.53,25.53,0,0,0-9.5-1.12,20.76,20.76,0,0,0-5.56.59,22.54,22.54,0,0,0-9.9,5.39,12.6,12.6,0,0,1-1.65,1.48,1.31,1.31,0,0,1-1.1-.08.41.41,0,0,1-.18-.23,5.41,5.41,0,0,1-.25.72,1.55,1.55,0,0,1,.31,0,2.31,2.31,0,0,1,.87.15l.87.64c3.65,2.7,5.62,3.64,7.66,3.67a3.31,3.31,0,0,0,2.22-.52,5.51,5.51,0,0,0,1.07-.81.35.35,0,0,0,.05-.08c.12-.21.23-.27.29-.23,1.65-.42,4.55,0,9.11,1.64a13.22,13.22,0,0,1,4.14,1.2c.27.12.35,0,.35-.29A3.45,3.45,0,0,1,35.81,162h0a12.91,12.91,0,0,1,6-1.32l-.09,0,.88-.07a4,4,0,0,1,3.41,1.58,4.28,4.28,0,0,0,1,1c.27,0,.19-1.22-.23-3.19a12,12,0,0,1-.26-3.86,5.18,5.18,0,0,0-.08-2.12,5.87,5.87,0,0,0-1.76.25c-2.36.56-3.44.69-3.44.42a.09.09,0,0,1,0-.06,4.13,4.13,0,0,1-3.61-.91c-.79-.76-.4-1.84-.78-2.63,0,.25,0,.24-.35,0a4.3,4.3,0,0,0-1.32-.57,3.67,3.67,0,0,1-1.73-1Z" fill="#f2f2f2"/><path d="M22.59,158.06l-.25-3.36c-.07-.42,0-.75.06-.75s.71,1.08,1,2a2.37,2.37,0,0,0,.44.85c.27.31.27.38,0,.7a1.89,1.89,0,0,0-.33,1c0,.83-.35,2.16-.57,2.16a10.89,10.89,0,0,1-.29-2.62Zm2.56,1.6c0-.14-.13-1.4-.19-2.8-.08-2.14-.06-2.5.17-2.31a1.91,1.91,0,0,1,.41.86,3.82,3.82,0,0,0,.43,1.1.8.8,0,0,1,.09.89,6,6,0,0,0-.33,1.35c-.12.93-.43,1.41-.58.91Zm2.41-2.58v-2.52c.13-.15.44.42.69,1.28a2.43,2.43,0,0,0,.43.92c.1.07.11.28,0,.49a10.25,10.25,0,0,0-.38,1.24c-.39,1.65-.65,1.18-.75-1.41Zm2.61,1.08A19.8,19.8,0,0,0,30,156a2.42,2.42,0,0,1,0-1.14c.21-.13.53.33.69,1a1.89,1.89,0,0,0,.56.93l.42.34-.45.31a1.11,1.11,0,0,0-.44.79c0,.59-.2,1.09-.42,1.09s-.18-.51-.19-1.14Zm2.38-.48a15.75,15.75,0,0,0-.12-2c-.18-1,.17-.81.81.53.42.87.45,1.06.22,1.32a1.78,1.78,0,0,0-.34.79.75.75,0,0,1-.32.56c-.18,0-.24-.26-.24-1.18Zm2.18-.8c0-1.66,0-1.79.32-1.51a3.23,3.23,0,0,1,.29,2.62c-.4,1.19-.61.81-.61-1.11Zm2.07.34c-.37-.29-.36-.3.21-.25.33,0,.58.14.56.25C37.51,157.54,37.21,157.54,36.8,157.22Z" fill="#febc5b"/><path d="M32.65,147.44a3,3,0,0,0-1.24.38c-.45.22-1.47.63-2.26.92a17.08,17.08,0,0,0-2.23.95,4.52,4.52,0,0,1-2.55.47A26.46,26.46,0,0,0,9.53,155c-2,1.53-3.22,3.33-2.48,3.79a1.27,1.27,0,0,0,1.1.08,12.6,12.6,0,0,0,1.65-1.48A22.49,22.49,0,0,1,19.7,152a20.65,20.65,0,0,1,5.56-.59,25.45,25.45,0,0,1,9.49,1.12,13.48,13.48,0,0,0,2.12.52c.18-.18-3-1.53-4.6-2a6.22,6.22,0,0,1-1.82-.65c0-.1.15-.31.41-.47s.8-.56,1.19-.87l.71-.56.76.78a3.72,3.72,0,0,0,1.73,1,4.3,4.3,0,0,1,1.32.57c.3.26.35.26.35,0s-.7-1-1.62-1.4a3,3,0,0,1-1.08-.85c-.62-.89-1-1.27-1.56-1.27Zm14.58,4.34c-.7,0-6,2.45-6,2.78s1.08.15,3.44-.41a5.69,5.69,0,0,1,1.76-.26,5.2,5.2,0,0,1,.08,2.12,12,12,0,0,0,.26,3.86c.42,2,.5,3.19.23,3.19a4.28,4.28,0,0,1-1-1,4,4,0,0,0-3.41-1.57l-.88.06,1.31.46c1.43.49,1.88.89,3.16,2.81a10.33,10.33,0,0,0,1.07,1.44c.3.21.42.18.7-.15a2.94,2.94,0,0,0,.16-1.38c0-.6,0-1.38-.06-2.35l0-.71a38.12,38.12,0,0,1,0-5.76c.18-2.52,0-3.16-.86-3.16Zm-32.12,3.78a1.72,1.72,0,0,0-1.46.85c-.34.52-.22,1,.47,1.77.42.48,1.36.3,2-.38s.55-.8.05-1.62a1.24,1.24,0,0,0-1-.62Zm-.6,1a1,1,0,0,1,.79.54c.12.35-.74.29-.88-.07a.48.48,0,0,1,0-.43.12.12,0,0,1,.08,0Zm-7.59,2.73a1.86,1.86,0,0,0-.33,0l0,0c-.22.08-.32.29-.28.61a1,1,0,0,0,.26.74c1,1.06,5.88,3.58,7.68,3.94a6,6,0,0,0,2.89,0,4.69,4.69,0,0,0,2.82-1.87c.26-.57,0-1-.26-.44a4,4,0,0,1-1.11.89,3.4,3.4,0,0,1-2.22.52c-2,0-4-1-7.66-3.67l-.87-.64a2.18,2.18,0,0,0-.88-.15Zm29.32,2.61a3.33,3.33,0,0,0-2.69,2.76c0,.34-.08.41-.35.29q-4-1.69-5.09-1c-.58.38-.66,1-.16,1.18.19.06,1.24.21,2.33.33a12.63,12.63,0,0,1,2.28.4,1.53,1.53,0,0,0,.79.16h0a1.15,1.15,0,0,0,.63-.15h0l.16-.09c.24-.18.35-.54.35-1.16,0-.94.3-1.4,1.48-2.27.49-.36.53-.44.22-.45Z"/><path d="M15.34,162.8l-.69-.2,1.23-.24c1.63-.31,2-.69,2-1.91,0-1,.21-1.21.69-.52a1.92,1.92,0,0,1-1,2.84,2.84,2.84,0,0,1-2.26,0Zm27.21-4.25a2.71,2.71,0,0,0-.18-1.54c-.38-.92-.38-.89.07-.89s1.45,1.13,1.3,1.66a2.89,2.89,0,0,1-1.07,1.47C42.48,159.32,42.45,159.15,42.55,158.55Zm-7.12-4.83c-3.91-1.26-10.83-1.3-15.5-.08-.95.25-1.17.25-1.4,0-.39-.39.32-.8,2.27-1.31,3.8-.73,13.1-1,16.31,1.68,0,.18-.4.1-1.68-.31Z" fill="#71a0fe"/><path d="M114.28,166.56a2,2,0,0,1-1-.24,16.68,16.68,0,0,0-2.07-.33c-.83-.1-2.13-.26-2.42-.35a1,1,0,0,1-.72-.8,1.37,1.37,0,0,1,.37-1.07,21.72,21.72,0,0,0-6.15-1.28c-.26,0-.51,0-.73,0a1.94,1.94,0,0,1-.14.45,5.22,5.22,0,0,1-3.22,2.19,6.89,6.89,0,0,1-1.54.19,7.92,7.92,0,0,1-1.57-.18c-1.94-.39-6.93-3-8-4.11a1.54,1.54,0,0,1-.4-1.14,1,1,0,0,1,.45-1l.12-.36a.53.53,0,0,1,0-.13c0-1.11,1.43-2.73,2.92-3.85a27,27,0,0,1,15.16-5,4.06,4.06,0,0,0,2.29-.4,17.37,17.37,0,0,1,2.31-1c.77-.28,1.78-.68,2.21-.89a3.37,3.37,0,0,1,1.48-.45h.11c.83.05,1.36.71,1.91,1.51a2.69,2.69,0,0,0,.86.66c.86.39,1.87,1.09,1.94,1.82a3.8,3.8,0,0,1,.2,1.09,1.73,1.73,0,0,0,.4,1.23,3.89,3.89,0,0,0,2.39.89,2.1,2.1,0,0,0,.59-.08,24.8,24.8,0,0,1,6.18-2.78h0a1.26,1.26,0,0,1,1,.39c.5.53.53,1.55.4,3.36a37.18,37.18,0,0,0,0,5.7l0,.69c.06,1,.08,1.8.06,2.41,0,1-.06,1.44-.29,1.72a1.1,1.1,0,0,1-.81.47h0a1.14,1.14,0,0,1-.63-.23,10.75,10.75,0,0,1-1.21-1.58c-1.27-1.92-1.63-2.17-2.88-2.6l-1.11-.39A14.09,14.09,0,0,0,118,162c0,.32-.34.56-.64.78-1.16.85-1.26,1.16-1.26,1.83a1.92,1.92,0,0,1-.57,1.6,1,1,0,0,1-.19.12,1.64,1.64,0,0,1-.94.24Z" fill="#fff"/><path d="M113.65,147.44h0c.55,0,.94.38,1.56,1.27a3,3,0,0,0,1.08.85c.92.42,1.62,1,1.62,1.4v0c.36.79,0,1.85.77,2.6a4.43,4.43,0,0,0,2.77,1,2.59,2.59,0,0,0,.84-.13v0h0a25.11,25.11,0,0,1,5.94-2.75h0c.87,0,1,.64.86,3.16a38.12,38.12,0,0,0,0,5.76l0,.71c.06,1,.08,1.75.06,2.35a2.94,2.94,0,0,1-.16,1.38c-.16.19-.27.28-.39.28a.61.61,0,0,1-.31-.13,10.33,10.33,0,0,1-1.07-1.44c-1.28-1.92-1.73-2.32-3.16-2.81l-1.29-.46h0l.09,0a12.91,12.91,0,0,0-6,1.32h0a1.51,1.51,0,0,1,.41-.06h0c.31,0,.27.09-.22.45-1.18.87-1.48,1.33-1.48,2.27,0,.62-.11,1-.35,1.16l-.16.09h0a1.15,1.15,0,0,1-.63.15h-.11a1.47,1.47,0,0,1-.72-.16,12.63,12.63,0,0,0-2.28-.4c-1.09-.12-2.14-.27-2.33-.33-.5-.14-.42-.8.16-1.18a1.59,1.59,0,0,1,.86-.19h.09a25.69,25.69,0,0,0-7.76-1.79,5.35,5.35,0,0,0-1.35.15h0c.1,0,.13.32,0,.67a4.69,4.69,0,0,1-2.82,1.87,6.72,6.72,0,0,1-1.43.18,7.89,7.89,0,0,1-1.46-.17c-1.8-.36-6.72-2.88-7.68-3.94a1,1,0,0,1-.26-.74c0-.32.06-.53.28-.61l0,0,.23,0a1.52,1.52,0,0,0-.21,0,5.41,5.41,0,0,0,.25-.72.41.41,0,0,0,.18.23,1,1,0,0,0,.39.14,1,1,0,0,1-.38-.14c-.74-.46.44-2.26,2.48-3.79a26.46,26.46,0,0,1,14.84-4.87,4.52,4.52,0,0,0,2.55-.47,17.08,17.08,0,0,1,2.23-.95c.79-.29,1.81-.7,2.26-.92a3,3,0,0,1,1.24-.38m4.19,3.71h0a.87.87,0,0,1-.28-.19,4.3,4.3,0,0,0-1.32-.57,3.72,3.72,0,0,1-1.73-1l-.76-.78h0l.75.78a3.67,3.67,0,0,0,1.73,1,4.3,4.3,0,0,1,1.32.57c.15.13.24.19.28.19M116,152.62l-.2-.06a24.25,24.25,0,0,0-6.61-1.13,24.32,24.32,0,0,1,6.61,1.13l.2.06m-.86-.89h0m2.45,1.07a22.63,22.63,0,0,0-2.42-1.06,22.63,22.63,0,0,1,2.42,1.06m5.1,1.9c-.24,0-.37,0-.37-.14h0c0,.09.12.14.37.14a16.6,16.6,0,0,0,3.07-.56,9.81,9.81,0,0,1,1.63-.27.31.31,0,0,1,.13,0c.08,0,.12.38.12.92,0-.55,0-.88-.12-.93a.31.31,0,0,0-.13,0,9.09,9.09,0,0,0-1.63.28,17,17,0,0,1-3.07.55m5.56,7.87a15.42,15.42,0,0,0-.39-2.7,11.26,11.26,0,0,1-.3-2.79,11.29,11.29,0,0,0,.3,2.8,15.09,15.09,0,0,1,.39,2.69m-11.79-.46h0m-15.58,0v0h0v0m15.2.23,0,0,0,0,.07,0-.07,0m-15.5.13,0,.05,0-.05m15.13.17-.09.08.09-.08.06-.06-.06.06m-15.38.06,0,0,0,0,0,0,0,0M100,163l-.07,0,.07,0,.09-.07L100,163m15.31.1-.06.08.06-.08.11-.12-.11.12m-17,.65a3.28,3.28,0,0,0,1.26-.49l.29-.19-.3.19a3.34,3.34,0,0,1-1.25.49m16.66-.23-.06.11.06-.11.09-.14-.09.14m-16.75.23-.17,0h0l.17,0m16.51.25a.42.42,0,0,0,0,.1.42.42,0,0,1,0-.1.71.71,0,0,1,.08-.18.71.71,0,0,0-.08.18m-3.9-.13h0m1.07.27-.14-.05.14.05m2.67.44v0a2,2,0,0,1,.06-.32,2,2,0,0,0-.06.32m-1.61-.09.06,0-.06,0-.16-.06.16.06m1.6.26a.71.71,0,0,1,0,.15h0a.71.71,0,0,0,0-.15m0,.2v0a.08.08,0,0,1,0,0,.08.08,0,0,0,0,0v0m-.85-18.57a4.06,4.06,0,0,0-1.72.5c-.41.2-1.4.6-2.15.87a18,18,0,0,0-2.41,1c-.4.23-.68.31-2,.33a27.49,27.49,0,0,0-15.49,5.09c-1.56,1.17-3.21,2.91-3.14,4.32v.05l0,.06a1.61,1.61,0,0,0-.55,1.42,2.13,2.13,0,0,0,.56,1.44c1.2,1.32,6.38,3.9,8.27,4.28a8.34,8.34,0,0,0,1.68.19,7.89,7.89,0,0,0,1.66-.2,5.68,5.68,0,0,0,3.6-2.5,1.11,1.11,0,0,1,.07-.16h.3a19.37,19.37,0,0,1,5.32,1.05,1.82,1.82,0,0,0-.09.83,1.53,1.53,0,0,0,1.12,1.25c.45.13,2.49.36,2.51.37a15.7,15.7,0,0,1,1.94.31,2.69,2.69,0,0,0,1.18.26h.08a2.34,2.34,0,0,0,1.22-.31,2.15,2.15,0,0,0,.29-.18,2.44,2.44,0,0,0,.77-2c0-.45,0-.62,1-1.39a2.35,2.35,0,0,0,.76-.8,13.86,13.86,0,0,1,4.26-.68l1,.36c1.15.39,1.42.59,2.62,2.38,1,1.47,1.24,1.65,1.35,1.73a1.48,1.48,0,0,0,2.17-.34,3.16,3.16,0,0,0,.43-2.09c0-.59,0-1.39-.07-2.42l0-.71a36,36,0,0,1,0-5.61c.14-2,.1-3.09-.54-3.78a1.85,1.85,0,0,0-1.42-.57,1.06,1.06,0,0,0-.4.08,27.68,27.68,0,0,0-6,2.75,2.11,2.11,0,0,1-.38,0,3.37,3.37,0,0,1-2-.74c-.15-.15-.19-.37-.23-.87a4.36,4.36,0,0,0-.22-1.18c-.17-1.17-1.74-2-2.24-2.19a2.14,2.14,0,0,1-.64-.48,3.22,3.22,0,0,0-2.3-1.73l-.17,0Z" fill="#fff"/><path d="M113.75,148.57l-.71.56-1.18.87c-.27.16-.45.37-.42.47a6.22,6.22,0,0,0,1.82.65c1.62.43,4.79,1.77,4.61,2a14.61,14.61,0,0,1-2.12-.52,25.53,25.53,0,0,0-9.5-1.12,20.76,20.76,0,0,0-5.56.59,22.54,22.54,0,0,0-9.9,5.39,12.6,12.6,0,0,1-1.65,1.48,1.31,1.31,0,0,1-1.1-.08.41.41,0,0,1-.18-.23,5.41,5.41,0,0,1-.25.72,1.55,1.55,0,0,1,.31,0,2.31,2.31,0,0,1,.87.15l.87.64c3.65,2.7,5.62,3.64,7.66,3.67a3.31,3.31,0,0,0,2.22-.52,5.51,5.51,0,0,0,1.07-.81.35.35,0,0,0,0-.08c.12-.21.23-.27.29-.23,1.65-.42,4.55,0,9.11,1.64a13.22,13.22,0,0,1,4.14,1.2c.27.12.35,0,.35-.29a3.45,3.45,0,0,1,2.26-2.69h0a12.91,12.91,0,0,1,6-1.32l-.09,0,.88-.07a4,4,0,0,1,3.41,1.58,4.28,4.28,0,0,0,1,1c.27,0,.19-1.22-.23-3.19a12,12,0,0,1-.26-3.86,5.18,5.18,0,0,0-.08-2.12,5.87,5.87,0,0,0-1.76.25c-2.36.56-3.44.69-3.44.42a.09.09,0,0,1,0-.06,4.13,4.13,0,0,1-3.61-.91c-.79-.76-.4-1.84-.78-2.63,0,.25,0,.24-.35,0a4.3,4.3,0,0,0-1.32-.57,3.67,3.67,0,0,1-1.73-1Z" fill="#f2f2f2"/><path d="M103.59,158.06l-.25-3.36c-.07-.42,0-.75.06-.75s.71,1.08,1,2a2.37,2.37,0,0,0,.44.85c.27.31.27.38,0,.7a1.89,1.89,0,0,0-.33,1c0,.83-.35,2.16-.57,2.16a10.89,10.89,0,0,1-.29-2.62Zm2.56,1.6c-.05-.14-.13-1.4-.19-2.8-.08-2.14-.06-2.5.17-2.31a1.91,1.91,0,0,1,.41.86,3.82,3.82,0,0,0,.43,1.1.8.8,0,0,1,.09.89,6,6,0,0,0-.33,1.35c-.12.93-.43,1.41-.58.91Zm2.41-2.58v-2.52c.13-.15.44.42.69,1.28a2.43,2.43,0,0,0,.43.92c.1.07.11.28,0,.49a10.25,10.25,0,0,0-.38,1.24c-.39,1.65-.65,1.18-.75-1.41Zm2.61,1.08A19.8,19.8,0,0,0,111,156a2.42,2.42,0,0,1,0-1.14c.21-.13.53.33.69,1a1.89,1.89,0,0,0,.56.93l.42.34-.45.31a1.11,1.11,0,0,0-.44.79c0,.59-.2,1.09-.42,1.09s-.18-.51-.19-1.14Zm2.38-.48a15.75,15.75,0,0,0-.12-2c-.18-1,.17-.81.81.53.42.87.45,1.06.22,1.32a1.78,1.78,0,0,0-.34.79.75.75,0,0,1-.32.56c-.18,0-.24-.26-.24-1.18Zm2.18-.8c0-1.66,0-1.79.32-1.51a3.23,3.23,0,0,1,.29,2.62c-.4,1.19-.61.81-.61-1.11Zm2.07.34c-.37-.29-.36-.3.21-.25.33,0,.58.14.56.25C118.51,157.54,118.21,157.54,117.8,157.22Z" fill="#febc5b"/><path d="M113.65,147.44a3,3,0,0,0-1.24.38c-.45.22-1.47.63-2.26.92a17.08,17.08,0,0,0-2.23.95,4.52,4.52,0,0,1-2.55.47A26.46,26.46,0,0,0,90.53,155c-2,1.53-3.22,3.33-2.48,3.79a1.27,1.27,0,0,0,1.1.08,12.6,12.6,0,0,0,1.65-1.48,22.49,22.49,0,0,1,9.9-5.39,20.65,20.65,0,0,1,5.56-.59,25.45,25.45,0,0,1,9.49,1.12,13.48,13.48,0,0,0,2.12.52c.18-.18-3-1.53-4.6-2a6.22,6.22,0,0,1-1.82-.65c0-.1.15-.31.41-.47s.8-.56,1.19-.87l.71-.56.76.78a3.72,3.72,0,0,0,1.73,1,4.3,4.3,0,0,1,1.32.57c.3.26.35.26.35,0s-.7-1-1.62-1.4a3,3,0,0,1-1.08-.85c-.62-.89-1-1.27-1.56-1.27Zm14.58,4.34c-.7,0-6,2.45-6,2.78s1.08.15,3.44-.41a5.69,5.69,0,0,1,1.76-.26,5.2,5.2,0,0,1,.08,2.12,12,12,0,0,0,.26,3.86c.42,2,.5,3.19.23,3.19a4.28,4.28,0,0,1-1-1,4,4,0,0,0-3.41-1.57l-.88.06,1.31.46c1.43.49,1.88.89,3.16,2.81a10.33,10.33,0,0,0,1.07,1.44c.3.21.42.18.7-.15a2.94,2.94,0,0,0,.16-1.38c0-.6,0-1.38-.06-2.35l0-.71a38.12,38.12,0,0,1,0-5.76c.18-2.52,0-3.16-.86-3.16Zm-32.12,3.78a1.72,1.72,0,0,0-1.46.85c-.34.52-.22,1,.47,1.77.42.48,1.36.3,2-.38s.55-.8,0-1.62a1.24,1.24,0,0,0-1-.62Zm-.6,1a1,1,0,0,1,.79.54c.12.35-.74.29-.88-.07a.48.48,0,0,1,0-.43.12.12,0,0,1,.08,0Zm-7.59,2.73a1.86,1.86,0,0,0-.33,0l0,0c-.22.08-.32.29-.28.61a1,1,0,0,0,.26.74c1,1.06,5.88,3.58,7.68,3.94a6,6,0,0,0,2.89,0,4.69,4.69,0,0,0,2.82-1.87c.26-.57,0-1-.26-.44a4,4,0,0,1-1.11.89,3.4,3.4,0,0,1-2.22.52c-2,0-4-1-7.66-3.67l-.87-.64a2.18,2.18,0,0,0-.88-.15Zm29.32,2.61a3.33,3.33,0,0,0-2.69,2.76c0,.34-.08.41-.35.29q-4-1.69-5.09-1c-.58.38-.66,1-.16,1.18.19.06,1.24.21,2.33.33a12.63,12.63,0,0,1,2.28.4,1.53,1.53,0,0,0,.79.16h0a1.15,1.15,0,0,0,.63-.15h0l.16-.09c.24-.18.35-.54.35-1.16,0-.94.3-1.4,1.48-2.27.49-.36.53-.44.22-.45Z"/><path d="M96.34,162.8l-.69-.2,1.23-.24c1.63-.31,2-.69,2-1.91,0-1,.21-1.21.69-.52a1.92,1.92,0,0,1-1,2.84,2.84,2.84,0,0,1-2.26,0Zm27.21-4.25a2.71,2.71,0,0,0-.18-1.54c-.38-.92-.38-.89.07-.89s1.45,1.13,1.3,1.66a2.89,2.89,0,0,1-1.07,1.47C123.48,159.32,123.45,159.15,123.55,158.55Zm-7.12-4.83c-3.91-1.26-10.83-1.3-15.5-.08-1,.25-1.17.25-1.4,0-.39-.39.32-.8,2.27-1.31,3.8-.73,13.1-1,16.31,1.68,0,.18-.4.1-1.68-.31Z" fill="#71a0fe"/><path d="M195.28,166.56a2,2,0,0,1-1-.24,16.68,16.68,0,0,0-2.07-.33c-.83-.1-2.13-.26-2.42-.35a1,1,0,0,1-.72-.8,1.37,1.37,0,0,1,.37-1.07,21.72,21.72,0,0,0-6.15-1.28c-.26,0-.51,0-.73,0a1.94,1.94,0,0,1-.14.45,5.22,5.22,0,0,1-3.22,2.19,6.89,6.89,0,0,1-1.54.19,7.92,7.92,0,0,1-1.57-.18c-1.94-.39-6.93-3-8-4.11a1.54,1.54,0,0,1-.4-1.14,1,1,0,0,1,.45-1q.06-.17.12-.36a.53.53,0,0,1,0-.13c-.05-1.11,1.43-2.73,2.92-3.85a27,27,0,0,1,15.16-5,4.06,4.06,0,0,0,2.29-.4,17.37,17.37,0,0,1,2.31-1c.77-.28,1.78-.68,2.21-.89a3.37,3.37,0,0,1,1.48-.45h.11c.83.05,1.36.71,1.91,1.51a2.69,2.69,0,0,0,.86.66c.86.39,1.87,1.09,1.94,1.82a3.8,3.8,0,0,1,.2,1.09,1.73,1.73,0,0,0,.4,1.23,3.89,3.89,0,0,0,2.39.89,2.1,2.1,0,0,0,.59-.08,24.8,24.8,0,0,1,6.18-2.78h0a1.26,1.26,0,0,1,1,.39c.5.53.53,1.55.4,3.36a37.18,37.18,0,0,0,0,5.7l0,.69c.06,1,.08,1.8.06,2.41,0,1-.06,1.44-.29,1.72a1.1,1.1,0,0,1-.81.47h0a1.14,1.14,0,0,1-.63-.23,10.75,10.75,0,0,1-1.21-1.58c-1.27-1.92-1.63-2.17-2.88-2.6l-1.11-.39A14.09,14.09,0,0,0,199,162c0,.32-.34.56-.64.78-1.16.85-1.26,1.16-1.26,1.83a1.92,1.92,0,0,1-.57,1.6,1,1,0,0,1-.19.12,1.64,1.64,0,0,1-.94.24Z" fill="#fff"/><path d="M194.65,147.44h0c.55,0,.94.38,1.56,1.27a3,3,0,0,0,1.08.85c.92.42,1.62,1,1.62,1.4v0c.36.79,0,1.85.77,2.6a4.43,4.43,0,0,0,2.77,1,2.59,2.59,0,0,0,.84-.13v0h0a25.11,25.11,0,0,1,5.94-2.75h0c.87,0,1,.64.86,3.16a38.12,38.12,0,0,0,0,5.76l0,.71c.06,1,.08,1.75.06,2.35a2.94,2.94,0,0,1-.16,1.38c-.16.19-.27.28-.39.28a.61.61,0,0,1-.31-.13,10.33,10.33,0,0,1-1.07-1.44c-1.28-1.92-1.73-2.32-3.16-2.81l-1.29-.46h0l.09,0a12.91,12.91,0,0,0-6,1.32h0a1.51,1.51,0,0,1,.41-.06h0c.31,0,.27.09-.22.45-1.18.87-1.48,1.33-1.48,2.27,0,.62-.11,1-.35,1.16l-.16.09h0a1.15,1.15,0,0,1-.63.15h-.11a1.47,1.47,0,0,1-.72-.16,12.63,12.63,0,0,0-2.28-.4c-1.09-.12-2.14-.27-2.33-.33-.5-.14-.42-.8.16-1.18a1.59,1.59,0,0,1,.86-.19h.09a25.69,25.69,0,0,0-7.76-1.79,5.35,5.35,0,0,0-1.35.15h0c.1,0,.13.32,0,.67a4.69,4.69,0,0,1-2.82,1.87,6.72,6.72,0,0,1-1.43.18,7.89,7.89,0,0,1-1.46-.17c-1.8-.36-6.72-2.88-7.68-3.94a1,1,0,0,1-.26-.74c0-.32.06-.53.28-.61l0,0,.23,0a1.52,1.52,0,0,0-.21,0,5.41,5.41,0,0,0,.25-.72.41.41,0,0,0,.18.23,1,1,0,0,0,.39.14,1,1,0,0,1-.38-.14c-.74-.46.44-2.26,2.48-3.79a26.46,26.46,0,0,1,14.84-4.87,4.52,4.52,0,0,0,2.55-.47,17.08,17.08,0,0,1,2.23-.95c.79-.29,1.81-.7,2.26-.92a3,3,0,0,1,1.24-.38m4.19,3.71h0a.87.87,0,0,1-.28-.19,4.3,4.3,0,0,0-1.32-.57,3.72,3.72,0,0,1-1.73-1l-.76-.78h0l.75.78a3.67,3.67,0,0,0,1.73,1,4.3,4.3,0,0,1,1.32.57c.15.13.24.19.28.19M197,152.62l-.2-.06a24.25,24.25,0,0,0-6.61-1.13,24.32,24.32,0,0,1,6.61,1.13l.2.06m-.86-.89h0m2.45,1.07a22.63,22.63,0,0,0-2.42-1.06,22.63,22.63,0,0,1,2.42,1.06m5.1,1.9c-.24,0-.37,0-.37-.14h0c0,.09.12.14.37.14a16.6,16.6,0,0,0,3.07-.56,9.81,9.81,0,0,1,1.63-.27.31.31,0,0,1,.13,0c.08,0,.12.38.12.92,0-.55,0-.88-.12-.93a.31.31,0,0,0-.13,0,9.09,9.09,0,0,0-1.63.28,17,17,0,0,1-3.07.55m5.56,7.87a15.42,15.42,0,0,0-.39-2.7,11.26,11.26,0,0,1-.3-2.79,11.29,11.29,0,0,0,.3,2.8,15.09,15.09,0,0,1,.39,2.69m-11.79-.46h0m-15.58,0v0h0v0m15.2.23-.05,0,.05,0,.07,0-.07,0m-15.5.13,0,.05,0-.05m15.13.17-.09.08.09-.08.06-.06-.06.06m-15.38.06-.05,0,.05,0,0,0,0,0M181,163l-.07,0,.07,0,.09-.07L181,163m15.31.1-.06.08.06-.08.11-.12-.11.12m-17,.65a3.28,3.28,0,0,0,1.26-.49l.29-.19-.3.19a3.34,3.34,0,0,1-1.25.49m16.66-.23-.06.11.06-.11.09-.14-.09.14m-16.75.23-.17,0h0l.17,0m16.51.25a.42.42,0,0,0,0,.1.42.42,0,0,1,0-.1.71.71,0,0,1,.08-.18.71.71,0,0,0-.08.18m-3.9-.13h0m1.07.27-.14-.05.14.05m2.67.44v0a2,2,0,0,1,.06-.32,2,2,0,0,0-.06.32m-1.61-.09.06,0-.06,0-.16-.06.16.06m1.6.26a.71.71,0,0,1,0,.15h0a.71.71,0,0,0,0-.15m0,.2v0a.08.08,0,0,1,0,0,.08.08,0,0,0,0,0v0m-.85-18.57a4.06,4.06,0,0,0-1.72.5c-.41.2-1.4.6-2.15.87a18,18,0,0,0-2.41,1c-.4.23-.68.31-2,.33a27.49,27.49,0,0,0-15.49,5.09c-1.56,1.17-3.21,2.91-3.14,4.32v.05l0,.06a1.61,1.61,0,0,0-.55,1.42,2.13,2.13,0,0,0,.56,1.44c1.2,1.32,6.38,3.9,8.27,4.28a8.34,8.34,0,0,0,1.68.19,7.89,7.89,0,0,0,1.66-.2,5.68,5.68,0,0,0,3.6-2.5,1.11,1.11,0,0,1,.07-.16h.3a19.37,19.37,0,0,1,5.32,1.05,1.82,1.82,0,0,0-.09.83,1.53,1.53,0,0,0,1.12,1.25c.45.13,2.49.36,2.51.37a15.7,15.7,0,0,1,1.94.31,2.69,2.69,0,0,0,1.18.26h.08a2.34,2.34,0,0,0,1.22-.31,2.15,2.15,0,0,0,.29-.18,2.44,2.44,0,0,0,.77-2c0-.45,0-.62,1-1.39a2.35,2.35,0,0,0,.76-.8,13.86,13.86,0,0,1,4.26-.68l1,.36c1.15.39,1.42.59,2.62,2.38,1,1.47,1.24,1.65,1.35,1.73a1.48,1.48,0,0,0,2.17-.34,3.16,3.16,0,0,0,.43-2.09c0-.59,0-1.39-.07-2.42l0-.71a36,36,0,0,1,0-5.61c.14-2,.1-3.09-.54-3.78a1.85,1.85,0,0,0-1.42-.57,1.06,1.06,0,0,0-.4.08,27.68,27.68,0,0,0-6,2.75,2.11,2.11,0,0,1-.38,0,3.37,3.37,0,0,1-2-.74c-.15-.15-.19-.37-.23-.87a4.36,4.36,0,0,0-.22-1.18c-.17-1.17-1.74-2-2.24-2.19a2.14,2.14,0,0,1-.64-.48,3.22,3.22,0,0,0-2.3-1.73l-.17,0Z" fill="#fff"/><path d="M194.75,148.57l-.71.56-1.18.87c-.27.16-.45.37-.42.47a6.22,6.22,0,0,0,1.82.65c1.62.43,4.79,1.77,4.61,2a14.61,14.61,0,0,1-2.12-.52,25.53,25.53,0,0,0-9.5-1.12,20.76,20.76,0,0,0-5.56.59,22.54,22.54,0,0,0-9.9,5.39,12.6,12.6,0,0,1-1.65,1.48,1.31,1.31,0,0,1-1.1-.08.41.41,0,0,1-.18-.23,5.41,5.41,0,0,1-.25.72,1.55,1.55,0,0,1,.31,0,2.31,2.31,0,0,1,.87.15l.87.64c3.65,2.7,5.62,3.64,7.66,3.67a3.31,3.31,0,0,0,2.22-.52,5.51,5.51,0,0,0,1.07-.81.35.35,0,0,0,0-.08c.12-.21.23-.27.29-.23,1.65-.42,4.55,0,9.11,1.64a13.22,13.22,0,0,1,4.14,1.2c.27.12.35,0,.35-.29a3.45,3.45,0,0,1,2.26-2.69h0a12.91,12.91,0,0,1,6-1.32l-.09,0,.88-.07a4,4,0,0,1,3.41,1.58,4.28,4.28,0,0,0,1,1c.27,0,.19-1.22-.23-3.19a12,12,0,0,1-.26-3.86,5.18,5.18,0,0,0-.08-2.12,5.87,5.87,0,0,0-1.76.25c-2.36.56-3.44.69-3.44.42a.09.09,0,0,1,0-.06,4.13,4.13,0,0,1-3.61-.91c-.79-.76-.4-1.84-.78-2.63,0,.25,0,.24-.35,0a4.3,4.3,0,0,0-1.32-.57,3.67,3.67,0,0,1-1.73-1Z" fill="#f2f2f2"/><path d="M184.59,158.06l-.25-3.36c-.07-.42,0-.75.06-.75s.71,1.08,1,2a2.37,2.37,0,0,0,.44.85c.27.31.27.38,0,.7a1.89,1.89,0,0,0-.33,1c0,.83-.35,2.16-.57,2.16a10.89,10.89,0,0,1-.29-2.62Zm2.56,1.6c-.05-.14-.13-1.4-.19-2.8-.08-2.14-.06-2.5.17-2.31a1.91,1.91,0,0,1,.41.86,3.82,3.82,0,0,0,.43,1.1.8.8,0,0,1,.09.89,6,6,0,0,0-.33,1.35c-.12.93-.43,1.41-.58.91Zm2.41-2.58v-2.52c.13-.15.44.42.69,1.28a2.43,2.43,0,0,0,.43.92c.1.07.11.28,0,.49a10.25,10.25,0,0,0-.38,1.24c-.39,1.65-.65,1.18-.75-1.41Zm2.61,1.08A19.8,19.8,0,0,0,192,156a2.42,2.42,0,0,1,0-1.14c.21-.13.53.33.69,1a1.89,1.89,0,0,0,.56.93l.42.34-.45.31a1.11,1.11,0,0,0-.44.79c0,.59-.2,1.09-.42,1.09s-.18-.51-.19-1.14Zm2.38-.48a15.75,15.75,0,0,0-.12-2c-.18-1,.17-.81.81.53.42.87.45,1.06.22,1.32a1.78,1.78,0,0,0-.34.79.75.75,0,0,1-.32.56c-.18,0-.24-.26-.24-1.18Zm2.18-.8c0-1.66,0-1.79.32-1.51a3.23,3.23,0,0,1,.29,2.62c-.4,1.19-.61.81-.61-1.11Zm2.07.34c-.37-.29-.36-.3.21-.25.33,0,.58.14.56.25C199.51,157.54,199.21,157.54,198.8,157.22Z" fill="#febc5b"/><path d="M194.65,147.44a3,3,0,0,0-1.24.38c-.45.22-1.47.63-2.26.92a17.08,17.08,0,0,0-2.23.95,4.52,4.52,0,0,1-2.55.47A26.46,26.46,0,0,0,171.53,155c-2,1.53-3.22,3.33-2.48,3.79a1.27,1.27,0,0,0,1.1.08,12.6,12.6,0,0,0,1.65-1.48,22.49,22.49,0,0,1,9.9-5.39,20.65,20.65,0,0,1,5.56-.59,25.45,25.45,0,0,1,9.49,1.12,13.48,13.48,0,0,0,2.12.52c.18-.18-3-1.53-4.6-2a6.22,6.22,0,0,1-1.82-.65c0-.1.15-.31.41-.47s.8-.56,1.19-.87l.71-.56.76.78a3.72,3.72,0,0,0,1.73,1,4.3,4.3,0,0,1,1.32.57c.3.26.35.26.35,0s-.7-1-1.62-1.4a3,3,0,0,1-1.08-.85c-.62-.89-1-1.27-1.56-1.27Zm14.58,4.34c-.7,0-6,2.45-6,2.78s1.08.15,3.44-.41a5.69,5.69,0,0,1,1.76-.26,5.2,5.2,0,0,1,.08,2.12,12,12,0,0,0,.26,3.86c.42,2,.5,3.19.23,3.19a4.28,4.28,0,0,1-1-1,4,4,0,0,0-3.41-1.57l-.88.06,1.31.46c1.43.49,1.88.89,3.16,2.81a10.33,10.33,0,0,0,1.07,1.44c.3.21.42.18.7-.15a2.94,2.94,0,0,0,.16-1.38c0-.6,0-1.38-.06-2.35l0-.71a38.12,38.12,0,0,1,0-5.76c.18-2.52,0-3.16-.86-3.16Zm-32.12,3.78a1.72,1.72,0,0,0-1.46.85c-.34.52-.22,1,.47,1.77.42.48,1.36.3,2-.38s.55-.8,0-1.62a1.24,1.24,0,0,0-1-.62Zm-.6,1a1,1,0,0,1,.79.54c.12.35-.74.29-.88-.07a.48.48,0,0,1,0-.43.12.12,0,0,1,.08,0Zm-7.59,2.73a1.86,1.86,0,0,0-.33,0l0,0c-.22.08-.32.29-.28.61a1,1,0,0,0,.26.74c1,1.06,5.88,3.58,7.68,3.94a6,6,0,0,0,2.89,0,4.69,4.69,0,0,0,2.82-1.87c.26-.57,0-1-.26-.44a4,4,0,0,1-1.11.89,3.4,3.4,0,0,1-2.22.52c-2.05,0-4-1-7.66-3.67l-.87-.64a2.18,2.18,0,0,0-.88-.15Zm29.32,2.61a3.33,3.33,0,0,0-2.69,2.76c0,.34-.08.41-.35.29q-4-1.69-5.09-1c-.58.38-.66,1-.16,1.18.19.06,1.24.21,2.33.33a12.63,12.63,0,0,1,2.28.4,1.53,1.53,0,0,0,.79.16h0a1.15,1.15,0,0,0,.63-.15h0l.16-.09c.24-.18.35-.54.35-1.16,0-.94.3-1.4,1.48-2.27.49-.36.53-.44.22-.45Z"/><path d="M177.34,162.8l-.69-.2,1.23-.24c1.63-.31,2-.69,2-1.91,0-1,.21-1.21.69-.52a1.92,1.92,0,0,1-1,2.84,2.84,2.84,0,0,1-2.26,0Zm27.21-4.25a2.71,2.71,0,0,0-.18-1.54c-.38-.92-.38-.89.07-.89s1.45,1.13,1.3,1.66a2.89,2.89,0,0,1-1.07,1.47C204.48,159.32,204.45,159.15,204.55,158.55Zm-7.12-4.83c-3.91-1.26-10.83-1.3-15.5-.08-1,.25-1.17.25-1.4,0-.39-.39.32-.8,2.27-1.31,3.8-.73,13.1-1,16.31,1.68,0,.18-.4.1-1.68-.31Z" fill="#71a0fe"/></svg>