<svg id="aee66776-a7e6-4619-ad9f-4838ea245db4" data-name="Слой 1" xmlns="http://www.w3.org/2000/svg" width="217.27" height="198.89" viewBox="0 0 217.27 198.89"><rect x="0.58" y="129.54" width="54.67" height="54.67" rx="3" fill="#fff"/><path d="M52.24,184.78H3.58A3.58,3.58,0,0,1,0,181.2V132.54A3.59,3.59,0,0,1,3.58,129H52.24a3.59,3.59,0,0,1,3.58,3.58V181.2A3.58,3.58,0,0,1,52.24,184.78ZM3.58,130.11a2.43,2.43,0,0,0-2.43,2.43V181.2a2.43,2.43,0,0,0,2.43,2.43H52.24a2.43,2.43,0,0,0,2.43-2.43V132.54a2.43,2.43,0,0,0-2.43-2.43Z" fill="#05acff"/><rect x="80.88" y="129.58" width="54.67" height="54.67" rx="3" fill="#fff"/><path d="M132.54,184.82H83.88a3.59,3.59,0,0,1-3.58-3.58V132.58A3.59,3.59,0,0,1,83.88,129h48.66a3.58,3.58,0,0,1,3.58,3.58v48.66A3.58,3.58,0,0,1,132.54,184.82ZM83.88,130.15a2.43,2.43,0,0,0-2.43,2.43v48.66a2.43,2.43,0,0,0,2.43,2.43h48.66a2.43,2.43,0,0,0,2.43-2.43V132.58a2.43,2.43,0,0,0-2.43-2.43Z" fill="#05acff"/><path d="M213.72,184.78h-3.46v-1.15h3.43Zm-6.31,0H204v-1.15h3.43Zm-6.28,0H197.7v-1.15h3.43Zm-6.28,0h-3.43v-1.15h3.43Zm-6.28,0h-3.42v-1.15h3.42Zm-6.28,0h-3.42v-1.15h3.42Zm-6.28,0h-3.42v-1.15H176Zm-6.28,0h-3.42v-1.15h3.42Zm-6.49-.48a3.59,3.59,0,0,1-1.79-3.1v-.27h1.15v.27a2.46,2.46,0,0,0,1.21,2.11Zm53.38-1.05-.94-.66a2.46,2.46,0,0,0,.44-1.39v-1.59h1.15v1.59A3.57,3.57,0,0,1,216.62,183.25Zm-54-5.18h-1.15v-3.42h1.15Zm54.67-1.32h-1.15v-3.42h1.15Zm-54.67-5h-1.15v-3.42h1.15Zm54.67-1.32h-1.15v-3.42h1.15Zm-54.67-5h-1.15v-3.42h1.15Zm54.67-1.32h-1.15v-3.42h1.15Zm-54.67-4.95h-1.15v-3.43h1.15Zm54.67-1.32h-1.15v-3.43h1.15Zm-54.67-5h-1.15v-3.43h1.15Zm54.67-1.32h-1.15v-3.43h1.15Zm-54.67-5h-1.15v-3.43h1.15Zm54.67-1.32h-1.15v-3.43h1.15Zm-54.67-5h-1.15V137h1.15Zm54.67-1.32h-1.15v-3.43h1.15Zm-54.67-5h-1.15v-1.58a3.52,3.52,0,0,1,.65-2.06l.94.66a2.44,2.44,0,0,0-.44,1.4Zm54.67-1.32h-1.15v-.26a2.45,2.45,0,0,0-1.24-2.11l.57-1a3.6,3.6,0,0,1,1.82,3.11Zm-4.89-2.69H209V129h3.42Zm-6.27,0h-3.43V129h3.43Zm-6.28,0H196.4V129h3.43Zm-6.28,0h-3.43V129h3.43Zm-6.28,0h-3.43V129h3.43Zm-6.28,0h-3.43V129H181Zm-6.28,0h-3.42V129h3.42Zm-6.28,0H165V129h3.42Z" fill="#05acff"/><rect x="108.1" y="98.13" width="1.15" height="21.29" fill="#e87474"/><rect x="108.1" y="76.13" width="1.15" height="21.29" fill="#e87474"/><polygon points="108.68 123.07 106.09 117.7 111.27 117.7 108.68 123.07" fill="#e87474"/><rect x="27.91" y="98.13" width="1.15" height="21.29" fill="#e87474"/><polygon points="28.49 123.07 25.9 117.7 31.08 117.7 28.49 123.07" fill="#e87474"/><polygon points="190.16 123.07 187.57 117.7 192.75 117.7 190.16 123.07" fill="#e87474"/><rect x="28.17" y="96.98" width="81.14" height="1.15" fill="#e87474"/><rect x="189.3" y="114.82" width="1.15" height="1.73" fill="#e87474"/><path d="M190.45,105.62H189.3v-3.46h1.15Zm0,6.33H189.3v-3.46h1.15Z" fill="#e87474"/><polygon points="190.45 96.98 188.15 96.98 188.15 98.13 189.3 98.13 189.3 99.28 190.45 99.28 190.45 96.98" fill="#e87474"/><path d="M185.16,98.13h-3.59V97h3.59Zm-6.58,0H175V97h3.59Zm-6.58,0h-3.59V97H172Zm-6.59,0h-3.59V97h3.59Zm-6.58,0h-3.59V97h3.59Zm-6.58,0h-3.59V97h3.59Zm-6.58,0h-3.59V97h3.59Zm-6.58,0H135.5V97h3.59Zm-6.58,0h-3.59V97h3.59Zm-6.58,0h-3.59V97h3.59Zm-6.59,0h-3.59V97h3.59Z" fill="#e87474"/><rect x="111.04" y="96.98" width="1.73" height="1.15" fill="#e87474"/><circle cx="153.05" cy="156.91" r="1.44" fill="#5e6981"/><circle cx="148.44" cy="156.91" r="1.44" fill="#5e6981"/><circle cx="143.84" cy="156.91" r="1.44" fill="#5e6981"/><path d="M13.85,198.79H13L11.59,194c-.07-.21-.15-.48-.23-.8a3.36,3.36,0,0,1-.13-.58,12,12,0,0,1-.35,1.41l-1.39,4.75H8.67l-1.9-7.14h.88l1.12,4.41c.16.62.27,1.18.35,1.68A10.31,10.31,0,0,1,9.51,196l1.28-4.34h.88L13,196a13.58,13.58,0,0,1,.39,1.71,14.66,14.66,0,0,1,.35-1.69l1.13-4.4h.88Z" fill="#fff"/><path d="M21.37,196.11a2.94,2.94,0,0,1-.66,2,2.32,2.32,0,0,1-1.82.74,2.34,2.34,0,0,1-1.27-.34,2.2,2.2,0,0,1-.86-1,3.38,3.38,0,0,1-.3-1.47,2.94,2.94,0,0,1,.65-2,2.31,2.31,0,0,1,1.82-.73,2.26,2.26,0,0,1,1.78.75A2.94,2.94,0,0,1,21.37,196.11Zm-4.08,0a2.5,2.5,0,0,0,.42,1.56,1.41,1.41,0,0,0,1.2.54,1.44,1.44,0,0,0,1.21-.54,3.15,3.15,0,0,0,0-3.11A1.46,1.46,0,0,0,18.9,194a1.42,1.42,0,0,0-1.2.52A2.53,2.53,0,0,0,17.29,196.11Z" fill="#fff"/><path d="M25.23,193.34a3,3,0,0,1,.64.06l-.11.75a2.67,2.67,0,0,0-.58-.07,1.41,1.41,0,0,0-1.12.53,1.94,1.94,0,0,0-.46,1.31v2.87h-.81v-5.35h.67l.09,1h0a2.38,2.38,0,0,1,.72-.81A1.69,1.69,0,0,1,25.23,193.34Z" fill="#fff"/><path d="M27.68,196.05a8.36,8.36,0,0,1,.64-.78L30,193.44h1l-2.17,2.28,2.32,3.07h-1l-1.89-2.53-.61.53v2h-.8v-7.6h.8v4c0,.18,0,.46,0,.83Z" fill="#fff"/><path d="M34.38,198.89a2.46,2.46,0,0,1-1.87-.72,2.81,2.81,0,0,1-.68-2,3.15,3.15,0,0,1,.63-2.06,2.12,2.12,0,0,1,1.71-.76,2,2,0,0,1,1.6.66,2.55,2.55,0,0,1,.58,1.75v.51H32.67a2.08,2.08,0,0,0,.47,1.43,1.64,1.64,0,0,0,1.27.49,4.3,4.3,0,0,0,1.71-.36v.72a4.05,4.05,0,0,1-.81.27A4.88,4.88,0,0,1,34.38,198.89ZM34.17,194a1.32,1.32,0,0,0-1,.42,1.88,1.88,0,0,0-.45,1.16h2.79a1.76,1.76,0,0,0-.34-1.17A1.2,1.2,0,0,0,34.17,194Z" fill="#fff"/><path d="M40.18,193.34a3.16,3.16,0,0,1,.64.06l-.12.75a2.6,2.6,0,0,0-.58-.07,1.38,1.38,0,0,0-1.11.53,1.9,1.9,0,0,0-.47,1.31v2.87h-.81v-5.35h.67l.1,1h0a2.26,2.26,0,0,1,.71-.81A1.69,1.69,0,0,1,40.18,193.34Z" fill="#fff"/><path d="M47.05,198.79h-.8V193.7c0-.42,0-.82,0-1.2a2.49,2.49,0,0,1-.23.22l-1.16.95-.43-.56,1.89-1.46h.69Z" fill="#fff"/><path d="M93.91,198.79h-.82L91.65,194c-.07-.21-.14-.48-.23-.8a4.91,4.91,0,0,1-.13-.58A11.86,11.86,0,0,1,91,194l-1.4,4.75h-.82l-1.9-7.14h.88l1.13,4.41a15.16,15.16,0,0,1,.34,1.68,12.68,12.68,0,0,1,.39-1.75l1.28-4.34h.88L93.07,196a13.51,13.51,0,0,1,.4,1.71,14.66,14.66,0,0,1,.35-1.69l1.12-4.4h.88Z" fill="#fff"/><path d="M101.44,196.11a2.94,2.94,0,0,1-.66,2,2.33,2.33,0,0,1-1.82.74,2.38,2.38,0,0,1-1.28-.34,2.2,2.2,0,0,1-.86-1,3.38,3.38,0,0,1-.3-1.47,3,3,0,0,1,.65-2,2.32,2.32,0,0,1,1.82-.73,2.25,2.25,0,0,1,1.78.75A2.9,2.9,0,0,1,101.44,196.11Zm-4.08,0a2.57,2.57,0,0,0,.41,1.56,1.42,1.42,0,0,0,1.21.54,1.41,1.41,0,0,0,1.2-.54,3.09,3.09,0,0,0,0-3.11,1.66,1.66,0,0,0-2.42,0A2.53,2.53,0,0,0,97.36,196.11Z" fill="#fff"/><path d="M105.3,193.34a3.1,3.1,0,0,1,.64.06l-.11.75a2.75,2.75,0,0,0-.59-.07,1.41,1.41,0,0,0-1.11.53,1.89,1.89,0,0,0-.46,1.31v2.87h-.81v-5.35h.67l.09,1h0a2.38,2.38,0,0,1,.72-.81A1.66,1.66,0,0,1,105.3,193.34Z" fill="#fff"/><path d="M107.74,196.05a8.36,8.36,0,0,1,.64-.78l1.73-1.83h1l-2.17,2.28,2.32,3.07h-1l-1.89-2.53-.61.53v2h-.8v-7.6h.8v4c0,.18,0,.46,0,.83Z" fill="#fff"/><path d="M114.45,198.89a2.45,2.45,0,0,1-1.87-.72,2.82,2.82,0,0,1-.69-2,3.1,3.1,0,0,1,.64-2.06,2.09,2.09,0,0,1,1.71-.76,2,2,0,0,1,1.59.66,2.56,2.56,0,0,1,.59,1.75v.51h-3.69a2.13,2.13,0,0,0,.48,1.43,1.62,1.62,0,0,0,1.27.49,4.38,4.38,0,0,0,1.71-.36v.72a4.35,4.35,0,0,1-.82.27A4.77,4.77,0,0,1,114.45,198.89Zm-.22-4.87a1.33,1.33,0,0,0-1,.42,2,2,0,0,0-.45,1.16h2.8a1.81,1.81,0,0,0-.34-1.17A1.22,1.22,0,0,0,114.23,194Z" fill="#fff"/><path d="M120.24,193.34a3.1,3.1,0,0,1,.64.06l-.11.75a2.68,2.68,0,0,0-.59-.07,1.41,1.41,0,0,0-1.11.53,1.89,1.89,0,0,0-.46,1.31v2.87h-.81v-5.35h.67l.09,1h0a2.38,2.38,0,0,1,.72-.81A1.69,1.69,0,0,1,120.24,193.34Z" fill="#fff"/><path d="M128.8,198.79h-4.69v-.7L126,196.2a13.5,13.5,0,0,0,1.13-1.24,3.35,3.35,0,0,0,.41-.72,2.14,2.14,0,0,0,.14-.76,1.19,1.19,0,0,0-.35-.9,1.3,1.3,0,0,0-1-.34,2.32,2.32,0,0,0-.84.15,3.34,3.34,0,0,0-.89.53l-.43-.55a3.27,3.27,0,0,1,2.15-.82,2.31,2.31,0,0,1,1.58.51,1.79,1.79,0,0,1,.57,1.39,2.7,2.7,0,0,1-.38,1.34,8.85,8.85,0,0,1-1.43,1.68L125.13,198v0h3.67Z" fill="#fff"/><path d="M174.91,198.79h-.82L172.65,194c-.07-.21-.14-.48-.23-.8a4.91,4.91,0,0,1-.13-.58A11.86,11.86,0,0,1,172,194l-1.4,4.75h-.82l-1.9-7.14h.88l1.13,4.41a15.16,15.16,0,0,1,.34,1.68,12.68,12.68,0,0,1,.39-1.75l1.28-4.34h.88l1.34,4.38a13.51,13.51,0,0,1,.4,1.71,14.66,14.66,0,0,1,.35-1.69l1.12-4.4h.88Z" fill="#fff"/><path d="M182.44,196.11a2.94,2.94,0,0,1-.66,2,2.33,2.33,0,0,1-1.82.74,2.38,2.38,0,0,1-1.28-.34,2.2,2.2,0,0,1-.86-1,3.38,3.38,0,0,1-.3-1.47,3,3,0,0,1,.65-2,2.32,2.32,0,0,1,1.82-.73,2.25,2.25,0,0,1,1.78.75A2.9,2.9,0,0,1,182.44,196.11Zm-4.08,0a2.57,2.57,0,0,0,.41,1.56,1.42,1.42,0,0,0,1.21.54,1.41,1.41,0,0,0,1.2-.54,3.09,3.09,0,0,0,0-3.11,1.66,1.66,0,0,0-2.42,0A2.53,2.53,0,0,0,178.36,196.11Z" fill="#fff"/><path d="M186.3,193.34a3.1,3.1,0,0,1,.64.06l-.11.75a2.75,2.75,0,0,0-.59-.07,1.41,1.41,0,0,0-1.11.53,1.89,1.89,0,0,0-.46,1.31v2.87h-.81v-5.35h.67l.09,1h0a2.38,2.38,0,0,1,.72-.81A1.66,1.66,0,0,1,186.3,193.34Z" fill="#fff"/><path d="M188.74,196.05a8.36,8.36,0,0,1,.64-.78l1.73-1.83h1l-2.17,2.28,2.32,3.07h-1l-1.89-2.53-.61.53v2h-.8v-7.6h.8v4c0,.18,0,.46,0,.83Z" fill="#fff"/><path d="M195.45,198.89a2.45,2.45,0,0,1-1.87-.72,2.82,2.82,0,0,1-.69-2,3.1,3.1,0,0,1,.64-2.06,2.09,2.09,0,0,1,1.71-.76,2,2,0,0,1,1.59.66,2.56,2.56,0,0,1,.59,1.75v.51h-3.69a2.13,2.13,0,0,0,.48,1.43,1.62,1.62,0,0,0,1.27.49,4.38,4.38,0,0,0,1.71-.36v.72a4.35,4.35,0,0,1-.82.27A4.77,4.77,0,0,1,195.45,198.89Zm-.22-4.87a1.33,1.33,0,0,0-1,.42,2,2,0,0,0-.45,1.16h2.8a1.81,1.81,0,0,0-.34-1.17A1.22,1.22,0,0,0,195.23,194Z" fill="#fff"/><path d="M201.24,193.34a3.1,3.1,0,0,1,.64.06l-.11.75a2.68,2.68,0,0,0-.59-.07,1.41,1.41,0,0,0-1.11.53,1.89,1.89,0,0,0-.46,1.31v2.87h-.81v-5.35h.67l.09,1h0a2.38,2.38,0,0,1,.72-.81A1.69,1.69,0,0,1,201.24,193.34Z" fill="#fff"/><path d="M211.18,198.79h-1l-3.9-6h0c.05.7.08,1.35.08,1.93v4.06h-.77v-7.14h.94l3.89,6h0c0-.09,0-.37-.05-.85s0-.82,0-1v-4.1h.78Z" fill="#fff"/><rect x="80.88" y="0.58" width="54.67" height="54.67" rx="3" fill="#d65d5d"/><path d="M132.54,55.82H83.88a3.59,3.59,0,0,1-3.58-3.58V3.58A3.59,3.59,0,0,1,83.88,0h48.66a3.58,3.58,0,0,1,3.58,3.58V52.24A3.58,3.58,0,0,1,132.54,55.82ZM83.88,1.15a2.43,2.43,0,0,0-2.43,2.43V52.24a2.43,2.43,0,0,0,2.43,2.43h48.66A2.43,2.43,0,0,0,135,52.24V3.58a2.43,2.43,0,0,0-2.43-2.43Z" fill="#e87474"/><path d="M96.06,68.79l-2.42-6.33h0c.05.5.07,1.1.07,1.79v4.54H92.9V61.65h1.25l2.27,5.89h0l2.28-5.89H100v7.14h-.83v-4.6c0-.53,0-1.1.07-1.72h0l-2.44,6.32Z" fill="#fff"/><path d="M105.1,68.79l-.16-.76h0a2.31,2.31,0,0,1-.8.68,2.37,2.37,0,0,1-1,.18,1.81,1.81,0,0,1-1.25-.41,1.51,1.51,0,0,1-.45-1.17c0-1.08.86-1.65,2.59-1.7l.91,0v-.33a1.36,1.36,0,0,0-.27-.93,1.12,1.12,0,0,0-.87-.3,3.58,3.58,0,0,0-1.51.41l-.25-.62a3.84,3.84,0,0,1,1.81-.46,2,2,0,0,1,1.42.43,1.75,1.75,0,0,1,.46,1.36v3.65Zm-1.83-.57a1.63,1.63,0,0,0,1.19-.42,1.51,1.51,0,0,0,.43-1.16v-.48l-.81,0a3,3,0,0,0-1.39.3.91.91,0,0,0-.43.83.83.83,0,0,0,.27.67A1.09,1.09,0,0,0,103.27,68.22Z" fill="#fff"/><path d="M110.82,67.33a1.33,1.33,0,0,1-.55,1.15,2.61,2.61,0,0,1-1.56.41,3.38,3.38,0,0,1-1.67-.34V67.8a4.57,4.57,0,0,0,.83.31,3.74,3.74,0,0,0,.85.11,2,2,0,0,0,1-.2.71.71,0,0,0,.07-1.16,4.44,4.44,0,0,0-1.06-.52,6.12,6.12,0,0,1-1.06-.49,1.5,1.5,0,0,1-.47-.47,1.22,1.22,0,0,1-.15-.63,1.21,1.21,0,0,1,.53-1,2.5,2.5,0,0,1,1.46-.38,4.34,4.34,0,0,1,1.69.35l-.29.66A3.85,3.85,0,0,0,109,64a1.71,1.71,0,0,0-.87.18.57.57,0,0,0-.29.5.61.61,0,0,0,.11.36,1,1,0,0,0,.36.29,7.2,7.2,0,0,0,.93.4,3.36,3.36,0,0,1,1.29.7A1.23,1.23,0,0,1,110.82,67.33Z" fill="#fff"/><path d="M113.87,68.22a3,3,0,0,0,.42,0l.31-.07v.62a1.45,1.45,0,0,1-.39.11,4.09,4.09,0,0,1-.46,0c-1,0-1.55-.55-1.55-1.64V64.07h-.77v-.39l.77-.34.34-1.14H113v1.24h1.55v.63H113v3.15a1.09,1.09,0,0,0,.23.74A.8.8,0,0,0,113.87,68.22Z" fill="#fff"/><path d="M117.93,68.89a2.46,2.46,0,0,1-1.87-.72,2.81,2.81,0,0,1-.68-2A3.15,3.15,0,0,1,116,64.1a2.12,2.12,0,0,1,1.71-.76,2.05,2.05,0,0,1,1.6.66,2.55,2.55,0,0,1,.58,1.75v.51h-3.69a2.13,2.13,0,0,0,.48,1.43,1.64,1.64,0,0,0,1.27.49,4.3,4.3,0,0,0,1.71-.36v.72a4.27,4.27,0,0,1-.81.27A5,5,0,0,1,117.93,68.89ZM117.71,64a1.3,1.3,0,0,0-1,.42,2,2,0,0,0-.46,1.16H119a1.76,1.76,0,0,0-.34-1.17A1.21,1.21,0,0,0,117.71,64Z" fill="#fff"/><path d="M123.72,63.34a3,3,0,0,1,.64.06l-.11.75a2.67,2.67,0,0,0-.58-.07,1.41,1.41,0,0,0-1.12.53,1.94,1.94,0,0,0-.46,1.31v2.87h-.81V63.44H122l.09,1h0a2.38,2.38,0,0,1,.72-.81A1.69,1.69,0,0,1,123.72,63.34Z" fill="#fff"/><path d="M28.78,93.13a1.57,1.57,0,0,1-.72-.13v-.71a2.46,2.46,0,0,0,.72.1.91.91,0,0,0,.73-.29,1.27,1.27,0,0,0,.25-.85V84.11h.83v7.07a2.06,2.06,0,0,1-.46,1.44A1.76,1.76,0,0,1,28.78,93.13Z" fill="#d65d5d"/><path d="M37,88.57a2.94,2.94,0,0,1-.66,2,2.33,2.33,0,0,1-1.82.74A2.38,2.38,0,0,1,33.23,91a2.2,2.2,0,0,1-.86-1,3.38,3.38,0,0,1-.3-1.47,3,3,0,0,1,.65-2,2.32,2.32,0,0,1,1.82-.73,2.25,2.25,0,0,1,1.78.75A2.9,2.9,0,0,1,37,88.57Zm-4.08,0a2.57,2.57,0,0,0,.41,1.56,1.62,1.62,0,0,0,2.41,0,2.51,2.51,0,0,0,.42-1.57A2.45,2.45,0,0,0,35.73,87a1.66,1.66,0,0,0-2.42,0A2.53,2.53,0,0,0,32.91,88.57Z" fill="#d65d5d"/><path d="M40.9,85.81a2,2,0,0,1,1.64.72,3.87,3.87,0,0,1,0,4.09,2,2,0,0,1-1.63.73,2.49,2.49,0,0,1-1-.19,1.8,1.8,0,0,1-.72-.6h-.06l-.17.69h-.58v-7.6h.81V85.5c0,.41,0,.78,0,1.11h0A1.94,1.94,0,0,1,40.9,85.81Zm-.12.68a1.43,1.43,0,0,0-1.2.48,3.71,3.71,0,0,0,0,3.21,1.43,1.43,0,0,0,1.21.49,1.24,1.24,0,0,0,1.11-.54,2.78,2.78,0,0,0,.37-1.57A2.64,2.64,0,0,0,41.91,87,1.29,1.29,0,0,0,40.78,86.49Z" fill="#d65d5d"/><path d="M51.23,91.25h-4V84.11h4v.74H48.08v2.3h3v.73h-3v2.63h3.15Z" fill="#d65d5d"/><path d="M54,88.51,52.12,85.9h.93l1.41,2,1.4-2h.92l-1.86,2.61,1.95,2.74H56l-1.5-2.17-1.52,2.17H52Z" fill="#d65d5d"/><path d="M60.19,91.35a2.46,2.46,0,0,1-1.87-.72,2.8,2.8,0,0,1-.68-2,3.15,3.15,0,0,1,.63-2.06A2.15,2.15,0,0,1,60,85.8a2,2,0,0,1,1.6.66,2.55,2.55,0,0,1,.58,1.75v.51H58.48A2.08,2.08,0,0,0,59,90.15a1.64,1.64,0,0,0,1.27.49,4.3,4.3,0,0,0,1.71-.36V91a4.05,4.05,0,0,1-.81.27A4.88,4.88,0,0,1,60.19,91.35ZM60,86.48a1.3,1.3,0,0,0-1,.42,1.88,1.88,0,0,0-.45,1.16h2.79A1.76,1.76,0,0,0,61,86.89,1.21,1.21,0,0,0,60,86.48Z" fill="#d65d5d"/><path d="M65.68,91.35a2.29,2.29,0,0,1-1.8-.72,3,3,0,0,1-.63-2,3,3,0,0,1,.64-2.08,2.37,2.37,0,0,1,1.85-.73,4.11,4.11,0,0,1,.77.08,2.46,2.46,0,0,1,.6.2l-.25.69a4,4,0,0,0-.58-.18,2.44,2.44,0,0,0-.56-.07c-1.09,0-1.63.69-1.63,2.08a2.49,2.49,0,0,0,.39,1.51,1.4,1.4,0,0,0,1.18.53A3.68,3.68,0,0,0,67,90.35v.72A2.89,2.89,0,0,1,65.68,91.35Z" fill="#d65d5d"/><path d="M69.07,85.9v3.47a1.45,1.45,0,0,0,.29,1,1.24,1.24,0,0,0,.94.32,1.52,1.52,0,0,0,1.23-.46,2.35,2.35,0,0,0,.38-1.5V85.9h.81v5.35h-.67l-.11-.72h0a1.52,1.52,0,0,1-.69.61,2.31,2.31,0,0,1-1,.21,2,2,0,0,1-1.46-.47,2,2,0,0,1-.48-1.48V85.9Z" fill="#d65d5d"/><path d="M76.17,90.68a3,3,0,0,0,.42,0l.31-.07v.62a1.45,1.45,0,0,1-.39.11,4.09,4.09,0,0,1-.46,0c-1,0-1.55-.55-1.55-1.64V86.53h-.77v-.39l.77-.34.34-1.14h.47V85.9h1.55v.63H75.31v3.15a1.09,1.09,0,0,0,.23.74A.8.8,0,0,0,76.17,90.68Z" fill="#d65d5d"/><path d="M77.9,84.45A.55.55,0,0,1,78,84a.51.51,0,0,1,.34-.13.53.53,0,0,1,.34.13.67.67,0,0,1,0,.82.48.48,0,0,1-.34.13.47.47,0,0,1-.34-.13A.56.56,0,0,1,77.9,84.45Zm.88,6.8H78V85.9h.81Z" fill="#d65d5d"/><path d="M85.12,88.57a2.94,2.94,0,0,1-.66,2,2.32,2.32,0,0,1-1.82.74A2.34,2.34,0,0,1,81.37,91a2.2,2.2,0,0,1-.86-1,3.25,3.25,0,0,1-.31-1.47,2.94,2.94,0,0,1,.66-2,2.56,2.56,0,0,1,3.6,0A2.94,2.94,0,0,1,85.12,88.57Zm-4.08,0a2.57,2.57,0,0,0,.41,1.56,1.44,1.44,0,0,0,1.21.54,1.46,1.46,0,0,0,1.21-.53,2.58,2.58,0,0,0,.41-1.57A2.51,2.51,0,0,0,83.87,87a1.46,1.46,0,0,0-1.22-.53,1.42,1.42,0,0,0-1.2.52A2.53,2.53,0,0,0,81,88.57Z" fill="#d65d5d"/><path d="M90.2,91.25V87.79a1.45,1.45,0,0,0-.29-1,1.24,1.24,0,0,0-.94-.32,1.54,1.54,0,0,0-1.23.45,2.32,2.32,0,0,0-.39,1.5v2.81h-.81V85.9h.66l.13.73h0a1.67,1.67,0,0,1,.7-.61,2.19,2.19,0,0,1,1-.22,2,2,0,0,1,1.46.47A2,2,0,0,1,91,87.76v3.49Z" fill="#d65d5d"/><path d="M104.09,28.38a4.29,4.29,0,0,1-1.18,3.24,4.73,4.73,0,0,1-3.39,1.12h-2.4V24.17h2.65A4.37,4.37,0,0,1,103,25.28,4.09,4.09,0,0,1,104.09,28.38Zm-1.48,0c0-2.05-1-3.07-2.88-3.07H98.52v6.21h1C101.58,31.56,102.61,30.52,102.61,28.42Z" fill="#fff"/><path d="M111.24,32.74l-.85-2.38h-3.28l-.84,2.38H104.8l3.2-8.6h1.52l3.21,8.6ZM110,29.15l-.81-2.33c0-.15-.14-.4-.24-.74s-.17-.58-.21-.73a12.77,12.77,0,0,1-.47,1.57l-.77,2.23Z" fill="#fff"/><path d="M118.8,30.41a2.17,2.17,0,0,1-.83,1.8,3.62,3.62,0,0,1-2.28.65,5.41,5.41,0,0,1-2.37-.45V31.08a6.28,6.28,0,0,0,1.24.44,5.57,5.57,0,0,0,1.23.15,2,2,0,0,0,1.23-.31,1,1,0,0,0,.39-.85,1.09,1.09,0,0,0-.36-.82,5.63,5.63,0,0,0-1.5-.79,3.87,3.87,0,0,1-1.65-1.08,2.32,2.32,0,0,1-.49-1.47,2,2,0,0,1,.77-1.68,3.14,3.14,0,0,1,2-.62,6,6,0,0,1,2.45.54l-.44,1.14a5.43,5.43,0,0,0-2-.48,1.53,1.53,0,0,0-1,.3,1,1,0,0,0-.36.78,1.15,1.15,0,0,0,.14.57,1.46,1.46,0,0,0,.47.45,7.46,7.46,0,0,0,1.16.56,6,6,0,0,1,1.38.73,2.1,2.1,0,0,1,.64.77A2.23,2.23,0,0,1,118.8,30.41Z" fill="#fff"/><path d="M14.41,170.67a.58.58,0,0,1-.26-.06.82.82,0,0,1-.2-.12.58.58,0,0,1-.18-.26,10.21,10.21,0,0,1-1-4.1l-.14,0a.63.63,0,0,1-.32-.1.6.6,0,0,1-.25-.51c.35-5.62,2.41-15.76,12.31-20.53a.53.53,0,0,1,.25,0,.58.58,0,0,1,.39.15.59.59,0,0,1,.14.63,13.58,13.58,0,0,0,.1,4.22,49.63,49.63,0,0,1,6.21-.47,19.93,19.93,0,0,1,2.75.17c2-2.55,9.37-4.47,10.24-4.69h.14a.56.56,0,0,1,.43.94l-4.8,5.56L45,156.75a.57.57,0,0,1,0,.76.59.59,0,0,1-.43.19.53.53,0,0,1-.32-.1,24.14,24.14,0,0,0-8.7-3.26,18.36,18.36,0,0,0-3.26-.29c-4.73,0-8.16,2-9.11,3.9a1.42,1.42,0,0,0,0,1.52,1.63,1.63,0,0,0,1.28.77c1.25,0,2.64-1.78,3.07-2.46a.58.58,0,0,1,.49-.27h.09a.58.58,0,0,1,.46.42c0,.16.89,4-5.73,9.23-2,1.62-6.36,3.42-8.41,3.5Zm.37-5a11.68,11.68,0,0,0,1.36,2,14.17,14.17,0,0,0,1.1-1.63,5.06,5.06,0,0,0-2.06-.42Zm2.3-2.51a.54.54,0,0,0,.38-.23,2.83,2.83,0,0,0,.37-1.21,2.91,2.91,0,0,0-.37.4,2.5,2.5,0,0,0-.47,1Z" fill="#fff"/><path d="M44.55,145.53h0m0,0-5.14,5.94,5.14,5.66a24.17,24.17,0,0,0-8.92-3.35,19.3,19.3,0,0,0-3.36-.3c-7.16,0-11.15,4.31-9.54,6.34a2.17,2.17,0,0,0,1.73,1c1.85,0,3.56-2.73,3.56-2.73s.87,3.55-5.53,8.64c-1.94,1.54-6.13,3.3-8.08,3.38,0,0-.05,0-.07,0h0a9.33,9.33,0,0,1-1-4,13.69,13.69,0,0,0,2,3.38l.06,0a8.3,8.3,0,0,1-1.22-3.69,13.35,13.35,0,0,0,2,2.91A12.91,12.91,0,0,0,18,165.79h0a5.65,5.65,0,0,0-2.83-.74,6.6,6.6,0,0,0-2.59.53c.34-5.41,2.33-15.4,12-20.05-.46,1.11.15,5.08.15,5.08a50,50,0,0,1,6.69-.54,18.92,18.92,0,0,1,3,.21c1.5-2.58,10.11-4.75,10.11-4.75m-20.47,8.91c.51-.93.36-1.78-1.16-2.3a2.5,2.5,0,0,1,1.16,2.3m-.65,1c.66-1.23.48-2.33-1.52-3a3.32,3.32,0,0,1,1.52,3m-.76,1.07c.83-1.53.59-2.91-1.89-3.76a4.08,4.08,0,0,1,1.89,3.76m-.87,1.07c1-1.83.7-3.47-2.27-4.5a4.92,4.92,0,0,1,2.27,4.5m-3.32,3.23c-1.45.1-2.47,2.43-1.9,2.75a1,1,0,0,0,.5.14,1.07,1.07,0,0,0,.82-.44,5.3,5.3,0,0,0,.58-2.45h0m26.07-16.42h-.1a.65.65,0,0,0-.2,0c-1.45.36-8,2.13-10.31,4.63a20.86,20.86,0,0,0-2.52-.14,49.14,49.14,0,0,0-5.71.4,12,12,0,0,1-.08-3.36,1.15,1.15,0,0,0-.28-1.26,1.17,1.17,0,0,0-.79-.31,1.05,1.05,0,0,0-.48.11c-10.15,4.89-12.27,15.26-12.63,21a1.14,1.14,0,0,0,.51,1,.78.78,0,0,0,.2.11,11.37,11.37,0,0,0,1.08,3.82,1.17,1.17,0,0,0,.31.45,1.51,1.51,0,0,0,.86.34h0c2.18-.09,6.59-1.91,8.75-3.62,6.78-5.4,6-9.38,5.92-9.81a1.15,1.15,0,0,0-.92-.86H28a1.14,1.14,0,0,0-1,.54c-.56.88-1.77,2.19-2.59,2.19-.1,0-.41,0-.84-.55a.9.9,0,0,1,.06-.92c.67-1.38,3.6-3.58,8.59-3.58a18.18,18.18,0,0,1,3.16.28,23.32,23.32,0,0,1,8.47,3.17,1.18,1.18,0,0,0,.65.2,1.12,1.12,0,0,0,.86-.39,1.14,1.14,0,0,0,0-1.52l-4.46-4.91,4.44-5.14a1.1,1.1,0,0,0,.32-.78,1.15,1.15,0,0,0-1.13-1.15Zm0,2.29h0ZM16.13,166.72c-.12-.16-.23-.33-.34-.49a3.84,3.84,0,0,1,.59.11l-.25.38Z" fill="#fff"/><path d="M14.16,165.65a13.05,13.05,0,0,0,2.27,3.21,1.51,1.51,0,0,1-.91.74S14.09,167.25,14.16,165.65Zm-.84.36a14,14,0,0,0,2.07,3.47,1.41,1.41,0,0,1-1.07.58S13.11,167.59,13.32,166Z" fill="#f0981b"/><path d="M44.55,145.53s-8.61,2.17-10.11,4.75c-3.6-.63-9.71.33-9.71.33s-.61-4-.15-5.08c-9.66,4.65-11.65,14.64-12,20.05a6.26,6.26,0,0,1,5.42.21c.11-.07-1.79,3.44-3.7,4.26,0,0,.12,0,.1,0,1.95-.08,6.14-1.84,8.08-3.38,6.4-5.09,5.53-8.64,5.53-8.64s-3,4.72-5.29,1.74c-1.84-2.33,3.67-7.66,12.9-6a24.17,24.17,0,0,1,8.92,3.35l-5.14-5.66ZM17.9,163.25a1,1,0,0,1-1.32.3c-.57-.32.45-2.65,1.9-2.75A5.22,5.22,0,0,1,17.9,163.25Zm3.9-5.68a4.92,4.92,0,0,0-2.27-4.5C22.5,154.1,22.78,155.74,21.8,157.57Zm.87-1.07a4.08,4.08,0,0,0-1.89-3.76C23.26,153.59,23.5,155,22.67,156.5Zm.76-1.07a3.32,3.32,0,0,0-1.52-3C23.91,153.1,24.09,154.2,23.43,155.43Zm.65-1a2.5,2.5,0,0,0-1.16-2.3C24.44,152.66,24.59,153.51,24.08,154.44Z" fill="#f0981b"/><path d="M93.41,170.67a.58.58,0,0,1-.26-.06.82.82,0,0,1-.2-.12.58.58,0,0,1-.18-.26,10.21,10.21,0,0,1-1-4.1l-.14,0a.63.63,0,0,1-.32-.1.6.6,0,0,1-.25-.51c.35-5.62,2.41-15.76,12.31-20.53a.53.53,0,0,1,.25,0,.58.58,0,0,1,.39.15.59.59,0,0,1,.14.63,13.58,13.58,0,0,0,.1,4.22,49.63,49.63,0,0,1,6.21-.47,19.93,19.93,0,0,1,2.75.17c2-2.55,9.37-4.47,10.24-4.69h.14a.56.56,0,0,1,.43.94l-4.8,5.56,4.79,5.29a.57.57,0,0,1,0,.76.59.59,0,0,1-.43.19.53.53,0,0,1-.32-.1,24.14,24.14,0,0,0-8.7-3.26,18.36,18.36,0,0,0-3.26-.29c-4.73,0-8.16,2-9.11,3.9a1.42,1.42,0,0,0,0,1.52,1.63,1.63,0,0,0,1.28.77c1.25,0,2.64-1.78,3.07-2.46a.58.58,0,0,1,.49-.27h.09a.58.58,0,0,1,.46.42c0,.16.89,4-5.73,9.23-2,1.62-6.36,3.42-8.41,3.5Zm.37-5a11.68,11.68,0,0,0,1.36,2,14.17,14.17,0,0,0,1.1-1.63,5.06,5.06,0,0,0-2.06-.42Zm2.3-2.51a.54.54,0,0,0,.38-.23,2.83,2.83,0,0,0,.37-1.21,2.91,2.91,0,0,0-.37.4,2.5,2.5,0,0,0-.47,1Z" fill="#fff"/><path d="M123.55,145.53h0m0,0-5.14,5.94,5.14,5.66a24.17,24.17,0,0,0-8.92-3.35,19.3,19.3,0,0,0-3.36-.3c-7.16,0-11.15,4.31-9.54,6.34a2.17,2.17,0,0,0,1.73,1c1.85,0,3.56-2.73,3.56-2.73s.87,3.55-5.53,8.64c-1.94,1.54-6.13,3.3-8.08,3.38,0,0,0,0-.07,0h0a9.33,9.33,0,0,1-1-4,13.69,13.69,0,0,0,2,3.38l.06,0a8.3,8.3,0,0,1-1.22-3.69,13.35,13.35,0,0,0,2,2.91A12.91,12.91,0,0,0,97,165.79h0a5.65,5.65,0,0,0-2.83-.74,6.6,6.6,0,0,0-2.59.53c.34-5.41,2.33-15.4,12-20.05-.46,1.11.15,5.08.15,5.08a50,50,0,0,1,6.69-.54,18.92,18.92,0,0,1,3,.21c1.5-2.58,10.11-4.75,10.11-4.75m-20.47,8.91c.51-.93.36-1.78-1.16-2.3a2.5,2.5,0,0,1,1.16,2.3m-.65,1c.66-1.23.48-2.33-1.52-3a3.32,3.32,0,0,1,1.52,3m-.76,1.07c.83-1.53.59-2.91-1.89-3.76a4.08,4.08,0,0,1,1.89,3.76m-.87,1.07c1-1.83.7-3.47-2.27-4.5a4.92,4.92,0,0,1,2.27,4.5m-3.32,3.23c-1.45.1-2.47,2.43-1.9,2.75a1,1,0,0,0,.5.14,1.07,1.07,0,0,0,.82-.44,5.3,5.3,0,0,0,.58-2.45h0m26.07-16.42h-.1a.65.65,0,0,0-.2,0c-1.45.36-8,2.13-10.31,4.63a20.86,20.86,0,0,0-2.52-.14,49.14,49.14,0,0,0-5.71.4,12,12,0,0,1-.08-3.36,1.15,1.15,0,0,0-.28-1.26,1.17,1.17,0,0,0-.79-.31,1.05,1.05,0,0,0-.48.11c-10.15,4.89-12.27,15.26-12.63,21a1.14,1.14,0,0,0,.51,1,.78.78,0,0,0,.2.11,11.37,11.37,0,0,0,1.08,3.82,1.17,1.17,0,0,0,.31.45,1.51,1.51,0,0,0,.86.34h0c2.18-.09,6.59-1.91,8.75-3.62,6.78-5.4,6-9.38,5.92-9.81a1.15,1.15,0,0,0-.92-.86H107a1.14,1.14,0,0,0-1,.54c-.56.88-1.77,2.19-2.59,2.19-.1,0-.41,0-.84-.55a.9.9,0,0,1,.06-.92c.67-1.38,3.6-3.58,8.59-3.58a18.18,18.18,0,0,1,3.16.28,23.32,23.32,0,0,1,8.47,3.17,1.18,1.18,0,0,0,.65.2,1.12,1.12,0,0,0,.86-.39,1.14,1.14,0,0,0,0-1.52l-4.46-4.91,4.44-5.14a1.1,1.1,0,0,0,.32-.78,1.15,1.15,0,0,0-1.13-1.15Zm0,2.29h0ZM95.13,166.72c-.12-.16-.23-.33-.34-.49a3.84,3.84,0,0,1,.59.11l-.25.38Z" fill="#fff"/><path d="M93.16,165.65a13.05,13.05,0,0,0,2.27,3.21,1.51,1.51,0,0,1-.91.74S93.09,167.25,93.16,165.65Zm-.84.36a14,14,0,0,0,2.07,3.47,1.41,1.41,0,0,1-1.07.58S92.11,167.59,92.32,166Z" fill="#f0981b"/><path d="M123.55,145.53s-8.61,2.17-10.11,4.75c-3.6-.63-9.71.33-9.71.33s-.61-4-.15-5.08c-9.66,4.65-11.65,14.64-12,20.05a6.26,6.26,0,0,1,5.42.21c.11-.07-1.79,3.44-3.7,4.26,0,0,.12,0,.1,0,2-.08,6.14-1.84,8.08-3.38,6.4-5.09,5.53-8.64,5.53-8.64s-3,4.72-5.29,1.74c-1.84-2.33,3.67-7.66,12.9-6a24.17,24.17,0,0,1,8.92,3.35l-5.14-5.66ZM96.9,163.25a1,1,0,0,1-1.32.3c-.57-.32.45-2.65,1.9-2.75A5.22,5.22,0,0,1,96.9,163.25Zm3.9-5.68a4.92,4.92,0,0,0-2.27-4.5C101.5,154.1,101.78,155.74,100.8,157.57Zm.87-1.07a4.08,4.08,0,0,0-1.89-3.76C102.26,153.59,102.5,155,101.67,156.5Zm.76-1.07a3.32,3.32,0,0,0-1.52-3C102.91,153.1,103.09,154.2,102.43,155.43Zm.65-1a2.5,2.5,0,0,0-1.16-2.3C103.44,152.66,103.59,153.51,103.08,154.44Z" fill="#f0981b"/><path d="M174.41,170.67a.58.58,0,0,1-.26-.06.82.82,0,0,1-.2-.12.58.58,0,0,1-.18-.26,10.21,10.21,0,0,1-1-4.1l-.14,0a.63.63,0,0,1-.32-.1.6.6,0,0,1-.25-.51c.35-5.62,2.41-15.76,12.31-20.53a.53.53,0,0,1,.25,0,.58.58,0,0,1,.39.15.59.59,0,0,1,.14.63,13.58,13.58,0,0,0,.1,4.22,49.63,49.63,0,0,1,6.21-.47,19.93,19.93,0,0,1,2.75.17c2-2.55,9.37-4.47,10.24-4.69h.14a.56.56,0,0,1,.43.94l-4.8,5.56,4.79,5.29a.57.57,0,0,1,0,.76.59.59,0,0,1-.43.19.53.53,0,0,1-.32-.1,24.14,24.14,0,0,0-8.7-3.26,18.36,18.36,0,0,0-3.26-.29c-4.73,0-8.16,2-9.11,3.9a1.42,1.42,0,0,0,0,1.52,1.63,1.63,0,0,0,1.28.77c1.25,0,2.64-1.78,3.07-2.46a.58.58,0,0,1,.49-.27h.09a.58.58,0,0,1,.46.42c0,.16.89,4-5.73,9.23-2,1.62-6.36,3.42-8.41,3.5Zm.37-5a11.68,11.68,0,0,0,1.36,2,14.17,14.17,0,0,0,1.1-1.63,5.06,5.06,0,0,0-2.06-.42Zm2.3-2.51a.54.54,0,0,0,.38-.23,2.83,2.83,0,0,0,.37-1.21,2.91,2.91,0,0,0-.37.4,2.5,2.5,0,0,0-.47,1Z" fill="#fff"/><path d="M204.55,145.53h0m0,0-5.14,5.94,5.14,5.66a24.17,24.17,0,0,0-8.92-3.35,19.3,19.3,0,0,0-3.36-.3c-7.16,0-11.15,4.31-9.54,6.34a2.17,2.17,0,0,0,1.73,1c1.85,0,3.56-2.73,3.56-2.73s.87,3.55-5.53,8.64c-1.94,1.54-6.13,3.3-8.08,3.38,0,0,0,0-.07,0h0a9.33,9.33,0,0,1-1-4,13.69,13.69,0,0,0,2,3.38l.06,0a8.3,8.3,0,0,1-1.22-3.69,13.35,13.35,0,0,0,2,2.91,12.91,12.91,0,0,0,1.87-2.77h0a5.65,5.65,0,0,0-2.83-.74,6.6,6.6,0,0,0-2.59.53c.34-5.41,2.33-15.4,12-20.05-.46,1.11.15,5.08.15,5.08a50,50,0,0,1,6.69-.54,18.92,18.92,0,0,1,3,.21c1.5-2.58,10.11-4.75,10.11-4.75m-20.47,8.91c.51-.93.36-1.78-1.16-2.3a2.5,2.5,0,0,1,1.16,2.3m-.65,1c.66-1.23.48-2.33-1.52-3a3.32,3.32,0,0,1,1.52,3m-.76,1.07c.83-1.53.59-2.91-1.89-3.76a4.08,4.08,0,0,1,1.89,3.76m-.87,1.07c1-1.83.7-3.47-2.27-4.5a4.92,4.92,0,0,1,2.27,4.5m-3.32,3.23c-1.45.1-2.47,2.43-1.9,2.75a1,1,0,0,0,.5.14,1.07,1.07,0,0,0,.82-.44,5.3,5.3,0,0,0,.58-2.45h0m26.07-16.42h-.1a.65.65,0,0,0-.2,0c-1.45.36-8,2.13-10.31,4.63a20.86,20.86,0,0,0-2.52-.14,49.14,49.14,0,0,0-5.71.4,12,12,0,0,1-.08-3.36,1.15,1.15,0,0,0-.28-1.26,1.17,1.17,0,0,0-.79-.31,1.05,1.05,0,0,0-.48.11c-10.15,4.89-12.27,15.26-12.63,21a1.14,1.14,0,0,0,.51,1,.78.78,0,0,0,.2.11,11.37,11.37,0,0,0,1.08,3.82,1.17,1.17,0,0,0,.31.45,1.51,1.51,0,0,0,.86.34h0c2.18-.09,6.59-1.91,8.75-3.62,6.78-5.4,6-9.38,5.92-9.81a1.15,1.15,0,0,0-.92-.86H188a1.14,1.14,0,0,0-1,.54c-.56.88-1.77,2.19-2.59,2.19-.1,0-.41,0-.84-.55a.9.9,0,0,1,.06-.92c.67-1.38,3.6-3.58,8.59-3.58a18.18,18.18,0,0,1,3.16.28,23.32,23.32,0,0,1,8.47,3.17,1.18,1.18,0,0,0,.65.2,1.12,1.12,0,0,0,.86-.39,1.14,1.14,0,0,0,0-1.52l-4.46-4.91,4.44-5.14a1.1,1.1,0,0,0,.32-.78,1.15,1.15,0,0,0-1.13-1.15Zm0,2.29h0Zm-28.42,20.05c-.12-.16-.23-.33-.34-.49a3.84,3.84,0,0,1,.59.11l-.25.38Z" fill="#fff"/><path d="M174.16,165.65a13.05,13.05,0,0,0,2.27,3.21,1.51,1.51,0,0,1-.91.74S174.09,167.25,174.16,165.65Zm-.84.36a14,14,0,0,0,2.07,3.47,1.41,1.41,0,0,1-1.07.58S173.11,167.59,173.32,166Z" fill="#f0981b"/><path d="M204.55,145.53s-8.61,2.17-10.11,4.75c-3.6-.63-9.71.33-9.71.33s-.61-4-.15-5.08c-9.66,4.65-11.65,14.64-12,20.05a6.26,6.26,0,0,1,5.42.21c.11-.07-1.79,3.44-3.7,4.26,0,0,.12,0,.1,0,2-.08,6.14-1.84,8.08-3.38,6.4-5.09,5.53-8.64,5.53-8.64s-3,4.72-5.29,1.74c-1.84-2.33,3.67-7.66,12.9-6a24.17,24.17,0,0,1,8.92,3.35l-5.14-5.66ZM177.9,163.25a1,1,0,0,1-1.32.3c-.57-.32.45-2.65,1.9-2.75A5.22,5.22,0,0,1,177.9,163.25Zm3.9-5.68a4.92,4.92,0,0,0-2.27-4.5C182.5,154.1,182.78,155.74,181.8,157.57Zm.87-1.07a4.08,4.08,0,0,0-1.89-3.76C183.26,153.59,183.5,155,182.67,156.5Zm.76-1.07a3.32,3.32,0,0,0-1.52-3C183.91,153.1,184.09,154.2,183.43,155.43Zm.65-1a2.5,2.5,0,0,0-1.16-2.3C184.44,152.66,184.59,153.51,184.08,154.44Z" fill="#f0981b"/></svg>